<svg width="300" height="159" viewBox="0 0 300 159" fill="none" xmlns="http://www.w3.org/2000/svg">
<path d="M299.492 147.523H9.76269C9.62788 147.523 9.49859 147.466 9.40327 147.366C9.30795 147.266 9.25439 147.13 9.25439 146.989C9.25439 146.847 9.30795 146.711 9.40327 146.611C9.49859 146.511 9.62788 146.455 9.76269 146.455H299.492C299.626 146.455 299.756 146.511 299.851 146.611C299.946 146.711 300 146.847 300 146.989C300 147.13 299.946 147.266 299.851 147.366C299.756 147.466 299.626 147.523 299.492 147.523Z" fill="#D1D3D4"/>
<path d="M105.77 113.661H47.5801V154.039H105.77V113.661Z" fill="#FAF7F7"/>
<path d="M105.811 154.573H47.5801C47.4453 154.573 47.316 154.517 47.2207 154.417C47.1253 154.316 47.0718 154.181 47.0718 154.039V113.662C47.0718 113.52 47.1253 113.384 47.2207 113.284C47.316 113.184 47.4453 113.127 47.5801 113.127H105.811C105.945 113.127 106.075 113.184 106.17 113.284C106.265 113.384 106.319 113.52 106.319 113.662V154.039C106.319 154.181 106.265 154.316 106.17 154.417C106.075 154.517 105.945 154.573 105.811 154.573ZM48.129 153.505H105.302V114.196H48.0884L48.129 153.505Z" fill="#231F20"/>
<path d="M183.702 79.084H125.512V154.028H183.702V79.084Z" fill="#FAF7F7"/>
<path d="M183.702 154.573H125.512C125.377 154.573 125.248 154.517 125.153 154.417C125.057 154.317 125.004 154.181 125.004 154.039V79.0951C125.004 78.9535 125.057 78.8176 125.153 78.7175C125.248 78.6173 125.377 78.561 125.512 78.561H183.702C183.837 78.561 183.966 78.6173 184.061 78.7175C184.156 78.8176 184.21 78.9535 184.21 79.0951V154.039C184.21 154.181 184.156 154.317 184.061 154.417C183.966 154.517 183.837 154.573 183.702 154.573ZM126.02 153.505H183.193V79.6292H126.02V153.505Z" fill="#D1D3D4"/>
<path d="M261.634 52.4541H203.444V154.039H261.634V52.4541Z" fill="#FAF7F7"/>
<path d="M261.634 154.573H203.403C203.269 154.573 203.139 154.517 203.044 154.417C202.949 154.317 202.895 154.181 202.895 154.039V52.4545C202.898 52.3137 202.952 52.1794 203.047 52.0799C203.142 51.9803 203.269 51.9231 203.403 51.9204H261.593C261.728 51.9204 261.857 51.9767 261.953 52.0768C262.048 52.177 262.101 52.3129 262.101 52.4545V154.039C262.102 154.174 262.054 154.303 261.967 154.402C261.88 154.501 261.761 154.562 261.634 154.573ZM203.952 153.505H261.125V52.9886H203.952V153.505Z" fill="#D1D3D4"/>
<path d="M286.906 122.282C286.97 121.278 286.766 120.275 286.317 119.387C285.951 118.735 285.381 118.222 285.076 117.549C284.558 116.364 284.924 114.975 284.802 113.683C284.69 112.6 284.235 111.588 283.511 110.809C282.86 110.126 282.027 109.656 281.417 108.94C280.4 107.765 280.115 106.12 279.546 104.667C278.723 102.597 277.3 100.852 275.48 99.6787C276.578 102.007 274.077 104.966 275.205 107.274C275.571 108 276.222 108.534 276.517 109.314C277.157 111.183 275.032 113.213 275.714 115.071C276.049 115.99 276.994 116.524 277.442 117.411C278.031 118.596 277.564 120.028 277.615 121.374C277.805 123.226 278.664 124.93 280.014 126.138C280.807 126.939 281.691 127.633 282.545 128.349C283.562 129.203 283.999 130.111 284.893 128.733C286.142 126.832 286.841 124.591 286.906 122.282V122.282Z" fill="#231F20"/>
<path d="M288.045 123.339C287.617 121.951 287.617 120.455 288.045 119.067C288.675 117.539 290.231 116.46 290.414 114.794C290.536 113.726 290.017 112.657 290.22 111.589C290.565 110.586 291.158 109.697 291.938 109.015C293.513 107.196 294.449 104.867 294.592 102.414C295.645 103.73 296.496 105.211 297.113 106.804C297.416 107.604 297.541 108.467 297.478 109.327C297.414 110.186 297.164 111.018 296.747 111.76C296.487 112.083 296.271 112.442 296.107 112.828C295.802 113.897 296.655 114.858 297.123 115.851C297.385 116.422 297.494 117.056 297.439 117.687C297.383 118.317 297.165 118.92 296.808 119.43C295.913 120.605 294.175 121.064 293.758 122.506C293.646 123.039 293.594 123.584 293.606 124.13C293.512 125.077 293.15 125.974 292.566 126.703C291.983 127.432 291.205 127.961 290.332 128.221C289.316 128.499 289.316 128.05 289.102 127.153C288.797 125.818 288.33 124.6 288.045 123.339Z" fill="#231F20"/>
<path d="M284.66 113.074C283.907 110.329 283.643 107.466 282.809 104.731C282.137 102.597 281.311 100.518 280.339 98.5146L283.582 99.946C284.673 100.283 285.614 101.018 286.235 102.018C287.079 103.877 285.554 106.291 286.449 108.086C286.835 108.684 287.264 109.252 287.73 109.784C288.142 110.534 288.382 111.374 288.431 112.238C288.481 113.102 288.338 113.966 288.014 114.762C287.791 115.467 286.805 119.099 285.93 118.094C285.585 117.689 285.554 116.182 285.402 115.627C285.178 114.772 284.893 113.929 284.66 113.074Z" fill="#231F20"/>
<path d="M286.205 149.553C285.564 145.066 283.541 129.257 283.521 129.108L284.538 128.958C284.538 129.118 286.571 144.917 287.221 149.392L286.205 149.553Z" fill="#231F20"/>
<path d="M287.425 153.751H286.408C286.408 148.41 288.594 127.943 289.834 126.522L290.586 127.227C289.712 128.467 287.465 147.299 287.425 153.751Z" fill="#231F20"/>
<path d="M288.523 152.746H287.506C287.984 141.284 285.666 117.197 285.646 116.951L286.662 116.844C286.683 117.047 289.001 141.21 288.523 152.746Z" fill="#231F20"/>
<path d="M280.888 136.67H292.945L292.101 151.058C292.089 152.201 291.661 153.295 290.904 154.116C290.148 154.936 289.121 155.421 288.035 155.47H285.747C284.669 155.41 283.653 154.92 282.907 154.101C282.161 153.281 281.741 152.193 281.732 151.058L280.888 136.67Z" fill="#FAF7F7"/>
<path d="M288.075 156.026H285.747C284.536 155.961 283.393 155.416 282.549 154.499C281.706 153.583 281.225 152.365 281.203 151.091L280.359 136.702C280.354 136.628 280.364 136.553 280.389 136.483C280.413 136.413 280.452 136.349 280.502 136.296C280.55 136.239 280.609 136.193 280.676 136.161C280.743 136.13 280.815 136.114 280.888 136.115H292.945C293.016 136.116 293.086 136.132 293.151 136.164C293.216 136.195 293.274 136.24 293.321 136.296C293.371 136.349 293.409 136.413 293.434 136.483C293.458 136.553 293.468 136.628 293.463 136.702L292.619 151.091C292.598 152.365 292.117 153.583 291.273 154.499C290.43 155.416 289.287 155.961 288.075 156.026V156.026ZM281.447 137.226L282.25 151.016C282.256 152.011 282.619 152.967 283.268 153.692C283.917 154.418 284.802 154.858 285.747 154.926H288.075C289.02 154.858 289.906 154.418 290.554 153.692C291.203 152.967 291.567 152.011 291.572 151.016L292.386 137.226H281.447Z" fill="#231F20"/>
<path d="M52.1649 75.9544C52.1649 75.9544 83.5979 72.376 86.5054 78.486C88.9147 83.5492 87.9998 103.471 87.9998 103.471L77.8339 105.148C77.8339 105.148 76.309 88.057 74.8756 86.8286C73.4422 85.6002 42.9241 89.9049 42.9241 89.9049L29.9015 149.905L16.3503 147.769L24.3814 78.0801L52.1649 75.9544Z" fill="#231F20"/>
<path d="M29.9015 150.439H29.8303L16.2893 148.303C16.1578 148.282 16.0394 148.207 15.9596 148.095C15.8797 147.983 15.8448 147.843 15.8623 147.705L23.8832 78.0161C23.8974 77.894 23.952 77.781 24.0376 77.6971C24.1231 77.6131 24.234 77.5634 24.3509 77.5568L52.1242 75.4204C55.4179 75.0465 83.9842 72.0022 86.9628 78.2511C89.3925 83.3677 88.5385 102.67 88.508 103.492C88.5025 103.615 88.4571 103.732 88.3793 103.823C88.3016 103.914 88.1963 103.975 88.0811 103.994L77.9151 105.682C77.778 105.701 77.6394 105.663 77.5288 105.575C77.4735 105.531 77.4278 105.474 77.3945 105.41C77.3612 105.346 77.3412 105.274 77.3357 105.201C76.6037 96.9764 75.3737 88.0036 74.5705 87.2452C73.1778 86.5723 54.8283 88.7941 43.351 90.3857L30.3996 150.023C30.3725 150.14 30.3088 150.245 30.2186 150.321C30.1283 150.396 30.0168 150.438 29.9015 150.439V150.439ZM16.9196 147.288L29.566 149.307L42.4462 89.7875C42.4686 89.6817 42.5218 89.5859 42.5982 89.5131C42.6747 89.4404 42.7708 89.3945 42.8732 89.3816C50.0707 88.3775 73.6963 85.1943 75.1907 86.412C76.6851 87.6298 77.8745 99.9139 78.2404 104.571L87.5118 103.012C87.6236 100.085 88.1827 83.1968 86.0581 78.7211C83.8012 73.989 60.8669 75.5165 52.2258 76.4886L24.8388 78.5502L16.9196 147.288Z" fill="#231F20"/>
<path d="M77.7932 105.148V113.287H99.6398C96.2974 109.368 92.3651 106.051 87.9998 103.471L77.7932 105.148Z" fill="#FAF7F7"/>
<path d="M99.6398 113.822H77.7932C77.6584 113.822 77.5291 113.765 77.4338 113.665C77.3385 113.565 77.2849 113.429 77.2849 113.288V105.148C77.2837 105.021 77.3263 104.898 77.4048 104.802C77.4834 104.706 77.5925 104.643 77.7119 104.625L87.8778 102.937C87.9856 102.922 88.0953 102.94 88.193 102.99C92.618 105.596 96.5997 108.957 99.9753 112.935C100.039 113.012 100.081 113.106 100.096 113.207C100.111 113.308 100.097 113.412 100.058 113.505C100.018 113.598 99.9539 113.678 99.8726 113.734C99.7913 113.79 99.6964 113.821 99.5992 113.822H99.6398ZM78.2914 112.754H98.4707C95.3926 109.297 91.8308 106.354 87.9083 104.026L78.2914 105.607V112.754Z" fill="#231F20"/>
<path d="M16.3503 147.769L15.6387 155.652C15.6387 155.652 41.3788 159.145 41.1755 156.849C40.9722 154.552 29.9015 149.905 29.9015 149.905L16.3503 147.769Z" fill="#FAF7F7"/>
<path d="M37.0683 158.108C30.4503 158.108 18.5663 156.549 15.5877 156.154C15.4566 156.133 15.3379 156.06 15.255 155.952C15.1721 155.843 15.1312 155.705 15.1404 155.566L15.852 147.694C15.8569 147.62 15.8767 147.549 15.91 147.485C15.9433 147.42 15.9894 147.364 16.0452 147.32C16.0988 147.274 16.1609 147.241 16.2275 147.223C16.294 147.205 16.3636 147.201 16.4315 147.213L29.9827 149.349H30.0945C32.758 150.471 41.4702 154.284 41.6938 156.72C41.7017 156.846 41.6831 156.973 41.6392 157.091C41.5952 157.21 41.5271 157.316 41.4397 157.403C40.972 157.927 39.3252 158.108 37.0683 158.108ZM16.2079 155.16C27.2989 156.645 39.1727 157.617 40.6061 156.741C40.1588 155.459 34.7302 152.468 29.7285 150.418L16.7771 148.356L16.2079 155.16Z" fill="#231F20"/>
<path d="M9.13247 55.4985C9.13247 55.4985 -0.138855 68.8402 0.491433 70.8591C1.50803 74.2238 21.7382 93.8571 21.7382 93.8571C21.7382 93.8571 27.0855 95.8973 27.5735 93.12C28.0614 90.3428 22.826 85.1834 22.826 85.1834L23.1411 81.4234C23.1411 81.4234 19.8677 83.0577 19.2476 82.8975C18.6274 82.7373 10.5862 70.1861 10.5862 70.1861L18.0073 59.8247" fill="#FAF7F7"/>
<path d="M25.2455 95.1284C23.9896 95.0706 22.749 94.8149 21.5654 94.3699C21.5021 94.341 21.4437 94.3013 21.3926 94.2524C19.3594 92.2336 1.06073 74.4376 0.0441368 71.0301C-0.626814 68.8937 6.54017 58.3614 8.74617 55.1889C8.78456 55.1307 8.83377 55.0814 8.89081 55.0438C8.94786 55.0062 9.01156 54.9812 9.07807 54.9702C9.14458 54.9592 9.21252 54.9625 9.27779 54.9799C9.34305 54.9973 9.40429 55.0284 9.45779 55.0713C9.51197 55.1126 9.55786 55.1648 9.59282 55.2247C9.62778 55.2847 9.65113 55.3513 9.66152 55.4208C9.67191 55.4903 9.66914 55.5612 9.65337 55.6296C9.6376 55.6979 9.60913 55.7623 9.56961 55.8191C5.20843 62.1 0.684591 69.5773 1.0099 70.6989C1.81301 73.3373 16.3503 87.9501 22.0127 93.3979C23.0293 93.7611 25.4793 94.4661 26.5772 93.7824C26.7058 93.703 26.8161 93.5949 26.9004 93.4657C26.9848 93.3364 27.041 93.1893 27.0652 93.0347C27.421 90.9945 23.8832 86.9674 22.4803 85.5574C22.4239 85.5044 22.3806 85.4379 22.354 85.3635C22.3275 85.2891 22.3185 85.209 22.3279 85.1301L22.5617 82.2887C21.1689 82.9403 19.6745 83.5492 19.1256 83.3569C18.9019 83.3569 18.3123 83.1433 10.1592 70.4319C10.0979 70.3414 10.065 70.2331 10.065 70.1221C10.065 70.0111 10.0979 69.9028 10.1592 69.8123L17.5804 59.4509C17.6204 59.3948 17.6706 59.3475 17.728 59.3118C17.7855 59.2761 17.849 59.2526 17.9151 59.2427C17.9812 59.2327 18.0485 59.2366 18.1132 59.254C18.1778 59.2714 18.2386 59.302 18.292 59.3441C18.3454 59.3862 18.3904 59.4389 18.4244 59.4992C18.4584 59.5596 18.4807 59.6264 18.4902 59.6958C18.4996 59.7653 18.496 59.836 18.4794 59.9039C18.4628 59.9719 18.4337 60.0357 18.3936 60.0918L11.186 70.1541C14.0528 74.6192 18.5766 81.4769 19.4102 82.3208C20.617 81.9629 21.7881 81.4836 22.9073 80.8894C22.9839 80.8404 23.0718 80.8144 23.1615 80.8144C23.2511 80.8144 23.3391 80.8404 23.4156 80.8894C23.4865 80.9445 23.5432 81.0173 23.5805 81.1013C23.6178 81.1852 23.6345 81.2776 23.6291 81.3701L23.3343 84.8738C24.3509 85.9419 28.5291 90.3536 28.0513 93.1202C27.997 93.4313 27.8777 93.7259 27.7019 93.9826C27.526 94.2394 27.2982 94.452 27.0347 94.6049C26.4886 94.9321 25.8739 95.112 25.2455 95.1284V95.1284Z" fill="#231F20"/>
<path d="M66.3158 37.7458L74.2046 42.0185L76.0751 21.253C76.0751 21.253 73.9403 19.1166 73.8996 17.5571C73.7776 13.8398 76.0751 14.2884 76.0751 14.2884C76.0751 14.2884 76.0751 7.20633 76.9087 6.96065C78.6166 6.46928 78.6878 10.4536 78.6166 14.5448C78.6166 14.5448 82.683 13.7223 82.5 15.677C82.317 17.6318 80.2838 20.6548 80.2838 20.6548C80.2838 20.6548 83.3946 53.8647 79.4197 53.0529C75.4448 52.2411 62.3003 46.3447 62.3003 46.3447" fill="#FAF7F7"/>
<path d="M79.562 53.5971H79.3282C75.3533 52.7746 62.6358 47.0919 62.0461 46.8569C61.9846 46.829 61.9289 46.7886 61.8822 46.738C61.8356 46.6875 61.799 46.6277 61.7744 46.5622C61.7498 46.4966 61.7378 46.4267 61.7391 46.3562C61.7404 46.2858 61.7549 46.2164 61.7818 46.1519C61.8354 46.0239 61.9347 45.9232 62.0582 45.8712C62.1818 45.8193 62.3198 45.8204 62.4426 45.8742C62.5748 45.8742 75.5973 51.7492 79.4705 52.5503C79.5077 52.5579 79.5461 52.555 79.5818 52.5418C79.6176 52.5287 79.6493 52.5058 79.6739 52.4755C81.707 50.5421 80.7718 31.977 79.6739 20.729C79.6633 20.6005 79.6956 20.4721 79.7653 20.3659C79.7653 20.3659 81.7985 17.439 81.89 15.6445C81.9036 15.5748 81.8994 15.5026 81.878 15.4351C81.8566 15.3676 81.8187 15.3072 81.768 15.2599C81.2699 14.7899 79.623 14.8754 78.6064 15.0783C78.5314 15.0937 78.4541 15.0912 78.3802 15.0708C78.3063 15.0505 78.2377 15.0129 78.1795 14.9608C78.1227 14.9095 78.0777 14.8454 78.0478 14.7733C78.0179 14.7012 78.0038 14.6229 78.0066 14.5443C78.0066 12.6536 78.1185 8.23127 77.2544 7.52627C77.2219 7.49884 77.1843 7.47894 77.144 7.46789C77.1037 7.45685 77.0616 7.4549 77.0205 7.46218C76.6647 8.09241 76.4614 11.4465 76.4818 14.2986C76.4833 14.3773 76.468 14.4554 76.4369 14.527C76.4057 14.5986 76.3596 14.662 76.302 14.7123C76.2443 14.7626 76.1766 14.7986 76.1039 14.8176C76.0312 14.8366 75.9553 14.8381 75.882 14.822C75.7125 14.802 75.541 14.8191 75.3783 14.8725C75.2155 14.9258 75.0651 15.0141 74.9365 15.1318C74.6727 15.4651 74.4799 15.854 74.3711 16.2723C74.2624 16.6906 74.2403 17.1285 74.3062 17.5565C74.3062 18.6247 75.7803 20.3231 76.3394 20.8786C76.393 20.936 76.4343 21.0048 76.4606 21.0803C76.4869 21.1558 76.4976 21.2364 76.4919 21.3166L74.7129 42.018C74.7037 42.1046 74.675 42.1876 74.629 42.2601C74.583 42.3326 74.5211 42.3924 74.4486 42.4346C74.3753 42.4767 74.2932 42.4987 74.2097 42.4987C74.1262 42.4987 74.044 42.4767 73.9708 42.4346L66.0922 38.1618C66.0319 38.1312 65.9782 38.0882 65.9341 38.0353C65.8901 37.9824 65.8566 37.9207 65.8357 37.8539C65.8148 37.7871 65.807 37.7166 65.8126 37.6465C65.8183 37.5765 65.8373 37.5083 65.8685 37.4462C65.8976 37.3829 65.9386 37.3264 65.989 37.2801C66.0393 37.2338 66.098 37.1986 66.1616 37.1767C66.2252 37.1548 66.2923 37.1465 66.359 37.1524C66.4256 37.1583 66.4905 37.1783 66.5496 37.2112L73.7675 41.0994L75.5465 21.37C74.9874 20.7718 73.432 18.9665 73.3913 17.4924C73.3131 16.9006 73.364 16.2979 73.5401 15.7298C73.7163 15.1616 74.013 14.643 74.4079 14.2131C74.742 13.9145 75.1519 13.7251 75.5871 13.6683C75.5871 6.70376 76.4614 6.4474 76.7969 6.35126C77.0018 6.28623 77.2185 6.27363 77.4289 6.31451C77.6394 6.35539 77.8374 6.44857 78.0066 6.58627C79.0232 7.40877 79.2062 9.8656 79.1554 13.8286C80.0805 13.7111 81.768 13.6149 82.561 14.3733C82.7312 14.5295 82.8627 14.7268 82.9442 14.9482C83.0257 15.1697 83.0546 15.4086 83.0286 15.6445C82.8761 17.4711 81.2699 20.0454 80.8226 20.729C81.1784 24.5638 83.4353 50.2858 80.4261 53.1699C80.2032 53.4268 79.8925 53.5804 79.562 53.5971Z" fill="#231F20"/>
<path d="M23.4665 35.6093C14.9576 41.4309 6.33691 57.1012 6.33691 57.1012L18.536 64.1085L25.947 53.7684L23.4665 79.4049L58.6304 75.3565L54.2896 44.7209L64.0489 48.5877L67.8814 36.8377C67.8814 36.8377 59.0676 31.7104 50.9653 31.7104C42.8631 31.7104 31.9652 29.7983 23.4665 35.6093Z" fill="#4B8AB9"/>
<path d="M48.81 9.51308C49.3822 7.89967 49.3568 6.11931 48.7388 4.52465C48.0508 3.00205 46.8312 1.81624 45.3333 1.21327C43.8464 0.622028 42.2464 0.413259 40.6671 0.604407C38.0823 0.824762 35.6435 1.95365 33.7441 3.80897C32.8193 4.72834 32.1075 5.85829 31.6634 7.11196C31.2193 8.36563 31.0547 9.70962 31.1823 11.0406C30.6233 10.938 30.0485 10.9893 29.514 11.1896C28.9795 11.3899 28.5035 11.7324 28.1325 12.1835C25.896 14.5549 26.0993 18.5927 27.553 21.5195C28.0104 22.5064 28.6659 23.3774 29.4744 24.0725C30.2471 24.6665 31.1197 25.1014 32.0464 25.3543C36.2043 26.5934 41.1957 25.2475 43.5136 21.3913C44.7436 19.3084 44.4082 16.6486 45.5467 14.6724C46.6853 12.6963 48.1187 11.6601 48.81 9.51308Z" fill="#FAF7F7"/>
<path d="M35.1675 26.3477C34.0684 26.3493 32.9741 26.1948 31.9144 25.8884C30.9249 25.6205 29.9933 25.1564 29.1696 24.5211C28.3147 23.7717 27.6216 22.8395 27.1364 21.7866C25.6827 18.8811 25.2659 14.5229 27.8074 11.8204C28.5354 11.0134 29.5266 10.5251 30.5827 10.4531V10.4531C30.5502 9.13621 30.7804 7.82676 31.2584 6.60892C31.7363 5.39107 32.4515 4.29179 33.358 3.38172C35.3393 1.4472 37.8886 0.279304 40.5859 0.0703443C42.2487 -0.128269 43.9325 0.0951748 45.4961 0.72193C47.1129 1.37685 48.4297 2.6573 49.1762 4.30036C49.8392 6.00644 49.8718 7.91124 49.2676 9.64129C48.7953 10.8957 48.1059 12.0474 47.2345 13.0381C46.744 13.6306 46.2987 14.2628 45.9027 14.9288C45.4472 15.8796 45.1514 16.9059 45.0285 17.9625C44.9022 19.2782 44.5328 20.5555 43.9407 21.7225C42.9688 23.2089 41.6546 24.4126 40.1206 25.2214C38.5865 26.0301 36.8825 26.4176 35.1675 26.3477ZM30.5827 11.5213C29.7807 11.5845 29.0319 11.9665 28.4885 12.5895C26.313 14.9074 26.7095 18.7316 28.0005 21.2952C28.426 22.2189 29.0363 23.035 29.7897 23.6879C30.5114 24.2358 31.3255 24.6346 32.1889 24.8629C36.3976 26.1234 41.0841 24.5211 43.0766 21.135C43.6127 20.1091 43.9577 18.9852 44.0932 17.8236C44.2417 16.6413 44.5857 15.4953 45.1098 14.4374C45.5312 13.7243 46.0035 13.0458 46.5228 12.4079C47.3118 11.5147 47.9357 10.4751 48.3629 9.3422C48.9029 7.86372 48.9029 6.22748 48.3629 4.749C47.7207 3.35752 46.5971 2.27621 45.2216 1.72603C43.7982 1.15118 42.2629 0.949537 40.7486 1.13853C38.2866 1.32618 35.9575 2.38415 34.1407 4.14013C33.2476 5.00959 32.5601 6.08622 32.133 7.28424C31.7058 8.48227 31.5509 9.76856 31.6806 11.0406C31.6939 11.127 31.686 11.2156 31.6575 11.2979C31.629 11.3801 31.581 11.4534 31.5179 11.5106C31.4558 11.5701 31.3803 11.612 31.2985 11.6326C31.2167 11.6531 31.1314 11.6516 31.0503 11.6281C30.8995 11.5712 30.7423 11.5352 30.5827 11.5213V11.5213Z" fill="#231F20"/>
<path d="M43.5136 28.9009L44.6827 34.9468C44.6827 34.9468 44.4794 37.8736 40.4435 37.7561C36.4076 37.6386 35.269 34.9895 35.269 34.9895L33.4697 23.6241C33.4697 23.6241 35.5029 21.3702 33.3782 15.0786C37.3889 15.368 41.4159 14.8681 45.252 13.6045C46.0139 17.0901 46.5943 20.6168 46.9904 24.1688C47.1632 27.3948 43.5136 28.9009 43.5136 28.9009Z" fill="#FAF7F7"/>
<path d="M40.6672 38.3007H40.4232C36.123 38.1832 34.8624 35.3419 34.8116 35.2244C34.8072 35.1817 34.8072 35.1388 34.8116 35.0962L33.0021 23.72C32.9922 23.6388 32.9998 23.5563 33.0245 23.4786C33.0491 23.4009 33.0901 23.3301 33.1444 23.2714C33.1444 23.2714 34.9336 21.135 32.9411 15.2493C32.9114 15.1661 32.9024 15.0764 32.9149 14.9886C32.9273 14.9008 32.9608 14.8177 33.0122 14.7472C33.0648 14.6762 33.1329 14.6197 33.2108 14.5825C33.2887 14.5453 33.3741 14.5285 33.4595 14.5336C37.3964 14.817 41.3492 14.3354 45.1198 13.1129C45.1858 13.0838 45.2567 13.0688 45.3282 13.0688C45.3998 13.0688 45.4707 13.0838 45.5366 13.1129C45.5971 13.1497 45.6499 13.1989 45.6919 13.2576C45.7338 13.3164 45.764 13.3834 45.7806 13.4547C46.5606 16.9771 47.1478 20.5436 47.5393 24.1366C47.6918 27.0741 45.1402 28.6871 44.1338 29.2105L45.2215 34.8398C45.2317 34.8891 45.2317 34.9401 45.2215 34.9894C45.2215 34.9894 44.9064 38.3007 40.6672 38.3007ZM35.757 34.8291C35.94 35.1816 37.0786 37.1257 40.4537 37.2219C43.8288 37.318 44.1134 35.3632 44.1744 34.968L43.0155 29.0075C42.9919 28.8846 43.0094 28.757 43.0649 28.6461C43.1205 28.5352 43.2107 28.4478 43.3205 28.3986C43.3205 28.3986 46.6346 26.9993 46.4821 24.2007C46.1229 20.8746 45.5867 17.5723 44.8759 14.3093C41.3795 15.3806 37.7376 15.8318 34.1 15.6445C35.6249 20.6436 34.4761 23.0577 34.0085 23.7627L35.757 34.8291Z" fill="#231F20"/>
<path d="M34.2831 22.8974C33.98 22.3226 33.5161 21.8595 32.9542 21.571C32.3923 21.2825 31.7596 21.1824 31.1418 21.2845C30.843 21.3296 30.5592 21.4504 30.3148 21.6365C30.0704 21.8226 29.8727 22.0684 29.7389 22.3526C29.6101 22.8375 29.5965 23.3482 29.6993 23.8398C29.8021 24.3315 30.0182 24.7892 30.3285 25.1727C30.7987 25.8824 31.5173 26.3674 32.3271 26.5216C33.1369 26.6757 33.9718 26.4864 34.649 25.9952" fill="#FAF7F7"/>
<path d="M32.8598 27.0633C32.6636 27.0795 32.4664 27.0795 32.2702 27.0633C31.3191 26.8906 30.4714 26.33 29.9117 25.5037C29.5533 25.0416 29.3077 24.4945 29.1961 23.91C29.0845 23.3256 29.1103 22.7213 29.2713 22.1496C29.4426 21.7861 29.6946 21.4712 30.006 21.2314C30.3173 20.9916 30.679 20.8339 31.0605 20.7717C31.7856 20.6509 32.5286 20.7688 33.1874 21.1092C33.8463 21.4496 34.3888 21.9959 34.7405 22.673C34.7699 22.7362 34.7871 22.8048 34.7913 22.8749C34.7954 22.945 34.7864 23.0153 34.7647 23.0818C34.743 23.1482 34.709 23.2095 34.6648 23.2622C34.6205 23.3149 34.5668 23.3579 34.5067 23.3887C34.4466 23.4196 34.3814 23.4377 34.3146 23.4421C34.2479 23.4464 34.181 23.4369 34.1177 23.4141C34.0545 23.3913 33.9961 23.3556 33.946 23.3091C33.8959 23.2626 33.855 23.2062 33.8256 23.143C33.5731 22.6714 33.1896 22.2919 32.7264 22.0552C32.2632 21.8185 31.7423 21.7359 31.2333 21.8185C31.0179 21.8527 30.8134 21.9403 30.6366 22.0741C30.4598 22.2078 30.3159 22.3838 30.2167 22.5876C30.1289 22.9872 30.1309 23.4029 30.2227 23.8015C30.3144 24.2002 30.4934 24.5709 30.7453 24.8842C31.159 25.457 31.7672 25.8397 32.443 25.9524C33.1316 26.0659 33.8353 25.8936 34.405 25.4717C34.5134 25.3912 34.6475 25.3584 34.7785 25.3803C34.9096 25.4023 35.0273 25.4773 35.1065 25.5892C35.1474 25.6454 35.177 25.7098 35.1935 25.7783C35.21 25.8469 35.2132 25.9183 35.2027 25.9882C35.1923 26.0581 35.1685 26.125 35.1327 26.1849C35.0969 26.2449 35.05 26.2966 34.9947 26.3369C34.3733 26.8086 33.6264 27.0628 32.8598 27.0633V27.0633Z" fill="#231F20"/>
<path d="M40.8401 23.4423C40.7733 23.4409 40.7075 23.4257 40.6463 23.3976C40.5851 23.3695 40.5299 23.329 40.4836 23.2784C40.4373 23.2278 40.401 23.1681 40.3767 23.1028C40.3524 23.0374 40.3406 22.9677 40.3419 22.8976C40.3419 22.8279 40.3551 22.759 40.3808 22.6948C40.4065 22.6306 40.4441 22.5724 40.4914 22.5236C40.5387 22.4749 40.5949 22.4365 40.6565 22.4109C40.7181 22.3852 40.784 22.3727 40.8502 22.3741V22.3741C41.2871 22.3901 41.7198 22.2792 42.1006 22.0537C41.4897 21.0421 40.7316 20.1374 39.854 19.3725C39.8063 19.3229 39.7685 19.2638 39.7427 19.1987C39.7169 19.1337 39.7036 19.0638 39.7036 18.9933C39.7036 18.9228 39.7169 18.853 39.7427 18.7879C39.7685 18.7228 39.8063 18.6638 39.854 18.6141C39.9004 18.5644 39.9557 18.5249 40.0168 18.4979C40.0779 18.4709 40.1435 18.457 40.2098 18.457C40.276 18.457 40.3416 18.4709 40.4027 18.4979C40.4638 18.5249 40.5192 18.5644 40.5656 18.6141C43.6154 21.4982 43.1986 22.278 43.0664 22.5344C42.5784 23.3889 41.1755 23.4423 40.8401 23.4423Z" fill="#231F20"/>
<path d="M43.5136 28.9004C43.5136 28.9004 40.4638 29.4665 38.9592 28.9004C39.5079 29.8848 40.2609 30.7264 41.1621 31.3626C42.0633 31.9988 43.0895 32.4132 44.1642 32.575L43.5136 28.9004Z" fill="#231F20"/>
<path d="M44.1643 33.0774C43.006 32.914 41.8988 32.4737 40.9277 31.7904C39.9567 31.1071 39.1477 30.199 38.5628 29.1358C38.5124 29.04 38.4912 28.9302 38.5021 28.8213C38.513 28.7124 38.5555 28.6096 38.6238 28.527C38.6907 28.4441 38.7805 28.3853 38.8807 28.3585C38.9809 28.3317 39.0865 28.3383 39.183 28.3774C40.5952 28.6778 42.0505 28.6778 43.4628 28.3774C43.5949 28.3524 43.731 28.3833 43.8414 28.4634C43.9519 28.5434 44.0277 28.6661 44.0524 28.8047L44.7031 32.4472C44.7172 32.5285 44.7136 32.6121 44.6924 32.6916C44.6713 32.7712 44.6332 32.8447 44.5811 32.9065C44.5291 32.9672 44.4643 33.0142 44.392 33.0439C44.3196 33.0736 44.2416 33.0851 44.1643 33.0774V33.0774ZM40.0979 29.6485C40.9747 30.7702 42.1727 31.5644 43.5136 31.9131L43.0867 29.499C42.1047 29.6553 41.11 29.7055 40.1182 29.6485H40.0979Z" fill="#231F20"/>
<path d="M37.4576 18.3928C37.7097 18.3759 37.8927 18.009 37.8662 17.5734C37.8398 17.1377 37.6139 16.7982 37.3618 16.8151C37.1097 16.832 36.9267 17.1989 36.9532 17.6346C36.9796 18.0702 37.2054 18.4097 37.4576 18.3928Z" fill="#231F20"/>
<path d="M42.4752 17.9934C42.7273 17.9765 42.9103 17.6096 42.8838 17.1739C42.8574 16.7383 42.6315 16.3988 42.3794 16.4157C42.1273 16.4326 41.9443 16.7995 41.9707 17.2351C41.9972 17.6708 42.223 18.0103 42.4752 17.9934Z" fill="#231F20"/>
<path d="M37.4038 24.3398C37.4038 24.3398 39.8741 27.3628 43.5034 24.3398Z" fill="#FAF7F7"/>
<path d="M40.3113 26.2195C39.0641 26.1891 37.8794 25.6397 37.0176 24.692C36.9238 24.5903 36.8713 24.4543 36.8713 24.3128C36.8713 24.1712 36.9238 24.0352 37.0176 23.9336C37.0672 23.8871 37.1253 23.8516 37.1882 23.8291C37.2512 23.8066 37.3178 23.7976 37.3841 23.8026C37.4504 23.8076 37.5151 23.8264 37.5744 23.8581C37.6336 23.8898 37.6863 23.9336 37.7292 23.987C37.8207 24.0938 39.9555 26.572 43.0866 23.9229C43.1387 23.8787 43.1985 23.8457 43.2627 23.8258C43.3269 23.8059 43.3942 23.7995 43.4607 23.807C43.5273 23.8144 43.5918 23.8356 43.6506 23.8692C43.7094 23.9028 43.7613 23.9483 43.8033 24.003C43.8454 24.0577 43.8767 24.1206 43.8957 24.188C43.9146 24.2555 43.9207 24.3262 43.9136 24.3961C43.9065 24.4661 43.8864 24.5338 43.8544 24.5956C43.8224 24.6573 43.7791 24.7119 43.7271 24.7561C42.7814 25.6402 41.5757 26.1568 40.3113 26.2195V26.2195Z" fill="#231F20"/>
<path d="M25.947 54.2703C25.8807 54.2676 25.8155 54.2509 25.7554 54.2214C25.6953 54.1919 25.6414 54.15 25.5968 54.0982C25.5523 54.0465 25.5181 53.9859 25.4962 53.9201C25.4743 53.8542 25.4651 53.7844 25.4692 53.7148L25.9673 43.5671C25.9724 43.4973 25.9908 43.4292 26.0213 43.367C26.0518 43.3048 26.094 43.2496 26.1451 43.2048C26.1963 43.16 26.2555 43.1264 26.3193 43.1061C26.3831 43.0857 26.45 43.079 26.5163 43.0864C26.584 43.0891 26.6504 43.106 26.7118 43.1361C26.7732 43.1662 26.8282 43.2088 26.8737 43.2616C26.9191 43.3143 26.9541 43.3761 26.9765 43.4432C26.999 43.5103 27.0084 43.5815 27.0043 43.6525L26.4553 53.7682C26.4452 53.9034 26.3875 54.0297 26.2935 54.1225C26.1996 54.2153 26.076 54.268 25.947 54.2703Z" fill="#231F20"/>
<path d="M76.0752 14.2451C76.0752 14.2451 79.125 13.9139 79.125 14.8967C79.125 16.9476 76.9495 16.4455 76.9495 16.4455C76.9495 16.4455 78.4134 17.674 77.6103 18.6994" fill="#FAF7F7"/>
<path d="M77.5898 19.2656C77.4716 19.2673 77.3566 19.2258 77.2644 19.1481C77.1612 19.0584 77.0959 18.9296 77.0826 18.7896C77.0692 18.6496 77.109 18.5097 77.1933 18.4004C77.2413 18.3466 77.2772 18.2823 77.2983 18.212C77.3194 18.1417 77.3252 18.0674 77.3153 17.9944C77.1925 17.5706 76.9474 17.1973 76.6138 16.9263C76.5239 16.8527 76.4607 16.7489 76.4348 16.6322C76.4089 16.5156 76.4219 16.3932 76.4715 16.2854C76.5226 16.1773 76.6058 16.0897 76.7085 16.0357C76.8112 15.9817 76.9279 15.9644 77.0408 15.9863C77.4755 16.0944 77.9332 16.0257 78.3217 15.794C78.4233 15.6874 78.5008 15.5581 78.5483 15.4157C78.5958 15.2733 78.6122 15.1214 78.5962 14.9715C77.7887 14.7591 76.9493 14.7156 76.1259 14.8433C75.9915 14.8553 75.8579 14.8119 75.7535 14.7221C75.6491 14.6324 75.5821 14.5034 75.5667 14.3626C75.5597 14.2924 75.566 14.2214 75.5853 14.1538C75.6045 14.0862 75.6363 14.0232 75.6789 13.9686C75.7214 13.914 75.7738 13.8688 75.8331 13.8355C75.8924 13.8023 75.9573 13.7818 76.0242 13.7751C76.6037 13.711 78.5555 13.5615 79.2875 14.2344C79.4816 14.4229 79.5983 14.6834 79.6128 14.9608C79.6361 15.2711 79.5893 15.5828 79.4762 15.8706C79.3632 16.1583 79.187 16.4139 78.9621 16.6165C78.694 16.8423 78.3757 16.9929 78.0371 17.0544C78.1939 17.317 78.2945 17.6122 78.3319 17.9197C78.3515 18.1315 78.3311 18.3453 78.2718 18.5488C78.2125 18.7523 78.1154 18.9415 77.9862 19.1054C77.935 19.1605 77.8731 19.2034 77.8047 19.2311C77.7362 19.2587 77.6629 19.2705 77.5898 19.2656Z" fill="#231F20"/>
<path d="M75.3126 126.405L68.5522 129.834V124.621L75.6684 121.021H81.097V144.522H75.3126V126.405Z" fill="#231F20"/>
</svg>
