<svg width="300" height="197" viewBox="0 0 300 197" fill="none" xmlns="http://www.w3.org/2000/svg">
<path d="M299.476 185.313H0.524476C0.385376 185.313 0.251973 185.256 0.153615 185.155C0.0552567 185.054 0 184.917 0 184.774C0 184.631 0.0552567 184.494 0.153615 184.392C0.251973 184.291 0.385376 184.234 0.524476 184.234H299.476C299.615 184.234 299.748 184.291 299.846 184.392C299.945 184.494 300 184.631 300 184.774C300 184.917 299.945 185.054 299.846 185.155C299.748 185.256 299.615 185.313 299.476 185.313Z" fill="#D1D3D4"/>
<path d="M99.5876 153.551H39.5457V194.334H99.5876V153.551Z" fill="#FAF7F7"/>
<path d="M99.6296 194.872H39.5457C39.4066 194.872 39.2732 194.816 39.1749 194.714C39.0765 194.613 39.0212 194.476 39.0212 194.333V153.55C39.0212 153.407 39.0765 153.269 39.1749 153.168C39.2732 153.067 39.4066 153.01 39.5457 153.01H99.6296C99.7679 153.013 99.8997 153.071 99.9975 153.171C100.095 153.272 100.151 153.408 100.154 153.55V194.333C100.154 194.476 100.099 194.613 100 194.714C99.9021 194.816 99.7687 194.872 99.6296 194.872ZM40.1122 193.794H99.1052V154.089H40.0702L40.1122 193.794Z" fill="#D1D3D4"/>
<path d="M180 118.636H119.958V194.333H180V118.636Z" fill="#FAF7F7"/>
<path d="M180 194.873H119.958C119.819 194.873 119.685 194.816 119.587 194.715C119.489 194.614 119.433 194.477 119.433 194.334V118.669C119.433 118.526 119.489 118.389 119.587 118.287C119.685 118.186 119.819 118.129 119.958 118.129H180C180.139 118.129 180.272 118.186 180.371 118.287C180.469 118.389 180.524 118.526 180.524 118.669V194.366C180.516 194.503 180.457 194.632 180.36 194.727C180.262 194.821 180.134 194.873 180 194.873ZM120.482 193.794H179.475V119.176H120.482V193.794Z" fill="#D1D3D4"/>
<path d="M260.413 91.7388H200.371V194.344H260.413V91.7388Z" fill="#FAF7F7"/>
<path d="M260.413 194.873H200.329C200.19 194.873 200.056 194.816 199.958 194.715C199.86 194.614 199.804 194.477 199.804 194.333V91.6957C199.804 91.5526 199.86 91.4154 199.958 91.3143C200.056 91.2131 200.19 91.1562 200.329 91.1562H260.371C260.51 91.1562 260.643 91.2131 260.742 91.3143C260.84 91.4154 260.895 91.5526 260.895 91.6957V194.29C260.901 194.361 260.893 194.433 260.872 194.5C260.851 194.568 260.817 194.631 260.772 194.685C260.727 194.739 260.672 194.783 260.611 194.816C260.549 194.848 260.482 194.867 260.413 194.873ZM200.895 193.794H259.888V92.2783H200.895V193.794Z" fill="#231F20"/>
<path d="M286.489 162.268C286.555 161.251 286.344 160.235 285.881 159.333C285.424 158.738 284.997 158.118 284.601 157.478C284.066 156.291 284.444 154.888 284.318 153.583C284.202 152.486 283.733 151.46 282.986 150.67C282.314 149.979 281.454 149.504 280.825 148.781C279.776 147.605 279.482 145.933 278.895 144.466C278.045 142.375 276.577 140.612 274.699 139.427C275.832 141.769 273.251 144.757 274.416 147.088C274.793 147.832 275.465 148.372 275.769 149.148C276.43 151.047 274.237 153.086 274.94 154.964C275.286 155.902 276.262 156.442 276.723 157.327C277.332 158.524 276.849 159.981 276.902 161.329C277.098 163.203 277.984 164.929 279.377 166.152C280.195 166.951 281.108 167.652 281.989 168.375C283.038 169.249 283.489 170.155 284.412 168.763C285.7 166.85 286.422 164.594 286.489 162.268Z" fill="#231F20"/>
<path d="M287.664 163.337C287.213 161.917 287.213 160.387 287.664 158.967C288.315 157.424 289.919 156.334 290.108 154.651C290.234 153.572 289.699 152.493 289.909 151.414C290.264 150.398 290.876 149.497 291.682 148.803C293.308 146.968 294.274 144.615 294.419 142.136C295.506 143.465 296.384 144.961 297.021 146.57C297.334 147.379 297.463 148.25 297.397 149.118C297.332 149.986 297.074 150.827 296.643 151.576C296.377 151.904 296.154 152.267 295.982 152.655C295.668 153.734 296.549 154.705 297.031 155.719C297.302 156.295 297.414 156.936 297.357 157.573C297.3 158.21 297.075 158.819 296.706 159.334C295.783 160.521 293.989 160.984 293.559 162.43C293.444 162.969 293.391 163.519 293.402 164.07C293.306 165.029 292.933 165.936 292.331 166.674C291.729 167.413 290.925 167.949 290.024 168.213C288.975 168.483 288.975 168.041 288.755 167.134C288.44 165.84 287.958 164.61 287.664 163.337Z" fill="#231F20"/>
<path d="M284.171 152.957C283.395 150.184 283.122 147.293 282.262 144.542C281.57 142.381 280.718 140.278 279.713 138.251L283.059 139.708C284.182 140.048 285.152 140.786 285.797 141.79C286.668 143.668 285.094 146.106 286.017 147.929C286.436 148.53 286.895 149.1 287.391 149.634C287.816 150.391 288.064 151.24 288.115 152.112C288.166 152.985 288.019 153.858 287.685 154.662C287.454 155.374 286.437 159.053 285.535 158.028C285.178 157.618 285.147 156.097 284.989 155.536C284.706 154.673 284.412 153.82 284.171 152.957Z" fill="#231F20"/>
<path d="M285.766 189.813C285.105 185.281 283.017 169.313 282.996 169.151L284.045 169.011C284.045 169.173 286.143 185.13 286.814 189.651L285.766 189.813Z" fill="#231F20"/>
<path d="M287.024 194.053H285.975C285.975 188.659 288.231 167.987 289.51 166.552L290.287 167.275C289.384 168.505 287.066 187.537 287.024 194.053Z" fill="#231F20"/>
<path d="M288.157 193.038L287.108 192.984C287.601 181.407 285.21 157.078 285.189 156.83L286.238 156.722C286.259 156.97 288.65 181.375 288.157 193.038Z" fill="#231F20"/>
<path d="M280.28 176.79H292.72L291.849 191.323C291.837 192.478 291.396 193.584 290.615 194.415C289.835 195.246 288.775 195.738 287.654 195.79H285.294C284.18 195.727 283.132 195.23 282.362 194.4C281.593 193.57 281.159 192.47 281.15 191.323L280.28 176.79Z" fill="#FAF7F7"/>
<path d="M287.696 196.351H285.293C284.043 196.285 282.864 195.734 281.994 194.809C281.123 193.884 280.627 192.653 280.605 191.366L279.734 176.844C279.728 176.767 279.738 176.69 279.763 176.617C279.788 176.545 279.829 176.478 279.881 176.423C279.987 176.315 280.13 176.253 280.279 176.25H292.72C292.793 176.251 292.864 176.267 292.931 176.297C292.998 176.326 293.058 176.369 293.108 176.423C293.16 176.478 293.201 176.545 293.226 176.617C293.251 176.69 293.261 176.767 293.255 176.844L292.384 191.366C292.362 192.653 291.866 193.884 290.995 194.809C290.125 195.734 288.946 196.285 287.696 196.351ZM280.856 177.362L281.685 191.301C281.683 192.311 282.055 193.284 282.725 194.021C283.396 194.759 284.314 195.206 285.293 195.272H287.696C288.67 195.206 289.583 194.764 290.253 194.033C290.923 193.302 291.298 192.338 291.304 191.334L292.143 177.394L280.856 177.362Z" fill="#231F20"/>
<path d="M213.021 86.9268C212.098 86.9268 205.196 87.7036 201.965 89.3543C198.734 91.0051 198.031 91.1345 198.692 93.3679C199.353 95.6013 204.986 96.1407 209.36 95.2992C212.149 94.7123 214.839 93.7052 217.343 92.3106L213.021 86.9268Z" fill="#FAF7F7"/>
<path d="M205.29 96.1728C201.986 96.1728 198.787 95.4283 198.231 93.5079C197.517 91.0479 198.398 90.6056 201.021 89.2785L201.755 88.9117C205.028 87.2393 211.846 86.4409 212.989 86.4409C213.058 86.4408 213.125 86.4563 213.187 86.4861C213.248 86.516 213.303 86.5595 213.346 86.6136L217.678 92.0082C217.721 92.0636 217.752 92.128 217.769 92.197C217.785 92.266 217.786 92.3378 217.773 92.4074C217.763 92.4795 217.737 92.5483 217.697 92.6083C217.657 92.6683 217.604 92.7177 217.542 92.7526C214.991 94.1704 212.252 95.1955 209.412 95.7952C208.052 96.0491 206.672 96.1755 205.29 96.1728ZM212.801 87.4335C211.322 87.4983 205.122 88.2859 202.175 89.7964L201.44 90.1632C198.818 91.4903 198.661 91.5658 199.143 93.2166C199.626 94.8673 204.661 95.7089 209.276 94.8134C211.83 94.2784 214.301 93.3854 216.619 92.1592L212.801 87.4335Z" fill="#231F20"/>
<path d="M212.098 86.9165C211.49 87.0685 210.96 87.4505 210.614 87.9865C210.268 88.5224 210.131 89.1728 210.231 89.808C210.535 92.1709 215.402 92.2787 215.675 92.2787C215.947 92.2787 212.098 86.9165 212.098 86.9165Z" fill="#FAF7F7"/>
<path d="M215.675 92.7751C214.752 92.7751 210.105 92.5269 209.769 89.8728C209.645 89.1158 209.806 88.3388 210.219 87.6996C210.632 87.0603 211.267 86.6068 211.993 86.431C212.085 86.4091 212.18 86.416 212.268 86.4506C212.356 86.4852 212.432 86.546 212.486 86.6252C216.367 92.0198 216.294 92.1709 216.126 92.4945C216.083 92.5796 216.018 92.6509 215.939 92.7004C215.859 92.7499 215.768 92.7757 215.675 92.7751ZM211.92 87.4991C211.492 87.6659 211.136 87.9825 210.913 88.393C210.691 88.8036 210.616 89.2817 210.703 89.7433C210.871 91.0488 213.157 91.5882 214.899 91.7393C214.259 90.8114 213.073 89.1067 211.92 87.4991Z" fill="#231F20"/>
<path d="M248.14 92.3322C248.287 92.4077 249.598 94.1664 255.367 94.8785C261.136 95.5905 263.265 96.8637 264.556 93.7995C265.846 90.7354 264.954 88.6746 262.112 87.7899C259.269 86.9052 251.444 86.1608 249.912 87.6497C248.381 89.1386 248.14 92.3322 248.14 92.3322Z" fill="#FAF7F7"/>
<path d="M261.724 96.2387C260.666 96.1928 259.614 96.0629 258.577 95.8503C257.654 95.6993 256.584 95.5158 255.335 95.3648C252.912 95.0735 249.65 94.3722 247.93 92.7646C247.847 92.7208 247.779 92.6517 247.736 92.5666C247.693 92.4816 247.676 92.3849 247.689 92.2899C247.689 92.1496 247.961 88.8373 249.619 87.2405C251.276 85.6437 259.426 86.3666 262.29 87.2405C262.927 87.3872 263.525 87.6719 264.046 88.0757C264.567 88.4794 264.998 88.9929 265.311 89.5817C265.562 90.281 265.667 91.027 265.618 91.7708C265.569 92.5145 265.368 93.2393 265.028 93.8974C264.828 94.6222 264.389 95.2526 263.786 95.68C263.182 96.1073 262.453 96.305 261.724 96.2387ZM248.643 92.128C249.881 93.2069 252.22 93.9945 255.419 94.3937C256.678 94.5448 257.759 94.7282 258.703 94.8793C262.311 95.4835 263.287 95.559 264.115 93.5522C264.399 93.0171 264.572 92.4272 264.622 91.8199C264.673 91.2126 264.6 90.6011 264.409 90.0241C264.153 89.5592 263.804 89.156 263.384 88.8415C262.964 88.527 262.484 88.3085 261.975 88.2007C258.828 87.2189 251.486 86.7334 250.238 87.9526C249.313 89.1499 248.758 90.6039 248.643 92.128Z" fill="#231F20"/>
<path d="M246.294 91.0595C246.294 91.0595 248.916 93.3037 250.657 93.034C252.399 92.7642 254.853 91.7932 253.804 89.7972C252.755 87.8012 246.587 86.7007 246.587 86.7007L246.294 91.0595Z" fill="#FAF7F7"/>
<path d="M250.364 93.5517C248.517 93.5517 246.262 91.6635 245.989 91.3938C245.932 91.3414 245.887 91.2763 245.858 91.2034C245.829 91.1305 245.817 91.0517 245.822 90.973L246.147 86.6574C246.151 86.5887 246.17 86.5217 246.2 86.4605C246.231 86.3992 246.273 86.3451 246.325 86.3013C246.379 86.2602 246.44 86.2304 246.504 86.2137C246.569 86.197 246.637 86.1938 246.703 86.2042C247.374 86.3337 253.217 87.4665 254.266 89.5597C254.432 89.8522 254.526 90.1824 254.539 90.5212C254.552 90.86 254.483 91.1968 254.339 91.5017C253.636 92.9151 251.392 93.3574 250.731 93.4653L250.364 93.5517ZM246.797 90.8328C247.615 91.4909 249.441 92.7209 250.584 92.5483C251.727 92.3756 253.091 91.9117 253.479 91.1241C253.562 90.9544 253.599 90.7654 253.588 90.5759C253.577 90.3865 253.518 90.2034 253.416 90.0452C252.829 88.8799 249.409 87.801 247.059 87.3155L246.797 90.8328Z" fill="#231F20"/>
<path d="M216.86 72.6953C216.86 72.6953 217.636 83.258 227.706 85.3726C237.776 87.4873 242.968 86.9263 246.535 79.978C250.101 73.0298 247.741 68.7249 247.741 68.7249L217.321 68.0991L216.86 72.6953Z" fill="#231F20"/>
<path d="M235.993 87.0023C233.168 86.9249 230.358 86.5636 227.601 85.9234C217.259 83.7655 216.346 72.8684 216.336 72.7605C216.331 72.7284 216.331 72.6956 216.336 72.6634L216.818 68.0241C216.826 67.8886 216.886 67.7618 216.984 67.671C217.082 67.5802 217.211 67.5327 217.343 67.5386L247.762 68.1644C247.852 68.1646 247.941 68.1898 248.018 68.2372C248.096 68.2847 248.16 68.3527 248.203 68.4341C248.308 68.6175 250.668 73.0519 247.007 80.2051C244.437 85.2221 241.007 87.0023 235.993 87.0023ZM217.343 72.6958C217.416 73.5482 218.454 82.8916 227.769 84.8445C237.336 86.8512 242.507 86.5923 246.031 79.6872C248.916 74.0337 247.762 70.2251 247.364 69.2109L217.773 68.6067L217.343 72.6958Z" fill="#231F20"/>
<path d="M207.462 71.7363C207.462 71.7363 200.927 77.1957 203.266 82.2019C205.605 87.2081 247.322 92.9264 247.322 92.9264L249.21 86.3773C249.21 86.3773 216.399 69.1793 207.462 71.7363Z" fill="#231F20"/>
<path d="M247.269 93.4649H247.206C242.906 92.8823 205.133 87.5632 202.762 82.4383C200.297 77.1084 206.853 71.552 207.136 71.3254C207.189 71.2731 207.254 71.2359 207.325 71.2175C216.357 68.6497 248.045 85.2435 249.399 85.9124C249.508 85.9702 249.594 86.0655 249.642 86.1818C249.69 86.2982 249.696 86.4281 249.661 86.549L247.773 93.0873C247.739 93.1973 247.672 93.2934 247.581 93.3613C247.491 93.4293 247.381 93.4656 247.269 93.4649ZM207.671 72.2749C206.937 72.9222 201.692 77.745 203.675 81.9852C205.269 85.4377 230.192 90.0447 246.86 92.3428L248.486 86.6785C244.825 84.7472 216 70.0523 207.671 72.2749Z" fill="#231F20"/>
<path d="M251.329 69.2222C251.329 69.2222 218.895 82.7087 210.818 86.3015L215.496 93.7353C215.496 93.7353 245.444 93.1419 254.035 85.3953C262.626 77.6486 262.08 64.7231 251.329 69.2222Z" fill="#231F20"/>
<path d="M215.528 94.2416C215.44 94.2435 215.353 94.2216 215.275 94.1781C215.198 94.1345 215.133 94.0709 215.087 93.9935L210.409 86.5597C210.368 86.493 210.341 86.4181 210.33 86.34C210.32 86.2619 210.325 86.1824 210.346 86.1065C210.369 86.0326 210.407 85.9646 210.458 85.907C210.509 85.8493 210.57 85.8033 210.64 85.7721C218.601 82.2548 250.804 68.8546 251.129 68.7251C255.052 67.0852 258.147 67.5707 259.636 70.0522C261.734 73.5048 260.098 80.6364 254.391 85.7721C245.769 93.5511 216.755 94.22 215.528 94.2416ZM211.626 86.5165L215.821 93.1627C218.968 93.0656 245.832 92.0838 253.731 84.9629C258.975 80.1941 260.601 73.699 258.755 70.624C257.549 68.6065 254.979 68.2828 251.528 69.7177C251.203 69.858 220.426 82.654 211.626 86.5165Z" fill="#231F20"/>
<path d="M215.161 85.0716C215.051 85.0738 214.944 85.0406 214.854 84.9767C214.763 84.9129 214.695 84.8215 214.657 84.7155C214.632 84.6475 214.62 84.5751 214.623 84.5024C214.625 84.4297 214.641 84.3582 214.67 84.2919C214.7 84.2257 214.741 84.1661 214.793 84.1166C214.845 84.0671 214.906 84.0286 214.972 84.0034C215.14 83.9279 232.332 77.0875 236.035 74.7463C236.158 74.6701 236.305 74.6466 236.444 74.681C236.583 74.7153 236.704 74.8046 236.78 74.9297C236.818 74.9918 236.843 75.0611 236.855 75.1335C236.867 75.2059 236.864 75.28 236.847 75.3514C236.831 75.4227 236.801 75.49 236.758 75.5491C236.716 75.6083 236.663 75.6581 236.601 75.6957C232.815 78.0909 216.063 84.7587 215.36 85.0392C215.296 85.0604 215.229 85.0713 215.161 85.0716Z" fill="#FAF7F7"/>
<path d="M262.353 42.2593C262.353 42.2593 278.497 49.1428 277.909 51.6783C277.322 54.2137 262.941 71.4765 262.941 71.4765C262.941 71.4765 260.78 76.4071 257.822 77.2595C254.864 78.1118 250.93 75.188 252.304 73.5048C253.678 71.8217 256.636 68.4555 256.636 68.4555C256.636 68.4555 252.273 66.5566 254.067 66.1574C255.86 65.7582 259.196 64.744 259.196 64.744L265.133 55.8321L256.636 50.567" fill="#FAF7F7"/>
<path d="M256.71 77.9501C255.778 77.9441 254.859 77.7206 254.024 77.2963C253.188 76.8721 252.456 76.2582 251.885 75.5009C251.627 75.1684 251.487 74.7556 251.487 74.3303C251.487 73.9049 251.627 73.4922 251.885 73.1597C252.934 71.8973 254.843 69.6855 255.745 68.6498C253.007 67.3659 253.07 66.6538 253.091 66.4056C253.112 66.1575 253.28 65.7798 253.93 65.6288C255.441 65.2835 258.126 64.4851 258.85 64.2801L264.367 55.994L256.343 51.0202C256.284 50.9847 256.232 50.9373 256.191 50.8809C256.15 50.8246 256.12 50.7603 256.104 50.692C256.087 50.6236 256.084 50.5526 256.094 50.4829C256.105 50.4133 256.129 50.3465 256.165 50.2865C256.2 50.2253 256.247 50.172 256.303 50.1296C256.359 50.0872 256.422 50.0566 256.489 50.0396C256.557 50.0225 256.626 50.0193 256.695 50.0302C256.763 50.0412 256.829 50.0659 256.888 50.1031L265.385 55.3683C265.446 55.406 265.498 55.4561 265.54 55.5154C265.581 55.5748 265.611 55.6422 265.626 55.7135C265.642 55.7858 265.642 55.8606 265.628 55.9331C265.613 56.0055 265.584 56.0741 265.542 56.1343L259.616 65.0462C259.541 65.147 259.439 65.2222 259.322 65.262C259.196 65.262 256.175 66.2006 254.381 66.6322C255.146 67.1594 255.962 67.6041 256.815 67.9593C256.892 67.9955 256.961 68.0493 257.015 68.1165C257.07 68.1838 257.109 68.2628 257.13 68.3477C257.146 68.4314 257.143 68.5179 257.121 68.6003C257.099 68.6827 257.059 68.7587 257.004 68.8224C257.004 68.8224 254.046 72.1994 252.693 73.8502C252.598 73.9581 252.346 74.2709 252.745 74.9291C253.324 75.6645 254.087 76.223 254.953 76.5444C255.818 76.8658 256.752 76.9377 257.654 76.7525C260.35 75.9756 262.416 71.3579 262.437 71.2608C262.462 71.2152 262.49 71.1719 262.521 71.1313C268.27 64.237 276.965 53.3291 277.374 51.5597C277.637 50.4268 270.651 46.4024 262.133 42.7665C262.063 42.7445 261.998 42.7078 261.943 42.6587C261.888 42.6095 261.843 42.549 261.812 42.481C261.781 42.413 261.763 42.3391 261.762 42.2639C261.76 42.1887 261.773 42.114 261.801 42.0445C261.829 41.9749 261.871 41.9122 261.924 41.8603C261.977 41.8083 262.039 41.7683 262.108 41.7428C262.177 41.7174 262.25 41.707 262.323 41.7123C262.396 41.7176 262.467 41.7386 262.532 41.7739C267.504 43.9317 279.021 49.1213 278.392 51.8078C277.763 54.4943 265.049 69.7503 263.371 71.7786C263.067 72.426 260.927 76.9251 257.937 77.7882C257.537 77.9003 257.124 77.9548 256.71 77.9501Z" fill="#231F20"/>
<path d="M205.888 35.678L198.378 36.6274L195.965 17.6384C195.965 17.6384 198.86 15.4158 198.671 14.078C198.664 13.7402 198.561 13.412 198.375 13.1339C198.189 12.8558 197.927 12.6401 197.622 12.5135C197.622 12.5135 199.972 5.68395 197.948 4.62661C196.825 4.05478 195.955 11.8662 195.955 11.8662C195.955 11.8662 196.322 4.87476 195.031 4.6374C193.741 4.40004 193.364 11.4454 193.364 11.4454C193.364 11.4454 192.367 4.46477 191.738 4.6374C191.108 4.81003 190.846 3.64479 190.563 11.7259C186.22 12.1898 189.598 18.2642 189.598 18.2642C189.598 18.2642 189.797 48.679 190.899 48.7437C192 48.8084 213 45.5069 213 45.5069" fill="#FAF7F7"/>
<path d="M190.888 49.2828C190.3 49.2828 189.304 49.1857 189.094 18.4041C188.706 17.6704 187.185 14.5847 188.161 12.6426C188.352 12.2754 188.625 11.9593 188.956 11.7195C189.288 11.4798 189.669 11.323 190.07 11.2616C190.311 4.53992 190.479 4.12993 191.517 4.11914H191.633C191.806 4.0911 191.984 4.12538 192.136 4.21624C192.503 4.46439 192.891 5.61884 193.29 7.67958C193.552 6.16909 193.93 4.73413 194.465 4.30256C194.559 4.22359 194.669 4.16635 194.786 4.13471C194.904 4.10307 195.027 4.09776 195.147 4.11914C195.797 4.23782 196.196 5.13333 196.363 6.38488C196.474 5.55106 196.841 4.77572 197.412 4.17309C197.525 4.10982 197.651 4.07666 197.779 4.07666C197.908 4.07666 198.034 4.10982 198.147 4.17309C200.245 5.25201 198.828 10.42 198.231 12.265C198.506 12.4674 198.737 12.728 198.907 13.0294C199.077 13.3309 199.183 13.6661 199.217 14.0128C199.416 15.4154 197.37 17.2496 196.542 17.897L198.849 36.0552L205.846 35.1705C205.985 35.1533 206.125 35.1937 206.235 35.2827C206.345 35.3717 206.417 35.5021 206.433 35.6452C206.45 35.7883 206.411 35.9323 206.324 36.0456C206.238 36.1589 206.111 36.2322 205.972 36.2494L198.461 37.1989C198.324 37.2172 198.184 37.1787 198.074 37.0918C197.964 37.0048 197.892 36.8765 197.874 36.7349L195.461 17.7351C195.452 17.6393 195.466 17.5425 195.503 17.4539C195.54 17.3652 195.597 17.2875 195.671 17.228C196.94 16.257 198.262 14.8112 198.178 14.1855C198.042 13.2684 197.517 13.1066 197.454 13.1066C197.386 13.0858 197.321 13.0513 197.266 13.005C197.21 12.9587 197.163 12.9016 197.129 12.8368C197.101 12.7686 197.086 12.6952 197.086 12.621C197.086 12.5469 197.101 12.4735 197.129 12.4053C197.968 9.9561 198.734 6.1583 197.853 5.29516C197.391 6.02883 196.804 9.22244 196.468 12.0061C196.456 12.1491 196.389 12.2812 196.281 12.3733C196.174 12.4654 196.036 12.5098 195.897 12.497C195.758 12.4841 195.629 12.4149 195.54 12.3046C195.45 12.1944 195.407 12.052 195.419 11.909C195.577 8.92034 195.419 6.01804 194.979 5.33832C194.308 7.34439 193.937 9.44329 193.877 11.5637C193.865 11.6947 193.807 11.8168 193.715 11.9078C193.623 11.9989 193.502 12.0529 193.374 12.06C193.244 12.0691 193.115 12.0258 193.015 11.9392C192.915 11.8527 192.852 11.7296 192.839 11.5961C192.583 9.45492 192.151 7.33988 191.549 5.27359C191.252 7.44344 191.098 9.63143 191.087 11.8226C191.083 11.9531 191.032 12.0775 190.946 12.1727C190.859 12.2679 190.741 12.3275 190.615 12.3405C190.308 12.3354 190.004 12.4122 189.734 12.5634C189.464 12.7146 189.236 12.9352 189.073 13.2037C188.402 14.5415 189.556 17.1633 190.059 18.0696C190.101 18.1491 190.123 18.2382 190.122 18.3285C190.196 28.902 190.542 45.9165 191.171 48.2686C193.196 48.0852 205.007 46.2834 212.905 45.0318C213.043 45.0131 213.182 45.0498 213.293 45.1343C213.405 45.2188 213.48 45.3445 213.503 45.485C213.515 45.5553 213.513 45.6274 213.497 45.6969C213.481 45.7663 213.452 45.8318 213.411 45.8893C213.37 45.9467 213.317 45.995 213.258 46.0312C213.198 46.0674 213.132 46.0908 213.063 46.1C210.891 46.3805 192.346 49.2828 190.888 49.2828Z" fill="#231F20"/>
<path d="M265.133 41.6553L260.413 55.4223L247.301 50.2111L249.158 68.7902L215.476 70.2791L217.93 47.1038L206.738 48.3122L204.304 34.2863C204.304 34.2863 225.063 29.9706 232.752 29.8303C240.441 29.6901 265.133 41.6553 265.133 41.6553Z" fill="#4B8AB9"/>
<path d="M223.636 8.97477C223.082 7.48463 223.082 5.83633 223.636 4.3462C224.262 2.93317 225.387 1.81822 226.783 1.22812C228.183 0.651712 229.699 0.433279 231.199 0.591554C233.647 0.740441 235.975 1.73234 237.807 3.40753C238.707 4.25413 239.405 5.30333 239.845 6.47311C240.286 7.6429 240.457 8.90158 240.346 10.1508C240.874 10.0507 241.418 10.0914 241.927 10.269C242.436 10.4465 242.892 10.7549 243.252 11.165C245.402 13.3228 245.349 17.0559 243.933 19.7963C243.508 20.7199 242.896 21.54 242.14 22.2023C241.418 22.7694 240.595 23.1838 239.717 23.4215C235.793 24.6407 231.01 23.4215 228.797 19.9258C227.601 18.0161 227.874 15.5346 226.793 13.722C225.713 11.9094 224.328 10.96 223.636 8.97477Z" fill="#FAF7F7"/>
<path d="M236.643 24.4467C235.035 24.5138 233.435 24.1636 231.993 23.4283C230.55 22.693 229.311 21.5962 228.388 20.2389C227.807 19.1822 227.426 18.0216 227.266 16.8187C227.129 15.844 226.834 14.8995 226.395 14.0243C226.011 13.417 225.583 12.84 225.115 12.2981C224.272 11.3886 223.603 10.3234 223.143 9.15839C222.534 7.54103 222.534 5.74798 223.143 4.13062C223.834 2.58513 225.072 1.36934 226.605 0.732017C228.084 0.118873 229.686 -0.114422 231.273 0.0522996C233.841 0.203269 236.283 1.24977 238.196 3.01933C239.064 3.84431 239.757 4.84553 240.23 5.95977C240.703 7.074 240.946 8.27703 240.944 9.49286C241.976 9.54866 242.948 10.008 243.661 10.7768C246.126 13.2583 245.759 17.3366 244.448 20.0663C243.991 21.0609 243.329 21.941 242.507 22.6449C241.732 23.2486 240.853 23.6953 239.916 23.9612C238.855 24.2883 237.752 24.4519 236.643 24.4467ZM230.35 1.08806C229.228 1.06994 228.115 1.28651 227.077 1.72463C225.785 2.24819 224.741 3.26486 224.161 4.56219C223.657 5.92432 223.657 7.42943 224.161 8.79156C224.578 9.83372 225.183 10.7855 225.944 11.5968C226.452 12.1787 226.911 12.803 227.318 13.4633C227.842 14.4393 228.197 15.5017 228.367 16.6029C228.504 17.676 228.839 18.7123 229.353 19.6563C231.283 22.7528 235.731 24.1554 239.685 22.8931C240.492 22.6781 241.253 22.3124 241.93 21.8141C242.632 21.2051 243.198 20.4469 243.587 19.5916C244.762 17.1964 245.087 13.6683 243 11.5536C242.702 11.2139 242.326 10.9561 241.907 10.8035C241.487 10.6509 241.037 10.6084 240.598 10.6797C240.515 10.7058 240.427 10.7096 240.343 10.6907C240.258 10.6718 240.18 10.6309 240.115 10.5718C240.052 10.5122 240.003 10.4383 239.972 10.3559C239.941 10.2736 239.929 10.185 239.937 10.0971C240.041 8.93308 239.881 7.76011 239.47 6.67049C239.059 5.58086 238.407 4.60431 237.566 3.81773C235.823 2.21815 233.605 1.27145 231.273 1.13122L230.35 1.08806Z" fill="#231F20"/>
<path d="M228.944 26.8962L227.895 32.5282C227.895 32.5282 228.126 35.247 231.954 35.0744C235.783 34.9018 236.821 32.4311 236.821 32.4311L238.374 21.8469C238.374 21.8469 236.381 19.7861 238.374 13.8952C234.577 14.2291 230.754 13.834 227.098 12.73C226.422 15.9754 225.921 19.2567 225.598 22.5589C225.503 25.5583 228.944 26.8962 228.944 26.8962Z" fill="#FAF7F7"/>
<path d="M231.64 35.5919C227.706 35.5919 227.392 32.5817 227.392 32.5494C227.386 32.4992 227.386 32.4485 227.392 32.3983L228.346 27.1871C227.36 26.7016 224.947 25.2235 225.052 22.5046C225.374 19.1842 225.874 15.8848 226.552 12.6217C226.568 12.5477 226.599 12.4779 226.642 12.4166C226.685 12.3554 226.741 12.304 226.804 12.2657C226.935 12.1898 227.09 12.1704 227.234 12.2117C230.819 13.2925 234.568 13.6803 238.29 13.3554C238.378 13.3449 238.468 13.3576 238.55 13.3922C238.632 13.4269 238.704 13.4823 238.759 13.5535C238.815 13.6246 238.852 13.7091 238.867 13.799C238.882 13.8888 238.875 13.9812 238.846 14.0674C237.042 19.4621 238.741 21.4581 238.762 21.4796C238.817 21.5395 238.858 21.6114 238.881 21.69C238.905 21.7685 238.911 21.8516 238.899 21.9328L237.346 32.5062C237.352 32.5528 237.352 32.5999 237.346 32.6465C237.346 32.7544 236.129 35.4301 232.017 35.6135L231.64 35.5919ZM228.44 32.5062C228.503 32.873 228.944 34.6641 231.954 34.5022C234.965 34.3404 236.15 32.5817 236.329 32.2365L237.839 21.9652C237.378 21.2854 236.276 19.0629 237.619 14.4127C234.203 14.6337 230.775 14.2691 227.475 13.3338C226.848 16.3577 226.389 19.416 226.101 22.4938C225.996 25.0617 229.091 26.2916 229.122 26.3024C229.237 26.3479 229.334 26.4329 229.395 26.543C229.456 26.6531 229.478 26.7815 229.458 26.9066L228.44 32.5062Z" fill="#231F20"/>
<path d="M237.608 21.1885C237.886 20.6484 238.319 20.2102 238.849 19.9339C239.379 19.6576 239.979 19.5569 240.566 19.6456C240.849 19.685 241.119 19.7938 241.353 19.9628C241.586 20.1318 241.777 20.356 241.909 20.6166C242.037 21.0655 242.057 21.5395 241.967 21.998C241.878 22.4565 241.681 22.8858 241.395 23.2492C240.947 23.9158 240.261 24.3733 239.486 24.5223C238.71 24.6602 237.913 24.4822 237.262 24.026" fill="#FAF7F7"/>
<path d="M238.961 25.1047C238.249 25.1064 237.554 24.8843 236.968 24.4682C236.912 24.4273 236.863 24.3752 236.826 24.3151C236.789 24.2549 236.764 24.1877 236.752 24.1175C236.741 24.0473 236.743 23.9754 236.758 23.906C236.774 23.8365 236.802 23.7709 236.842 23.7129C236.881 23.6549 236.931 23.6055 236.988 23.5675C237.046 23.5295 237.11 23.5037 237.178 23.4917C237.245 23.4796 237.314 23.4815 237.381 23.4973C237.448 23.513 237.511 23.5423 237.566 23.5834C238.101 23.9569 238.754 24.1037 239.391 23.9934C240.034 23.8621 240.6 23.4741 240.965 22.9145C241.204 22.619 241.372 22.2693 241.454 21.8941C241.536 21.5189 241.53 21.1291 241.437 20.7567C241.341 20.5755 241.204 20.4203 241.038 20.304C240.872 20.1878 240.682 20.1136 240.482 20.0877C240 20.0301 239.511 20.1264 239.083 20.3638C238.656 20.6012 238.309 20.9681 238.091 21.4148C238.023 21.5273 237.918 21.6103 237.795 21.6481C237.672 21.6859 237.539 21.676 237.423 21.6201C237.306 21.5642 237.214 21.4663 237.163 21.3449C237.112 21.2235 237.106 21.0871 237.147 20.9617C237.474 20.3165 237.987 19.7915 238.617 19.4591C239.246 19.1268 239.96 19.0034 240.661 19.1059C241.028 19.1617 241.377 19.3074 241.678 19.5309C241.979 19.7543 242.224 20.0489 242.391 20.3898C242.559 20.9231 242.597 21.4907 242.5 22.0423C242.403 22.5938 242.174 23.1122 241.836 23.5511C241.577 23.9418 241.245 24.2757 240.86 24.5331C240.474 24.7906 240.043 24.9666 239.591 25.0508C239.383 25.0913 239.172 25.1094 238.961 25.1047Z" fill="#231F20"/>
<path d="M231.346 21.8354C230.947 21.8354 229.71 21.7706 229.248 20.9722C229.101 20.7025 228.713 19.9904 231.577 17.2392C231.625 17.1886 231.683 17.1485 231.747 17.1211C231.811 17.0937 231.88 17.0796 231.949 17.0796C232.018 17.0796 232.087 17.0937 232.151 17.1211C232.215 17.1485 232.273 17.1886 232.321 17.2392C232.418 17.3418 232.472 17.4792 232.472 17.6222C232.472 17.7652 232.418 17.9025 232.321 18.0052C231.507 18.7213 230.8 19.5576 230.224 20.4867C230.577 20.6723 230.971 20.7579 231.367 20.7349C231.435 20.7334 231.503 20.746 231.567 20.772C231.63 20.7979 231.688 20.8366 231.737 20.8858C231.786 20.9351 231.825 20.9938 231.851 21.0587C231.878 21.1236 231.891 21.1932 231.891 21.2635C231.894 21.4048 231.843 21.5416 231.749 21.6445C231.655 21.7474 231.525 21.8082 231.388 21.8138L231.346 21.8354Z" fill="#231F20"/>
<path d="M228.944 26.8959C230.373 27.1573 231.837 27.128 233.255 26.8096C232.75 27.7312 232.049 28.5235 231.205 29.127C230.36 29.7305 229.393 30.1296 228.377 30.2945L228.944 26.8959Z" fill="#231F20"/>
<path d="M228.378 30.834C228.305 30.8332 228.233 30.8176 228.167 30.7879C228.1 30.7583 228.04 30.7153 227.989 30.6614C227.936 30.601 227.897 30.5287 227.875 30.45C227.853 30.3714 227.849 30.2886 227.864 30.2082L228.43 26.8096C228.44 26.7398 228.464 26.6728 228.5 26.6125C228.535 26.5522 228.583 26.4999 228.638 26.4587C228.694 26.4175 228.757 26.3881 228.824 26.3724C228.891 26.3567 228.96 26.355 229.028 26.3673C230.365 26.625 231.738 26.6029 233.066 26.3025C233.166 26.2646 233.275 26.2587 233.378 26.2857C233.481 26.3127 233.573 26.3712 233.643 26.4536C233.716 26.5334 233.762 26.6349 233.776 26.7434C233.789 26.852 233.768 26.962 233.717 27.0578C233.176 28.0537 232.424 28.9108 231.516 29.5648C230.607 30.2188 229.567 30.6527 228.472 30.834H228.378ZM229.374 27.5001L229.017 29.658C230.217 29.3231 231.285 28.6099 232.07 27.6188C231.17 27.6625 230.267 27.6227 229.374 27.5001Z" fill="#231F20"/>
<path d="M235 16.3449C235.019 15.9402 234.842 15.6026 234.605 15.5908C234.368 15.5791 234.16 15.8976 234.141 16.3023C234.122 16.7071 234.299 17.0447 234.536 17.0565C234.774 17.0682 234.981 16.7497 235 16.3449Z" fill="#231F20"/>
<path d="M230.848 15.8199C230.868 15.4147 230.691 15.0763 230.454 15.0641C230.216 15.0519 230.008 15.3704 229.988 15.7756C229.968 16.1808 230.145 16.5192 230.382 16.5314C230.62 16.5436 230.828 16.225 230.848 15.8199Z" fill="#231F20"/>
<path d="M234.671 22.5688C234.671 22.5688 232.364 25.4172 228.923 22.6659L234.671 22.5688Z" fill="#FAF7F7"/>
<path d="M231.871 24.4036C230.683 24.3527 229.548 23.8886 228.651 23.0873C228.591 23.046 228.541 22.9926 228.502 22.9304C228.464 22.8683 228.438 22.7988 228.427 22.726C228.416 22.6533 228.419 22.579 228.437 22.5076C228.454 22.4363 228.486 22.3694 228.53 22.3111C228.574 22.2528 228.628 22.2043 228.691 22.1687C228.754 22.1331 228.823 22.111 228.894 22.1039C228.965 22.0967 229.037 22.1047 229.105 22.1272C229.174 22.1498 229.237 22.1864 229.29 22.2349C232.269 24.6301 234.231 22.3212 234.315 22.2349C234.408 22.1439 234.531 22.0914 234.66 22.0876C234.789 22.0838 234.915 22.1289 235.013 22.2142C235.112 22.2996 235.176 22.4193 235.194 22.5504C235.213 22.6816 235.183 22.8151 235.112 22.9254C234.698 23.3857 234.197 23.7543 233.64 24.0084C233.082 24.2626 232.48 24.397 231.871 24.4036Z" fill="#231F20"/>
<path d="M247.364 54.7531C247.231 54.7536 247.104 54.7027 247.007 54.6107C246.909 54.5187 246.85 54.3923 246.839 54.2568L245.748 37.7494L246.797 37.6738L247.846 54.1705C247.85 54.2414 247.841 54.3124 247.818 54.3796C247.796 54.4467 247.761 54.5086 247.715 54.5617C247.669 54.6148 247.614 54.6581 247.552 54.6891C247.489 54.7201 247.422 54.7382 247.353 54.7423L247.364 54.7531Z" fill="#231F20"/>
<path d="M192.65 17.1316C192.515 17.1317 192.384 17.0779 192.287 16.9813C192.189 16.8848 192.131 16.7531 192.126 16.6138C192.146 16.1605 192.284 15.7212 192.526 15.3417C192.768 14.9621 193.104 14.6562 193.5 14.4559C192.797 14.381 192.127 14.1126 191.559 13.6791C191.447 13.5878 191.367 13.4622 191.329 13.3206C191.291 13.179 191.298 13.0286 191.349 12.8915C191.475 12.5786 191.748 11.9204 197.58 12.0068C197.719 12.0068 197.853 12.0636 197.951 12.1648C198.049 12.2659 198.105 12.4031 198.105 12.5462C198.105 12.6893 198.049 12.8265 197.951 12.9277C197.853 13.0288 197.719 13.0857 197.58 13.0857C196.071 13.048 194.562 13.1021 193.059 13.2475C193.92 13.4702 194.804 13.5825 195.692 13.582C195.831 13.5648 195.971 13.6052 196.081 13.6942C196.192 13.7832 196.263 13.9136 196.28 14.0567C196.296 14.1998 196.257 14.3438 196.17 14.4571C196.084 14.5704 195.957 14.6437 195.818 14.6609C195.126 14.8335 193.154 15.5672 193.196 16.6245C193.198 16.6954 193.188 16.7661 193.164 16.8327C193.14 16.8992 193.104 16.9603 193.057 17.0124C193.01 17.0645 192.954 17.1067 192.891 17.1364C192.829 17.1661 192.761 17.1828 192.692 17.1856L192.65 17.1316Z" fill="#231F20"/>
<path d="M220.647 150.293L226.406 149.375C227.077 152.612 228.703 154.144 232.542 154.144C235.385 154.144 237.095 153.065 237.095 150.994C237.095 148.922 235.469 147.919 232.416 147.919H229.532V144.002H231.913C234.713 144.002 236.297 142.977 236.297 141.316C236.297 139.654 234.671 138.489 232.102 138.489C229.227 138.489 227.339 139.719 226.857 141.877L221.056 141.035C221.843 136.72 226.143 133.925 232.07 133.925C237.997 133.925 242.213 136.72 242.213 140.712C242.213 142.87 240.881 144.456 238.668 145.448V145.524C239.905 145.909 240.992 146.688 241.773 147.748C242.553 148.808 242.986 150.096 243.011 151.425C243.011 155.59 238.815 158.74 232.521 158.74C225.692 158.74 221.308 155.59 220.647 150.293Z" fill="#231F20"/>
</svg>
