<svg width="301" height="194" viewBox="0 0 301 194" fill="none" xmlns="http://www.w3.org/2000/svg">
<path d="M299.934 184.206H0.982972C0.843872 184.206 0.710469 184.149 0.612111 184.048C0.513753 183.947 0.458496 183.809 0.458496 183.666C0.458496 183.524 0.513753 183.386 0.612111 183.285C0.710469 183.184 0.843872 183.127 0.982972 183.127H299.934C300.073 183.127 300.207 183.184 300.305 183.285C300.403 183.386 300.458 183.524 300.458 183.666C300.458 183.809 300.403 183.947 300.305 184.048C300.207 184.149 300.073 184.206 299.934 184.206Z" fill="#D1D3D4"/>
<path d="M161.483 41.7336L168.574 44.472L173 27.3194C173 27.3194 170.693 24.4624 171.186 23.2118C171.277 22.8818 171.461 22.5869 171.715 22.3643C171.969 22.1417 172.281 22.0015 172.612 21.9612C172.612 21.9612 171.196 15.4926 173.409 14.9427C174.637 14.6517 174.385 21.7348 174.385 21.7348C174.385 21.7348 175.612 14.8457 176.913 14.932C178.214 15.0182 176.986 21.9504 176.986 21.9504C176.986 21.9504 179.504 22.511 179.21 24.1066C178.766 25.4097 178.021 26.5825 177.039 27.5242C177.039 27.5242 178.088 51.3072 175.843 55.8783C174.228 59.1881 155.493 50.3477 155.493 50.3477" fill="#FAF7F7"/>
<path d="M173.861 57.1178C169.036 57.1178 158.871 52.5359 155.273 50.8325C155.164 50.763 155.083 50.6548 155.047 50.5282C155.01 50.4017 155.02 50.2656 155.074 50.1459C155.128 50.0262 155.223 49.9312 155.341 49.8789C155.459 49.8266 155.592 49.8206 155.714 49.8622C164.504 54.0021 174.522 57.4089 175.382 55.63C177.48 51.2421 176.525 27.7826 176.515 27.5454C176.512 27.4687 176.526 27.3923 176.555 27.3215C176.584 27.2508 176.627 27.1874 176.683 27.1357C177.591 26.2753 178.279 25.1977 178.686 23.9984C178.885 22.9203 176.903 22.4783 176.882 22.4783C176.751 22.4473 176.636 22.3669 176.561 22.2531C176.485 22.1392 176.453 22.0003 176.473 21.8638C176.934 18.996 177.071 16.2253 176.808 15.5246C176.315 15.9989 175.434 18.8343 174.899 21.8315C174.874 21.9657 174.801 22.0853 174.694 22.1671C174.587 22.2488 174.455 22.2867 174.322 22.2735C174.191 22.2573 174.07 22.1905 173.984 22.0864C173.899 21.9824 173.855 21.849 173.861 21.7129C173.955 18.8451 173.756 16.1067 173.41 15.503C172.361 16.0097 172.613 19.5135 173.127 21.8422C173.141 21.9211 173.139 22.0021 173.121 22.0801C173.103 22.1581 173.069 22.2314 173.022 22.295C172.972 22.358 172.91 22.409 172.839 22.4444C172.769 22.4798 172.691 22.4987 172.613 22.4999C172.613 22.4999 172.004 22.4999 171.669 23.4055C171.427 24.0308 172.518 25.8851 173.41 26.974C173.463 27.0407 173.5 27.1194 173.519 27.2037C173.537 27.288 173.535 27.3755 173.515 27.4592L169.078 44.6118C169.061 44.6841 169.029 44.7517 168.984 44.8096C168.938 44.8674 168.881 44.914 168.815 44.946C168.748 44.9779 168.675 44.9945 168.6 44.9945C168.526 44.9945 168.453 44.9779 168.385 44.946L161.305 42.2076C161.233 42.189 161.166 42.1551 161.108 42.1081C161.05 42.0611 161.003 42.002 160.969 41.9347C160.934 41.8675 160.914 41.7935 160.91 41.7178C160.905 41.642 160.916 41.5662 160.942 41.4951C160.968 41.4241 161.009 41.3595 161.061 41.3056C161.113 41.2517 161.175 41.2097 161.244 41.1823C161.313 41.1549 161.387 41.1427 161.46 41.1467C161.534 41.1506 161.606 41.1704 161.672 41.205L168.27 43.7601L172.466 27.4484C171.836 26.6182 170.221 24.3327 170.735 23.0066C170.845 22.6876 171.017 22.395 171.241 22.1466C171.464 21.8982 171.735 21.6993 172.036 21.5619C171.689 19.7292 170.987 14.9747 173.336 14.4141C173.462 14.3817 173.594 14.3815 173.72 14.4134C173.847 14.4454 173.963 14.5085 174.06 14.5974C174.618 15.4416 174.905 16.4447 174.878 17.4651C175.434 15.6755 176.148 14.3279 176.976 14.3925C177.096 14.3999 177.213 14.4347 177.318 14.4944C177.424 14.554 177.515 14.6371 177.585 14.7375C178.361 15.7294 177.868 19.7507 177.585 21.5512C178.634 21.9177 179.987 22.7586 179.683 24.2033C179.283 25.5443 178.562 26.7604 177.585 27.7395C177.69 30.3916 178.497 51.6734 176.326 56.1152C175.969 56.8267 175.088 57.1178 173.861 57.1178Z" fill="#231F20"/>
<path d="M116.347 25.8101C116.347 25.8101 97.9899 18.0046 97.2032 19.5031C96.4165 21.0017 89.7032 47.8142 89.7871 49.0863C89.8711 50.3585 88.5074 55.0159 89.8816 56.0078C91.2557 56.9996 95.7347 58.606 96.3326 56.2557C96.9305 53.9054 96.0599 48.3963 96.0599 48.3963L104.766 30.0686L113.305 33.9174" fill="#FAF7F7"/>
<path d="M94.3503 57.9925C92.6611 57.905 91.0232 57.3662 89.5986 56.4292C88.3608 55.5452 88.7594 52.947 89.0741 50.8662C89.1857 50.2868 89.2523 49.6992 89.2734 49.1089C89.179 47.675 95.8818 20.8626 96.7524 19.2239C96.9937 18.7495 97.7489 17.3264 116.557 25.3152C116.621 25.3421 116.679 25.3817 116.728 25.4317C116.777 25.4818 116.816 25.5413 116.843 25.6068C116.87 25.6724 116.884 25.7428 116.884 25.8139C116.885 25.885 116.871 25.9555 116.845 26.0213C116.819 26.0872 116.78 26.1471 116.732 26.1976C116.683 26.2481 116.625 26.2883 116.561 26.3158C116.497 26.3433 116.429 26.3577 116.36 26.358C116.291 26.3584 116.222 26.3447 116.158 26.3178C108.039 22.8679 99.0076 19.5473 97.623 19.8492C96.7314 22.0054 90.2804 47.6535 90.2804 49.055C90.2728 49.7217 90.2025 50.386 90.0706 51.0387C89.8608 52.4403 89.4622 55.0601 90.1545 55.556C91.13 56.2675 93.8468 57.2917 95.1685 56.7958C95.3215 56.7468 95.4593 56.6572 95.5679 56.5361C95.6766 56.415 95.7522 56.2666 95.7874 56.1058C96.3433 53.9496 95.5146 48.5591 95.5146 48.4728C95.4837 48.3674 95.4837 48.2549 95.5146 48.1494L104.221 29.8216C104.28 29.6964 104.384 29.5994 104.511 29.5512C104.638 29.503 104.779 29.5072 104.903 29.5629L113.452 33.4117C113.515 33.4408 113.572 33.4823 113.62 33.5341C113.668 33.5858 113.705 33.6467 113.73 33.7133C113.755 33.7798 113.767 33.8508 113.765 33.9221C113.763 33.9933 113.747 34.0635 113.719 34.1287C113.691 34.1938 113.65 34.2526 113.6 34.3016C113.55 34.3507 113.491 34.3891 113.426 34.4146C113.361 34.4401 113.292 34.4523 113.223 34.4504C113.153 34.4485 113.085 34.4326 113.022 34.4036L104.945 30.7596L96.5531 48.4728C96.6895 49.4431 97.3398 54.1544 96.7839 56.3753C96.7057 56.7043 96.5486 57.0079 96.3268 57.2584C96.1051 57.5088 95.8259 57.6982 95.5146 57.8092C95.1385 57.9338 94.7454 57.9957 94.3503 57.9925Z" fill="#231F20"/>
<path d="M100.046 150.676H40.0039V191.428H100.046V150.676Z" fill="#FAF7F7"/>
<path d="M100.088 192H40.004C39.8649 192 39.7315 191.943 39.6331 191.842C39.5347 191.741 39.4795 191.604 39.4795 191.461V150.708C39.4795 150.566 39.5347 150.428 39.6331 150.327C39.7315 150.226 39.8649 150.169 40.004 150.169H100.088C100.227 150.169 100.36 150.226 100.459 150.327C100.557 150.428 100.612 150.566 100.612 150.708V191.461C100.61 191.603 100.554 191.738 100.456 191.839C100.358 191.939 100.226 191.997 100.088 192ZM40.5704 190.922H99.5634V151.248H40.5284L40.5704 190.922Z" fill="#D1D3D4"/>
<path d="M180.458 115.778H120.416V191.418H180.458V115.778Z" fill="#FAF7F7"/>
<path d="M180.458 192H120.416C120.277 192 120.144 191.943 120.045 191.842C119.947 191.741 119.892 191.604 119.892 191.461V115.778C119.892 115.635 119.947 115.498 120.045 115.397C120.144 115.296 120.277 115.239 120.416 115.239H180.458C180.597 115.239 180.731 115.296 180.829 115.397C180.927 115.498 180.983 115.635 180.983 115.778V191.429C180.987 191.502 180.977 191.576 180.952 191.645C180.928 191.714 180.89 191.778 180.841 191.831C180.792 191.885 180.732 191.927 180.667 191.956C180.601 191.985 180.53 192 180.458 192ZM120.941 190.922H179.934V116.317H120.941V190.922Z" fill="#231F20"/>
<path d="M260.871 88.9014H200.829V191.429H260.871V88.9014Z" fill="#FAF7F7"/>
<path d="M260.871 192H200.787C200.649 191.998 200.517 191.94 200.419 191.839C200.321 191.739 200.265 191.603 200.263 191.461V88.9336C200.263 88.7906 200.318 88.6535 200.416 88.5524C200.515 88.4513 200.648 88.3945 200.787 88.3945H260.829C260.968 88.3945 261.102 88.4513 261.2 88.5524C261.298 88.6535 261.354 88.7906 261.354 88.9336V191.461C261.354 191.597 261.305 191.728 261.215 191.828C261.126 191.928 261.003 191.989 260.871 192ZM201.354 190.922H260.347V89.4726H201.354V190.922Z" fill="#D1D3D4"/>
<path d="M138.437 72.0389C138.437 72.0389 168.112 76.4699 169.413 82.6582C170.462 87.79 166.507 108.77 166.507 108.77L157.444 108.231C157.444 108.231 157.864 88.7279 156.805 87.3156C155.745 85.9033 126.773 82.3132 126.773 82.3132L118.969 102.722L86.2312 121.05L83.8081 111.142L103.434 96.9431L112.444 67.209L138.437 72.0389Z" fill="#231F20"/>
<path d="M86.273 121.633C86.2035 121.644 86.1328 121.644 86.0633 121.633C85.9903 121.599 85.9259 121.548 85.875 121.484C85.8241 121.421 85.788 121.346 85.7696 121.266L83.3045 111.229C83.2792 111.123 83.2856 111.012 83.3231 110.91C83.3605 110.808 83.4272 110.72 83.5143 110.658L102.993 96.5667L111.951 67.0051C111.99 66.8815 112.071 66.7765 112.179 66.7091C112.286 66.6418 112.414 66.6167 112.539 66.6385L138.521 71.5115C138.836 71.5115 146.168 72.6651 153.563 74.5087C163.979 77.0853 169.298 79.7159 169.916 82.5513C170.965 87.7262 167.179 108.016 167.021 108.879C166.996 109.006 166.927 109.12 166.827 109.199C166.727 109.278 166.602 109.318 166.476 109.31L157.423 108.771C157.288 108.762 157.161 108.701 157.069 108.598C156.977 108.496 156.927 108.36 156.93 108.221C157.119 98.9816 157.004 88.6211 156.385 87.64C155.221 86.702 137.986 84.2547 127.109 82.8963L119.504 102.928C119.453 103.041 119.369 103.136 119.263 103.197L86.5248 121.525C86.4509 121.582 86.3644 121.619 86.273 121.633ZM84.4059 111.326L86.6087 120.285L118.602 102.345L126.312 82.1201C126.359 82.012 126.438 81.9217 126.538 81.8618C126.637 81.8019 126.752 81.7754 126.867 81.7859C135.647 82.864 156.175 85.5592 157.287 86.9931C158.399 88.427 158.147 102.583 158.042 107.725L166.14 108.21C166.717 105.105 169.916 87.3166 168.962 82.7777C167.965 77.991 146.577 73.7863 138.427 72.5681L112.895 67.7813L104.021 97.0626C103.986 97.1757 103.916 97.2741 103.822 97.3429L84.4059 111.326Z" fill="#231F20"/>
<path d="M286.948 159.376C287.014 158.36 286.803 157.344 286.34 156.444C285.883 155.848 285.455 155.23 285.06 154.589C284.525 153.403 284.903 152.002 284.777 150.697C284.661 149.601 284.192 148.577 283.445 147.787C282.773 147.097 281.913 146.622 281.284 145.911C280.235 144.725 279.941 143.064 279.354 141.598C278.504 139.509 277.036 137.747 275.158 136.563C276.291 138.914 273.71 141.954 274.875 144.229C275.252 144.962 275.924 145.501 276.228 146.288C276.889 148.175 274.696 150.212 275.399 152.088C275.745 153.026 276.721 153.565 277.182 154.449C277.791 155.646 277.308 157.101 277.361 158.449C277.555 160.322 278.441 162.047 279.836 163.268C280.654 164.077 281.567 164.767 282.448 165.489C283.497 166.362 283.948 167.279 284.871 165.877C286.161 163.962 286.883 161.704 286.948 159.376Z" fill="#231F20"/>
<path d="M288.123 160.443C287.683 159.041 287.683 157.533 288.123 156.131C288.773 154.6 290.378 153.511 290.567 151.818C290.693 150.74 290.158 149.662 290.368 148.584C290.723 147.568 291.335 146.668 292.14 145.975C293.765 144.144 294.731 141.797 294.878 139.323C295.965 140.652 296.843 142.147 297.48 143.754C297.792 144.56 297.921 145.43 297.856 146.295C297.79 147.161 297.532 147.999 297.102 148.746C296.837 149.075 296.615 149.437 296.441 149.824C296.126 150.902 297.008 151.883 297.49 152.886C297.76 153.461 297.873 154.102 297.816 154.738C297.758 155.374 297.533 155.983 297.165 156.497C296.242 157.683 294.448 158.147 294.018 159.592C293.902 160.129 293.85 160.68 293.861 161.23C293.765 162.188 293.391 163.095 292.789 163.833C292.187 164.57 291.384 165.106 290.483 165.37C289.434 165.64 289.434 165.198 289.214 164.292C288.899 162.945 288.417 161.715 288.123 160.443Z" fill="#231F20"/>
<path d="M284.63 150.084C283.854 147.313 283.581 144.413 282.721 141.664C282.027 139.509 281.175 137.411 280.172 135.389L283.518 136.834C284.644 137.174 285.614 137.916 286.256 138.925C287.126 140.79 285.553 143.238 286.476 145.049C286.896 145.638 287.355 146.197 287.85 146.72C288.276 147.478 288.524 148.328 288.575 149.202C288.626 150.076 288.479 150.95 288.144 151.755C287.913 152.456 286.896 156.132 285.994 155.108C285.637 154.709 285.605 153.178 285.448 152.628C285.165 151.787 284.871 150.946 284.63 150.084Z" fill="#231F20"/>
<path d="M286.224 186.901C285.563 182.373 283.476 166.417 283.455 166.255L284.504 166.115C284.504 166.276 286.601 182.222 287.273 186.739L286.224 186.901Z" fill="#231F20"/>
<path d="M287.483 191.137H286.434C286.434 185.747 288.689 165.101 289.969 163.656L290.745 164.379C289.843 165.608 287.525 184.625 287.483 191.137Z" fill="#231F20"/>
<path d="M288.616 190.124H287.567C288.06 178.566 285.668 154.244 285.647 154.007L286.696 153.889C286.717 154.083 289.109 178.48 288.616 190.124Z" fill="#231F20"/>
<path d="M280.738 173.898H293.179L292.308 188.41C292.296 189.564 291.854 190.669 291.074 191.499C290.294 192.329 289.234 192.821 288.112 192.873H285.752C284.639 192.81 283.591 192.313 282.821 191.484C282.051 190.655 281.618 189.556 281.609 188.41L280.738 173.898Z" fill="#FAF7F7"/>
<path d="M288.154 193.434H285.752C284.502 193.369 283.323 192.818 282.453 191.893C281.582 190.969 281.086 189.739 281.063 188.453L280.193 173.931C280.187 173.854 280.197 173.777 280.222 173.705C280.247 173.632 280.286 173.566 280.337 173.51C280.389 173.454 280.451 173.41 280.52 173.38C280.589 173.351 280.663 173.336 280.738 173.338H293.179C293.253 173.338 293.326 173.353 293.394 173.384C293.461 173.414 293.522 173.458 293.573 173.514C293.623 173.57 293.661 173.636 293.686 173.707C293.71 173.779 293.72 173.855 293.714 173.931L292.843 188.453C292.821 189.739 292.324 190.969 291.454 191.893C290.584 192.818 289.404 193.369 288.154 193.434ZM281.315 174.448L282.144 188.378C282.15 189.382 282.525 190.347 283.194 191.079C283.863 191.811 284.777 192.255 285.752 192.323H288.154C289.129 192.255 290.043 191.811 290.713 191.079C291.382 190.347 291.757 189.382 291.763 188.378L292.602 174.448H281.315Z" fill="#231F20"/>
<path d="M157.444 108.231V115.778H178.172C178.172 115.778 172.591 112.026 166.497 108.792L157.444 108.231Z" fill="#FAF7F7"/>
<path d="M157.455 116.317C157.318 116.318 157.187 116.263 157.088 116.166C157.037 116.116 156.997 116.055 156.97 115.988C156.943 115.922 156.93 115.85 156.931 115.778V108.231C156.932 108.158 156.948 108.086 156.976 108.019C157.005 107.952 157.047 107.891 157.098 107.841C157.15 107.791 157.211 107.752 157.278 107.726C157.345 107.701 157.416 107.689 157.487 107.692L166.55 108.231C166.622 108.241 166.693 108.263 166.759 108.296C172.812 111.53 178.424 115.271 178.476 115.303C178.571 115.366 178.644 115.459 178.683 115.568C178.723 115.677 178.727 115.796 178.695 115.908C178.663 116.019 178.597 116.117 178.506 116.187C178.416 116.257 178.306 116.295 178.193 116.295H157.466L157.455 116.317ZM157.98 108.77V115.239H176.378C174.333 113.923 170.452 111.498 166.361 109.331L157.98 108.77Z" fill="#231F20"/>
<path d="M83.8082 111.143L77.011 113.482C77.011 113.482 83.3047 133.966 85.0879 132.942C86.8711 131.918 86.2313 121.083 86.2313 121.083L83.8082 111.143Z" fill="#FAF7F7"/>
<path d="M84.9829 133.524C84.8681 133.523 84.7544 133.501 84.6472 133.459C82.4864 132.586 77.9024 118.064 76.5493 113.644C76.5091 113.508 76.5216 113.361 76.5841 113.235C76.6467 113.108 76.7545 113.011 76.885 112.964L83.6402 110.593C83.7058 110.561 83.7775 110.544 83.85 110.544C83.9225 110.544 83.9941 110.561 84.0598 110.593C84.1875 110.668 84.2816 110.792 84.322 110.938L86.7766 120.932C86.9549 123.638 87.322 132.241 85.3815 133.373C85.2643 133.459 85.1266 133.512 84.9829 133.524ZM77.7031 113.816C80.378 122.495 83.7346 131.562 84.9514 132.403C85.822 131.562 86.0003 125.999 85.7486 121.126L83.4409 111.8L77.7031 113.816Z" fill="#231F20"/>
<path d="M109.822 21.3896L105.626 33.9927L119.714 40.871L111.322 68.1794L144.532 73.0847L146.242 48.795L158.965 53.2261L163.591 40.8279C163.591 40.8279 144.395 31.6209 136.948 29.6479C129.5 27.675 109.822 21.3896 109.822 21.3896Z" fill="#4B8AB9"/>
<path d="M150.312 11.5258C151.191 10.2084 151.564 8.60312 151.361 7.01937C151.067 5.48841 150.215 4.13071 148.979 3.22445C147.731 2.32827 146.293 1.75165 144.784 1.54261C142.368 1.09371 139.875 1.50039 137.714 2.69618C136.646 3.29916 135.73 4.14858 135.037 5.17754C134.343 6.2065 133.891 7.38689 133.717 8.62575C133.225 8.40082 132.685 8.30947 132.149 8.36044C131.613 8.41141 131.098 8.60298 130.654 8.91684C128.074 10.5017 127.329 14.1456 128.021 17.1643C128.225 18.1612 128.632 19.102 129.217 19.9243C129.803 20.6463 130.514 21.2496 131.315 21.7032C134.85 23.8594 139.77 23.8594 142.738 20.9269C144.333 19.3637 144.626 16.884 146.084 15.3855C147.542 13.8869 149.189 13.2832 150.312 11.5258Z" fill="#FAF7F7"/>
<path d="M136.853 23.751C134.829 23.7487 132.84 23.2024 131.084 22.1662C130.174 21.6803 129.384 20.9881 128.774 20.1419C128.163 19.2958 127.748 18.3179 127.559 17.2824C126.878 14.3068 127.486 10.2747 130.444 8.45271C131.305 7.88464 132.347 7.68356 133.35 7.8921C133.628 6.69943 134.145 5.57934 134.867 4.60305C135.59 3.62677 136.502 2.81565 137.545 2.22127C139.812 0.962355 142.428 0.536363 144.962 1.01379C146.542 1.23368 148.046 1.84408 149.346 2.79267C150.691 3.78176 151.614 5.26372 151.927 6.93259C152.162 8.64913 151.758 10.3938 150.794 11.8164C150.082 12.8348 149.193 13.7085 148.171 14.3931C147.592 14.805 147.045 15.2627 146.535 15.7623C145.899 16.4971 145.398 17.3446 145.056 18.2635C144.617 19.3924 143.976 20.4271 143.168 21.3145C141.455 22.9462 139.187 23.8212 136.853 23.751ZM132.605 8.87317C132.034 8.89407 131.478 9.0648 130.99 9.3691C128.483 10.9216 127.99 14.4254 128.598 17.0344C128.78 17.9584 129.155 18.8305 129.699 19.5895C130.228 20.2602 130.88 20.817 131.619 21.2282C135.185 23.3844 139.822 23.0826 142.413 20.5383C143.127 19.7439 143.689 18.8186 144.07 17.8107C144.469 16.7785 145.04 15.8262 145.759 14.9968C146.308 14.4584 146.897 13.9646 147.521 13.5198C148.442 12.9111 149.246 12.1325 149.892 11.2234C150.696 10.0236 151.043 8.56168 150.867 7.11586C150.594 5.71929 149.814 4.48193 148.685 3.65515C147.519 2.81294 146.174 2.26956 144.762 2.07034C142.467 1.64247 140.098 2.02228 138.038 3.14844C137.036 3.71543 136.174 4.51396 135.523 5.48117C134.871 6.44837 134.447 7.55785 134.283 8.72224C134.278 8.81072 134.249 8.89612 134.202 8.9699C134.154 9.04369 134.088 9.10327 134.011 9.1427C133.934 9.18248 133.85 9.20321 133.764 9.20321C133.678 9.20321 133.594 9.18248 133.517 9.1427C133.24 8.97486 132.926 8.88212 132.605 8.87317Z" fill="#231F20"/>
<path d="M141.081 27.6533L140.797 33.378C140.797 33.378 139.948 35.9547 136.266 34.8658C132.584 33.7769 132.144 31.1248 132.144 31.1248L133.035 20.4731C133.035 20.4731 135.448 18.9422 134.881 12.7539C138.498 13.9925 142.308 14.5299 146.116 14.3387C146.033 17.6534 145.774 20.9609 145.339 24.2465C144.773 27.1897 141.081 27.6533 141.081 27.6533Z" fill="#FAF7F7"/>
<path d="M137.934 35.6746C137.319 35.6654 136.708 35.5675 136.119 35.3835C132.165 34.2192 131.64 31.3406 131.619 31.2113C131.614 31.1683 131.614 31.1248 131.619 31.0819L132.522 20.4302C132.527 20.347 132.551 20.2663 132.593 20.195C132.635 20.1236 132.693 20.0638 132.763 20.0206C132.763 20.0206 134.861 18.5112 134.368 12.808C134.359 12.7183 134.373 12.6279 134.408 12.5451C134.442 12.4623 134.496 12.3897 134.565 12.3339C134.634 12.2781 134.715 12.241 134.802 12.2259C134.888 12.2108 134.977 12.2182 135.06 12.2474C138.607 13.4559 142.341 13.9821 146.074 13.7999C146.147 13.7944 146.22 13.805 146.289 13.8311C146.358 13.8571 146.42 13.8979 146.473 13.9508C146.528 14.0004 146.571 14.0618 146.6 14.1308C146.629 14.1998 146.643 14.2746 146.64 14.3497C146.563 17.6973 146.301 21.0377 145.854 24.3545C145.34 27.0282 142.707 27.8691 141.584 28.1063L141.322 33.3998C141.332 33.4496 141.332 33.5009 141.322 33.5507C141.041 34.222 140.564 34.7869 139.957 35.1674C139.35 35.5479 138.643 35.7251 137.934 35.6746ZM132.689 31.0927C132.784 31.4592 133.392 33.4537 136.424 34.327C139.287 35.1679 140.147 33.5831 140.294 33.2489L140.577 27.6104C140.584 27.4836 140.634 27.3632 140.718 27.2705C140.803 27.1778 140.916 27.1187 141.039 27.1037C141.039 27.1037 144.364 26.6509 144.847 24.1281C145.268 21.0729 145.517 17.9952 145.591 14.9103C142.172 15.0128 138.76 14.5394 135.49 13.5088C135.742 18.2956 134.168 20.193 133.56 20.7429L132.689 31.0927Z" fill="#231F20"/>
<path d="M133.958 20.0199C133.81 19.4288 133.487 18.8993 133.035 18.5038C132.582 18.1082 132.022 17.8658 131.43 17.8098C131.146 17.7784 130.858 17.8179 130.592 17.9248C130.325 18.0318 130.088 18.2031 129.899 18.4243C129.672 18.8301 129.545 19.2867 129.528 19.7545C129.512 20.2223 129.607 20.6871 129.805 21.1088C130.087 21.8636 130.649 22.4723 131.368 22.8014C132.097 23.1087 132.914 23.1087 133.644 22.8014" fill="#FAF7F7"/>
<path d="M132.605 23.6005C132.121 23.6036 131.642 23.5007 131.199 23.2986C130.778 23.1071 130.397 22.8312 130.08 22.4869C129.763 22.1426 129.516 21.7369 129.353 21.2933C129.12 20.7811 129.015 20.2176 129.046 19.6531C129.077 19.0886 129.244 18.5409 129.532 18.059C129.773 17.7676 130.079 17.5407 130.424 17.398C130.77 17.2553 131.144 17.2009 131.514 17.2397C132.219 17.3069 132.885 17.597 133.423 18.0701C133.96 18.5432 134.341 19.1759 134.514 19.881C134.539 20.0208 134.51 20.1652 134.434 20.2838C134.358 20.4024 134.24 20.486 134.105 20.5171C134.037 20.5328 133.967 20.5343 133.899 20.5215C133.831 20.5086 133.766 20.4818 133.708 20.4425C133.65 20.4032 133.601 20.3523 133.563 20.2929C133.525 20.2335 133.499 20.1667 133.486 20.0966C133.358 19.6127 133.088 19.1811 132.712 18.8608C132.337 18.5405 131.875 18.3471 131.388 18.307C131.194 18.291 130.998 18.3206 130.817 18.3934C130.635 18.4662 130.472 18.5804 130.339 18.7275C130.173 19.061 130.086 19.4306 130.086 19.8056C130.086 20.1805 130.173 20.5501 130.339 20.8837C130.451 21.1929 130.621 21.4761 130.841 21.7164C131.061 21.9568 131.325 22.1495 131.618 22.2832C131.912 22.4168 132.228 22.4887 132.549 22.4946C132.87 22.5005 133.188 22.4403 133.486 22.3175C133.551 22.2916 133.62 22.2791 133.689 22.2807C133.759 22.2824 133.827 22.2983 133.891 22.3274C133.954 22.3565 134.011 22.3982 134.059 22.4502C134.106 22.5022 134.143 22.5634 134.168 22.6302C134.193 22.6953 134.206 22.7649 134.205 22.835C134.204 22.905 134.189 22.9742 134.162 23.0384C134.134 23.1026 134.095 23.1606 134.046 23.209C133.996 23.2574 133.938 23.2952 133.874 23.3202C133.473 23.4984 133.042 23.5937 132.605 23.6005Z" fill="#231F20"/>
<path d="M140.829 22.2738C140.475 22.2784 140.122 22.2313 139.78 22.1336C139.713 22.116 139.65 22.085 139.595 22.0424C139.54 21.9998 139.494 21.9465 139.459 21.8854C139.423 21.8243 139.4 21.7567 139.391 21.6864C139.381 21.6161 139.385 21.5446 139.403 21.476C139.439 21.3392 139.527 21.2228 139.647 21.1521C139.767 21.0815 139.909 21.0623 140.042 21.0986C140.427 21.2058 140.833 21.2058 141.217 21.0986C140.879 20.0596 140.391 19.0784 139.77 18.1877C139.724 18.1293 139.69 18.0618 139.672 17.9893C139.653 17.9169 139.649 17.8412 139.66 17.7671C139.671 17.6929 139.697 17.622 139.736 17.5589C139.776 17.4957 139.828 17.4417 139.888 17.4003C139.949 17.3588 140.018 17.3309 140.09 17.3183C140.162 17.3056 140.235 17.3085 140.306 17.3269C140.377 17.3452 140.443 17.3785 140.501 17.4246C140.558 17.4707 140.606 17.5287 140.64 17.5948C142.801 20.9585 142.256 21.5622 142.056 21.7886C141.893 21.9487 141.701 22.074 141.49 22.1573C141.279 22.2406 141.055 22.2802 140.829 22.2738Z" fill="#231F20"/>
<path d="M141.081 27.6538C139.627 27.5799 138.202 27.2136 136.885 26.5757C137.165 27.5926 137.665 28.5312 138.348 29.321C139.031 30.1108 139.879 30.7314 140.829 31.1361L141.081 27.6538Z" fill="#231F20"/>
<path d="M140.85 31.6322H140.682C139.651 31.197 138.73 30.5263 137.988 29.6707C137.247 28.8152 136.704 27.7974 136.402 26.6944C136.377 26.5886 136.384 26.4773 136.421 26.3753C136.458 26.2732 136.525 26.1853 136.612 26.123C136.698 26.0599 136.801 26.0259 136.906 26.0259C137.011 26.0259 137.114 26.0599 137.2 26.123C138.422 26.7437 139.752 27.1101 141.112 27.2011C141.181 27.2052 141.248 27.2233 141.309 27.2544C141.371 27.2856 141.426 27.329 141.471 27.3823C141.516 27.4355 141.55 27.4975 141.571 27.5645C141.592 27.6315 141.6 27.7023 141.595 27.7725L141.374 31.2117C141.371 31.2941 141.349 31.3745 141.308 31.4459C141.268 31.5173 141.212 31.5776 141.144 31.6214C141.049 31.6556 140.947 31.6593 140.85 31.6322ZM137.85 27.5785C138.407 28.7263 139.293 29.6709 140.388 30.2845L140.525 28.1283C139.618 28.0331 138.722 27.849 137.85 27.5785Z" fill="#231F20"/>
<path d="M138.429 16.108C138.502 15.7102 138.373 15.3508 138.14 15.305C137.906 15.2593 137.657 15.5447 137.584 15.9425C137.51 16.3402 137.639 16.6996 137.873 16.7453C138.106 16.7911 138.355 16.5057 138.429 16.108Z" fill="#231F20"/>
<path d="M143.135 16.9693C143.209 16.5716 143.079 16.2121 142.846 16.1664C142.613 16.1207 142.364 16.4061 142.29 16.8038C142.216 17.2015 142.346 17.561 142.579 17.6067C142.812 17.6524 143.061 17.367 143.135 16.9693Z" fill="#231F20"/>
<path d="M136.497 22.0693C136.497 22.0693 138.091 25.3899 142.056 23.5463L136.497 22.0693Z" fill="#FAF7F7"/>
<path d="M139.79 24.6453C139.017 24.6321 138.262 24.4087 137.6 23.9977C136.939 23.5868 136.395 23.003 136.025 22.3059C135.965 22.1781 135.956 22.0317 135.999 21.8971C136.042 21.7625 136.134 21.6502 136.255 21.5835C136.317 21.5522 136.385 21.5338 136.454 21.5294C136.522 21.5249 136.592 21.5345 136.657 21.5575C136.722 21.5806 136.782 21.6166 136.834 21.6636C136.886 21.7107 136.928 21.7677 136.958 21.8315C137.021 21.9609 138.406 24.6561 141.846 23.0497C141.91 23.0154 141.979 22.9948 142.05 22.9892C142.122 22.9835 142.194 22.993 142.261 23.0169C142.329 23.0408 142.391 23.0787 142.444 23.1283C142.497 23.1779 142.539 23.2381 142.569 23.3052C142.598 23.3723 142.614 23.4449 142.615 23.5184C142.616 23.592 142.603 23.6651 142.575 23.733C142.548 23.801 142.507 23.8625 142.456 23.9137C142.404 23.9649 142.343 24.0048 142.276 24.0308C141.501 24.4181 140.652 24.6278 139.79 24.6453Z" fill="#231F20"/>
<path d="M172.612 21.9616C172.612 21.9616 176.252 21.8106 175.811 22.8672C175.371 23.9237 173.713 24.107 173.713 24.107C173.713 24.107 175.675 24.0315 174.941 25.4438" fill="#FAF7F7"/>
<path d="M174.972 25.9715C174.885 25.9744 174.799 25.9559 174.721 25.9176C174.6 25.8472 174.511 25.7314 174.471 25.5946C174.432 25.4579 174.446 25.3108 174.511 25.1845C174.626 24.9581 174.616 24.8503 174.605 24.8395C174.595 24.8287 174.112 24.6239 173.755 24.6347C173.687 24.6396 173.617 24.6306 173.552 24.6081C173.487 24.5856 173.426 24.55 173.374 24.5035C173.269 24.4094 173.204 24.2763 173.194 24.1333C173.185 23.9904 173.23 23.8493 173.322 23.7411C173.413 23.633 173.543 23.5666 173.682 23.5566C174.295 23.5066 174.865 23.2172 175.276 22.748C174.417 22.5029 173.522 22.4153 172.633 22.4892C172.494 22.4892 172.361 22.4324 172.262 22.3314C172.164 22.2303 172.109 22.0931 172.109 21.9502C172.109 21.8072 172.164 21.6701 172.262 21.569C172.361 21.4679 172.494 21.4111 172.633 21.4111C173.756 21.4111 175.728 21.4111 176.263 22.1874C176.349 22.315 176.402 22.464 176.415 22.6192C176.428 22.7745 176.401 22.9305 176.336 23.0714C176.148 23.5226 175.824 23.9002 175.413 24.1495L175.539 24.322C175.659 24.5416 175.716 24.7913 175.705 25.0428C175.694 25.2943 175.615 25.5376 175.476 25.7451C175.421 25.828 175.345 25.8932 175.256 25.9333C175.167 25.9734 175.068 25.9866 174.972 25.9715Z" fill="#231F20"/>
<path d="M116.944 50.2936H116.787C116.655 50.2492 116.545 50.1527 116.482 50.0254C116.419 49.8981 116.408 49.7502 116.451 49.6144C116.588 49.1508 121.266 33.8525 121.266 33.8525L122.262 34.176L117.448 49.9379C117.411 50.0438 117.342 50.1351 117.252 50.1989C117.161 50.2627 117.054 50.2958 116.944 50.2936Z" fill="#231F20"/>
<path d="M147.375 159.657H161.682V164.282H140.567V160.735C140.511 159.822 140.641 158.907 140.95 158.049C141.259 157.191 141.74 156.409 142.361 155.754C143.735 154.374 145.948 153.209 149.452 151.937C154.424 150.137 155.966 149.08 155.966 147.312C155.966 145.544 154.298 144.552 151.581 144.552C148.329 144.552 146.336 146.072 146.074 148.865L140.147 148.477C140.567 143.151 144.91 139.938 151.581 139.938C157.717 139.938 161.934 143.043 161.934 147.312C161.934 150.805 159.312 153.209 153.668 155.301C149.126 156.961 148.424 157.306 147.868 157.942C147.671 158.175 147.525 158.449 147.44 158.744C147.355 159.04 147.333 159.351 147.375 159.657Z" fill="#231F20"/>
</svg>
