<svg width="386" height="386" viewBox="0 0 386 386" fill="none" xmlns="http://www.w3.org/2000/svg">
<circle cx="193" cy="193" r="193" fill="#F7F7F7"/>
<path fill-rule="evenodd" clip-rule="evenodd" d="M236.279 57.2424C236.279 57.2424 272.293 91.0432 266.055 113.372C273.788 121.864 279.187 132.269 281.678 143.483L258.477 148.854C258.053 146.821 257.582 144.704 257.064 142.444C223.32 154.886 207.24 164.422 182.838 185.291C184.44 186.641 185.965 187.899 187.426 189.075L173.218 206.264C165.203 198.95 159.157 189.778 155.557 179.662C133.042 171.153 124.926 124.049 124.926 124.049C124.926 124.049 141.821 121.353 161.386 123.426C172.614 104.999 192.235 93.3665 213.47 92.0592C223.903 71.1599 236.279 57.2424 236.279 57.2424ZM176.756 209.269L191.076 191.944C198.748 197.81 204.807 201.338 211.854 204.251C211.852 204.255 211.851 204.261 211.849 204.265L208.028 215.751C207.624 216.967 208.282 218.281 209.498 218.686C210.714 219.09 212.028 218.432 212.432 217.216L216.188 205.926C217.593 206.436 219.05 206.936 220.576 207.439C238.072 201.055 246.811 195.781 261.003 184.166C261.068 182.704 261.12 181.304 261.157 179.957L280.245 185.338C295.206 247.702 278.897 319.077 272.096 324.354C265.149 329.745 133.192 331.491 118.48 324.354C113.094 321.741 111.796 313.532 114.37 303.634C107.566 295.604 102.651 287.117 100.707 276.881C97.9865 262.561 101.353 246.27 110.159 225.021C111.795 221.075 116.32 219.201 120.267 220.836C124.214 222.472 126.087 226.998 124.451 230.944C116.017 251.296 114.036 264.152 115.906 273.993C116.793 278.663 118.609 282.987 121.48 287.395C129.403 274.545 142.852 262.195 161.441 257.302C167.904 235.389 174.38 227.354 180.979 219.167H180.98C182.183 217.674 183.39 216.176 184.602 214.589C181.837 212.994 179.218 211.214 176.756 209.269ZM279.227 180.229C279.564 179.306 279.882 178.371 280.18 177.425C283.275 167.602 283.944 157.596 282.524 148.051L259.368 153.411C260.617 160.315 261.253 166.694 261.233 175.157L279.227 180.229Z" fill="#4B8AB9"/>
</svg>
