<svg width="228" height="332" viewBox="0 0 228 332" fill="none" xmlns="http://www.w3.org/2000/svg">
<mask id="mask0" mask-type="alpha" maskUnits="userSpaceOnUse" x="0" y="0" width="228" height="332">
<path fill-rule="evenodd" clip-rule="evenodd" d="M166.548 0C166.548 0 210.493 41.2439 202.88 68.49C212.316 78.8519 218.905 91.5482 221.944 105.232L193.634 111.785C193.117 109.304 192.542 106.721 191.909 103.963C150.735 119.145 131.115 130.782 101.339 156.246C103.293 157.893 105.154 159.429 106.937 160.863L89.6006 181.838C79.8199 172.913 72.4426 161.721 68.0504 149.377C40.5772 138.994 30.6738 81.5178 30.6738 81.5178C30.6738 81.5178 51.2892 78.2282 75.1625 80.7571C88.8631 58.2728 112.805 44.0788 138.717 42.4837C151.447 16.9821 166.548 0 166.548 0ZM93.9175 185.505L111.391 164.363C120.753 171.522 128.145 175.826 136.745 179.381C136.742 179.386 136.74 179.393 136.738 179.399L132.076 193.413C131.583 194.897 132.386 196.501 133.87 196.994C135.354 197.488 136.956 196.685 137.45 195.201L142.032 181.425C143.747 182.047 145.525 182.658 147.387 183.27C168.736 175.481 179.399 169.046 196.717 154.873C196.796 153.09 196.859 151.381 196.904 149.738L220.196 156.303C238.452 232.4 218.551 319.492 210.252 325.931C201.775 332.509 40.76 334.641 22.809 325.931C16.2371 322.743 14.6529 312.726 17.7929 300.648C9.49183 290.85 3.49423 280.495 1.12144 268.004C-2.19776 250.531 1.91058 230.653 12.6555 204.725C14.6512 199.909 20.1731 197.623 24.9889 199.618C29.8047 201.615 32.0908 207.137 30.0949 211.952C19.8034 236.786 17.3865 252.472 19.6675 264.481C20.7499 270.179 22.9658 275.455 26.4692 280.833C36.1374 265.155 52.5474 250.084 75.2299 244.114C83.1156 217.376 91.0183 207.572 99.0705 197.582H99.0714C100.539 195.76 102.013 193.932 103.491 191.996C100.117 190.049 96.9212 187.877 93.9175 185.505ZM218.954 150.069C219.364 148.943 219.752 147.802 220.116 146.648C223.892 134.662 224.709 122.452 222.977 110.805L194.721 117.345C196.246 125.77 197.021 133.554 196.997 143.88L218.954 150.069Z" fill="#F7F7F7"/>
</mask>
<g mask="url(#mask0)">
<circle cx="113.5" cy="165.5" r="235.5" fill="#4B8AB9"/>
</g>
</svg>
