<svg width="50" height="72" viewBox="0 0 50 72" fill="none" xmlns="http://www.w3.org/2000/svg">
<path fill-rule="evenodd" clip-rule="evenodd" d="M36.0137 0C36.0137 0 45.5161 8.91842 43.87 14.81C45.9104 17.0506 47.335 19.796 47.9922 22.7549L41.8706 24.1719C41.7588 23.6355 41.6345 23.0769 41.4977 22.4805C32.5943 25.7635 28.3517 28.2797 21.9131 33.786C22.3357 34.1421 22.738 34.4742 23.1236 34.7844L19.3749 39.3198C17.2599 37.39 15.6647 34.97 14.7149 32.3007C8.77424 30.0556 6.63278 17.6271 6.63278 17.6271C6.63278 17.6271 11.0906 16.9157 16.2528 17.4626C19.2154 12.6007 24.3925 9.53142 29.9955 9.18651C32.7482 3.67215 36.0137 0 36.0137 0ZM20.3083 40.1127L24.0867 35.5413C26.111 37.0892 27.7096 38.0199 29.5691 38.7885L29.5677 38.7924L28.5596 41.8229C28.4529 42.1438 28.6266 42.4905 28.9474 42.5973C29.2683 42.704 29.6149 42.5303 29.7216 42.2095L30.7125 39.2306C31.0832 39.3651 31.4677 39.4972 31.8704 39.6296C36.4868 37.9454 38.7925 36.5538 42.5372 33.489C42.5543 33.1035 42.568 32.734 42.5778 32.3787L47.6142 33.7984C51.5618 50.2532 47.2585 69.0857 45.464 70.4781C44.5426 71.1931 35.2871 71.6651 25.8157 71.7186C16.4448 71.7715 6.86261 71.4147 4.93212 70.4781C3.51105 69.7886 3.16849 67.6227 3.84747 65.011C2.05247 62.8922 0.755577 60.653 0.242496 57.9521C-0.475234 54.1738 0.413136 49.8754 2.73656 44.2689C3.16812 43.2275 4.36216 42.7332 5.40349 43.1647C6.44484 43.5964 6.93918 44.7904 6.5076 45.8317C4.28221 51.2016 3.75959 54.5936 4.25282 57.1902C4.48687 58.4224 4.96604 59.5633 5.72358 60.7263C7.81421 57.3359 11.3626 54.0772 16.2674 52.7863C17.9726 47.0045 19.6814 44.8845 21.4226 42.7242C21.74 42.3303 22.0588 41.9352 22.3784 41.5163C21.6489 41.0955 20.9579 40.6259 20.3083 40.1127ZM47.3456 32.4503C47.4344 32.2068 47.5183 31.9601 47.5969 31.7105C48.4135 29.1188 48.5901 26.4785 48.2155 23.9601L42.1057 25.3743C42.4353 27.1959 42.6031 28.8791 42.5978 31.112L47.3456 32.4503Z" fill="#4B8AB9"/>
</svg>
