<svg width="888" height="888" viewBox="0 0 888 888" fill="none" xmlns="http://www.w3.org/2000/svg">
<path fill-rule="evenodd" clip-rule="evenodd" d="M444 888C689.214 888 888 689.214 888 444C888 198.786 689.214 0 444 0C198.786 0 0 198.786 0 444C0 689.214 198.786 888 444 888ZM612.513 261.102C626.865 209.734 544.014 131.975 544.014 131.975C544.014 131.975 515.543 163.992 491.542 212.071C442.69 215.079 397.551 241.839 371.721 284.23C326.711 279.462 287.844 285.664 287.844 285.664C287.844 285.664 306.515 394.028 358.312 413.603C366.593 436.876 380.501 457.976 398.941 474.802L431.626 435.258C428.265 432.553 424.757 429.658 421.072 426.553C477.21 378.544 514.201 356.605 591.829 327.981C593.021 333.181 594.105 338.052 595.081 342.728L648.455 330.373C642.725 304.575 630.303 280.638 612.513 261.102ZM440.024 441.857L407.08 481.716C412.743 486.189 418.769 490.284 425.129 493.954C422.378 497.558 419.636 500.962 416.904 504.352L416.797 504.485H416.795L416.794 504.487C401.613 523.321 386.714 541.806 371.848 592.216C329.083 603.471 298.144 631.884 279.916 661.444C273.311 651.304 269.134 641.356 267.093 630.613C262.792 607.974 267.349 578.399 286.752 531.579C290.515 522.5 286.205 512.089 277.126 508.325C268.046 504.563 257.635 508.873 253.873 517.953C233.615 566.835 225.869 604.313 232.127 637.256C236.601 660.805 247.908 680.329 263.559 698.802C257.639 721.573 260.626 740.458 273.016 746.469C306.86 762.889 610.429 758.871 626.411 746.469C642.057 734.329 679.578 570.129 645.159 426.661L601.247 414.283C601.161 417.381 601.042 420.602 600.893 423.964C568.243 450.685 548.139 462.818 507.889 477.503C504.378 476.348 501.025 475.197 497.794 474.024L489.154 499.997C488.223 502.794 485.202 504.309 482.404 503.378C479.607 502.447 478.092 499.424 479.023 496.627L487.812 470.204C487.815 470.197 487.817 470.189 487.82 470.181C487.821 470.177 487.823 470.173 487.825 470.17C471.611 463.468 457.674 455.353 440.024 441.857ZM645.008 408.456C644.323 410.633 643.591 412.784 642.817 414.907L601.421 403.239C601.467 383.77 600.005 369.094 597.13 353.212L650.402 340.881C653.667 362.839 652.128 385.86 645.008 408.456Z" fill="#4B8AB9"/>
</svg>
