<svg width="19" height="60" viewBox="0 0 19 60" fill="none" xmlns="http://www.w3.org/2000/svg">
<path d="M17.6107 47.7273V57.2727C17.6107 58.0114 17.3414 58.6506 16.8026 59.1903C16.2639 59.7301 15.6259 60 14.8886 60H4.00026C3.26302 60 2.62503 59.7301 2.08628 59.1903C1.54754 58.6506 1.27816 58.0114 1.27816 57.2727L1.27816 47.7273C1.27816 46.9886 1.54754 46.3494 2.08628 45.8097C2.62503 45.2699 3.26302 45 4.00026 45H14.8886C15.6259 45 16.2639 45.2699 16.8026 45.8097C17.3414 46.3494 17.6107 46.9886 17.6107 47.7273ZM18.8867 2.72727L17.6958 35.4545C17.6674 36.1932 17.3768 36.8324 16.8239 37.3722C16.2709 37.9119 15.6259 38.1818 14.8886 38.1818H4.00026C3.26302 38.1818 2.61794 37.9119 2.06502 37.3722C1.51209 36.8324 1.22145 36.1932 1.1931 35.4545L0.00218117 2.72727C-0.026174 1.98864 0.221934 1.34943 0.746504 0.809659C1.27107 0.269886 1.90198 0 2.63921 0L16.2497 0C16.9869 0 17.6178 0.269886 18.1424 0.809659C18.667 1.34943 18.9151 1.98864 18.8867 2.72727Z" fill="#4B8AB9"/>
</svg>
