<svg width="78" height="60" viewBox="0 0 78 60" fill="none" xmlns="http://www.w3.org/2000/svg">
<path d="M36.9101 29.3568C37.8486 30.2239 39.377 30.2239 40.329 29.3568L54.9294 15.9745C59.1661 12.084 58.9248 5.63901 54.1786 2.05322C50.0492 -1.07555 43.8953 -0.513078 40.1144 2.95553L38.6128 4.32656L37.1246 2.96724C33.3438 -0.513078 27.1899 -1.07555 23.0604 2.05322C18.3277 5.63901 18.0729 12.084 22.3096 15.9745L36.9101 29.3568ZM75.7911 38.4501C74.209 37.1963 71.7421 37.2783 70.0796 38.4501L57.6913 47.1099C56.1763 48.1763 54.2859 48.7505 52.3284 48.7505H36.4677C35.2878 48.7505 34.3225 47.9068 34.3225 46.8755C34.3225 45.8443 35.2878 45.0006 36.4677 45.0006H46.9655C49.0973 45.0006 51.0816 43.7233 51.4301 41.8836C51.8726 39.5399 49.8079 37.5009 47.1935 37.5009H25.7419C22.1219 37.5009 18.6226 38.5907 15.8071 40.5828L9.57276 45.0006H2.14516C0.965321 45.0006 0 45.8443 0 46.8755L0 58.1251C0 59.1563 0.965321 60 2.14516 60H49.9822C51.9262 60 53.8166 59.4258 55.3451 58.3594L75.6168 44.1804C77.6547 42.7624 77.8156 40.0438 75.7911 38.4501Z" fill="#4B8AB9"/>
</svg>
