<svg width="63" height="51" viewBox="0 0 63 51" fill="none" xmlns="http://www.w3.org/2000/svg">
<path d="M31.4145 10.1161L9.00685 28.5888C9.00685 28.6149 9.00029 28.6533 8.98719 28.7055C8.97436 28.7574 8.96753 28.7951 8.96753 28.8218V47.5274C8.96753 48.2028 9.21446 48.7881 9.70816 49.281C10.2017 49.7742 10.7862 50.0223 11.4617 50.0223H26.4258V35.0574H36.4033V50.0229H51.3673C52.0426 50.0229 52.6279 49.7753 53.1208 49.281C53.6145 48.7887 53.8623 48.203 53.8623 47.5274V28.8218C53.8623 28.7181 53.8481 28.6397 53.823 28.5888L31.4145 10.1161Z" fill="#4B8AB9"/>
<path d="M62.3956 24.3799L53.8616 17.2873V1.38723C53.8616 1.02374 53.7447 0.724814 53.5102 0.490859C53.2776 0.257177 52.9787 0.140336 52.6144 0.140336H45.1322C44.7683 0.140336 44.4695 0.257177 44.2354 0.490859C44.0019 0.724814 43.8852 1.02388 43.8852 1.38723V8.98639L34.3766 1.03616C33.5461 0.360641 32.5587 0.0229492 31.4154 0.0229492C30.2723 0.0229492 29.285 0.360641 28.4537 1.03616L0.433043 24.3799C0.17329 24.5874 0.0309243 24.8667 0.00444397 25.2175C-0.0218998 25.568 0.0688703 25.8741 0.277027 26.1338L2.69315 29.0177C2.90131 29.2513 3.17375 29.3942 3.51158 29.4465C3.82348 29.4727 4.13537 29.3815 4.44727 29.1738L31.4146 6.68711L58.3822 29.1737C58.5905 29.3549 58.8628 29.4454 59.2006 29.4454H59.3177C59.655 29.3941 59.9269 29.2502 60.1362 29.0171L62.5526 26.1336C62.7603 25.8735 62.8513 25.5678 62.8243 25.2169C62.7977 24.8671 62.6548 24.5878 62.3956 24.3799Z" fill="#4B8AB9"/>
</svg>
