<svg width="180" height="180" viewBox="0 0 180 180" fill="none" xmlns="http://www.w3.org/2000/svg">
<path d="M149.67 39.9243L148.896 38.6823C142.47 28.2243 130.842 21.9243 118.584 22.6803C117.018 22.7883 115.452 22.9863 113.904 23.3283C102.762 25.6683 93.0604 34.0023 89.0464 44.6583C86.6704 50.9223 86.0224 58.1403 81.5224 63.1083C75.6904 69.5883 65.7904 69.7863 57.0784 69.5163C48.3484 69.2463 38.4484 69.4803 32.6344 75.9783C28.9984 80.0463 27.8284 85.8423 28.1344 91.2963C28.9084 105.732 39.0964 118.638 52.0384 125.046C64.9984 131.454 80.2444 132.03 94.4284 129.222C114.282 125.262 133.164 114.408 144.522 97.6323C155.88 80.8743 158.742 58.0323 149.67 39.9243Z" fill="#EBEBEB"/>
<path d="M167.274 165.366C167.274 165.42 132.678 165.456 89.9996 165.456C47.3216 165.456 12.7256 165.42 12.7256 165.366C12.7256 165.312 47.3216 165.276 89.9996 165.276C132.678 165.276 167.274 165.312 167.274 165.366Z" fill="#263238"/>
<path d="M53.712 33.2461C55.404 35.2981 56.34 37.9621 56.322 40.6081C56.304 42.1381 56.016 43.8121 56.898 45.0361C57.564 45.9721 58.788 46.4401 59.346 47.4661C59.994 48.6901 59.436 50.2201 59.832 51.5521C60.408 53.4241 62.604 54.2161 63.918 55.6921C65.052 56.9521 65.466 58.8241 65.016 60.4621C64.548 62.1001 63.252 63.4861 61.632 64.0441C60.768 64.3321 59.778 64.4041 58.968 63.9901C58.086 63.5581 57.528 62.6581 57.096 61.7761C56.232 60.0301 48.6 50.6521 48.168 48.7621" fill="#263238"/>
<path d="M48.1684 31.0318C45.0544 30.5278 42.0664 32.5978 40.7524 35.4778C39.4384 38.3398 39.4024 41.6158 39.2944 44.7658C39.2044 47.9158 38.9884 51.2098 37.3684 53.9278C36.3424 55.6558 34.7584 57.1678 34.5244 59.1478C34.2904 60.9298 35.2084 62.7298 34.9024 64.4938C34.6504 66.0238 33.4624 67.3738 33.5164 68.9218C33.5704 70.8118 35.5144 72.2158 37.3864 72.2698C39.2584 72.3238 41.0224 71.3338 42.4804 70.1818C44.8744 68.2738 46.8184 65.8258 48.0964 63.0538" fill="#263238"/>
<path d="M43.0378 38.4659C42.6238 35.1719 45.0178 32.1839 48.3478 31.8599C51.4978 31.5539 54.2878 33.8939 54.7558 37.0259C55.1698 39.7619 55.5298 42.5339 55.5118 43.5419C55.4758 46.5659 53.7118 47.7359 52.9918 48.0959C52.8298 48.1679 52.3618 48.2759 52.1818 48.2939C52.1698 48.2939 52.1698 48.2999 52.1818 48.3119L52.8478 51.7859C53.1538 54.0719 51.8758 56.1059 49.6078 56.4299C47.3218 56.7719 45.5398 55.0079 45.1978 52.7399L43.0378 38.4659Z" fill="#FFBE9D"/>
<path d="M54.1433 38.3581C54.0893 38.4301 53.6933 38.2141 53.1713 38.2861C52.6673 38.3581 52.3253 38.6641 52.2533 38.6101C52.2353 38.5921 52.2713 38.4661 52.4153 38.3221C52.5593 38.1961 52.8293 38.0341 53.1353 37.9801C53.4593 37.9441 53.7473 38.0161 53.9273 38.1241C54.0893 38.2141 54.1613 38.3221 54.1433 38.3581Z" fill="#263238"/>
<path d="M49.5903 39.4564C49.5363 39.5284 49.1403 39.3124 48.6183 39.3844C48.1143 39.4564 47.7723 39.7804 47.7003 39.7264C47.6643 39.7084 47.7183 39.5824 47.8623 39.4384C48.0063 39.2944 48.2583 39.1324 48.5823 39.0964C48.9063 39.0424 49.1943 39.1324 49.3563 39.2224C49.5363 39.3304 49.6083 39.4204 49.5903 39.4564Z" fill="#263238"/>
<path d="M51.4434 42.2101C51.4434 42.1741 51.7494 42.0841 52.2534 41.9401C52.3974 41.9041 52.5054 41.8681 52.5234 41.7601C52.5414 41.6701 52.4694 41.5261 52.3794 41.4001C52.2114 41.1001 52.0314 40.7821 51.8394 40.4461C51.1014 39.1141 50.5434 37.9981 50.5974 37.9621C50.6514 37.9441 51.2994 39.0061 52.0374 40.3381C52.2174 40.6741 52.3914 40.9921 52.5594 41.2921C52.6314 41.4361 52.7394 41.5981 52.7034 41.7961C52.6854 41.9041 52.5954 41.9941 52.5054 42.0121C52.4334 42.0661 52.3614 42.0661 52.2894 42.0841C51.7854 42.1921 51.4614 42.2281 51.4434 42.2101Z" fill="#263238"/>
<path d="M52.1635 48.2939C52.1635 48.2939 50.2195 48.7439 47.5195 47.6279C47.5195 47.6279 48.6895 50.1299 52.3435 49.2299L52.1635 48.2939Z" fill="#EB996E"/>
<path d="M49.3201 38.1244C49.3021 38.2684 48.7801 38.2684 48.1861 38.4304C47.5921 38.5744 47.1241 38.8264 47.0341 38.7184C46.9801 38.6644 47.0521 38.5204 47.2321 38.3584C47.3941 38.1964 47.7001 38.0164 48.0421 37.9264C48.4021 37.8364 48.7441 37.8364 48.9781 37.8904C49.2121 37.9624 49.3381 38.0524 49.3201 38.1244Z" fill="#263238"/>
<path d="M53.7118 37.2242C53.6398 37.3502 53.2798 37.2782 52.8478 37.3322C52.4158 37.3682 52.0738 37.5302 51.9838 37.4222C51.9298 37.3682 51.9658 37.2422 52.1098 37.0982C52.2538 36.9722 52.5058 36.8462 52.7938 36.8102C53.0818 36.7742 53.3518 36.8462 53.5138 36.9362C53.6758 37.0442 53.7478 37.1522 53.7118 37.2242Z" fill="#263238"/>
<path d="M48.4738 40.1219C48.5098 40.3379 48.7258 40.4999 48.9598 40.4639C49.1938 40.4279 49.3558 40.2299 49.3198 39.9959C49.2838 39.7799 49.0678 39.6359 48.8338 39.6539C48.5998 39.6899 48.4378 39.9059 48.4738 40.1219Z" fill="#263238"/>
<path d="M53.0099 39.1318C53.0459 39.3658 53.2619 39.5098 53.4959 39.4918C53.7299 39.4558 53.8919 39.2398 53.8559 39.0238C53.8199 38.8078 53.6039 38.6458 53.3699 38.6818C53.1359 38.7178 52.9739 38.9158 53.0099 39.1318Z" fill="#263238"/>
<path d="M52.2533 43.1999C51.9293 43.1099 51.6413 43.2719 51.5153 43.5239C51.3713 43.7579 51.4073 44.0819 51.6053 44.2799C51.7853 44.4779 52.1273 44.4959 52.3433 44.3339C52.4873 44.2079 52.5593 44.0279 52.5773 43.8479C52.5953 43.6679 52.5773 43.4879 52.4693 43.3439C52.3613 43.2179 52.1633 43.1459 52.0013 43.2179" fill="#EB996E"/>
<path d="M54.3599 34.5776C54.1259 33.4436 53.3339 32.4716 52.3799 31.8056C51.5699 31.2296 50.6159 30.8696 49.6259 30.8336C48.6359 30.7976 47.6279 31.1396 46.9079 31.8236C46.3859 32.3276 46.1159 33.0476 46.0979 33.7676L46.1519 33.2636C46.0079 33.6776 46.0079 34.1276 46.1519 34.5416C46.2419 34.7576 46.3499 34.9736 46.4219 35.1896C46.6739 35.8196 47.1779 36.3596 47.7719 36.6656C48.0599 36.8096 48.3659 36.8996 48.6719 36.8816C48.9959 36.8636 49.3019 36.7376 49.4999 36.4856C49.7699 36.1256 49.7339 35.6396 49.6799 35.1896C49.9499 35.6036 50.2379 36.0536 50.6699 36.2876C51.1019 36.5396 51.7139 36.5396 52.0199 36.1436C52.3259 35.7656 52.1999 35.2076 52.0379 34.7576C52.3079 35.1716 52.7039 35.5136 53.1539 35.7296C53.4059 35.8556 53.7119 35.9276 53.9639 35.8196C54.1799 35.7296 54.3239 35.5136 54.3779 35.2796C54.4319 35.0456 54.4139 34.8116 54.3599 34.5776Z" fill="#263238"/>
<path d="M51.7494 35.5139C51.7314 35.5139 51.7314 35.0819 51.5874 34.4339C51.4614 33.7679 51.1194 32.8499 50.3454 32.1659C49.9674 31.8239 49.5354 31.5899 49.1034 31.4999C48.6714 31.3919 48.2754 31.4099 47.9514 31.4639C47.2854 31.6079 46.9614 31.9139 46.9434 31.8779C46.9434 31.8779 46.9974 31.7879 47.1594 31.6799C47.3214 31.5539 47.5734 31.4279 47.9154 31.3379C48.2574 31.2479 48.6894 31.2299 49.1394 31.3199C49.6074 31.4279 50.0754 31.6799 50.4714 32.0219C51.2994 32.7419 51.6234 33.7319 51.7314 34.3979C51.7854 34.7399 51.7854 35.0279 51.7854 35.2079C51.7854 35.4059 51.7674 35.5139 51.7494 35.5139Z" fill="#455A64"/>
<path d="M84.9064 77.4897L71.0644 71.9997C71.0644 71.9997 63.9904 62.6937 64.1344 62.5137L59.1484 67.9677L66.3844 77.7597L83.1424 81.6837L91.0984 81.7557C90.4684 78.6957 84.9064 77.4897 84.9064 77.4897Z" fill="#FFBE9D"/>
<path d="M54.7384 50.9573L52.8664 50.2373L44.7124 51.2633V52.7033L44.4784 52.7213C44.4784 52.7213 41.9584 53.1893 39.4924 54.6653C36.5224 56.4473 34.9744 59.9033 35.5144 63.3233C35.8564 65.3933 36.4864 67.8953 37.7284 69.3353C40.1044 72.1073 42.2644 68.6873 42.2644 68.6873C42.2644 68.6873 43.7404 72.0713 43.6504 73.6733C43.5784 75.0233 42.9844 77.8133 42.8044 78.6773C42.7684 78.8213 42.8584 78.9653 43.0204 79.0013L60.1924 82.1693L60.2824 77.9753L59.7244 60.7133L58.9684 53.9993C58.9684 53.9993 58.9864 50.7953 54.7384 50.9573Z" fill="#4B8AB9"/>
<path d="M58.6982 52.8828L65.2502 62.3508L59.9762 68.7768L58.6982 52.8828Z" fill="#4B8AB9"/>
<path d="M60.1024 72.7911C60.1024 72.7911 60.0844 72.5751 60.0844 72.1791C60.0844 71.7651 60.0664 71.2071 60.0664 70.5231C60.0304 69.1191 59.9584 67.1751 59.6704 65.0691C59.4004 62.9451 58.9864 61.0371 58.6804 59.6691C58.5184 59.0211 58.3924 58.4631 58.2844 58.0491C58.1944 57.6711 58.1584 57.4551 58.1764 57.4551C58.1764 57.4551 58.2484 57.6531 58.3564 58.0311C58.4824 58.4091 58.6264 58.9671 58.8064 59.6511C59.1484 61.0011 59.5804 62.9091 59.8504 65.0331C60.1384 67.1751 60.1924 69.1191 60.1924 70.5231C60.1924 71.2251 60.1744 71.8011 60.1564 72.1971C60.1384 72.5751 60.1204 72.7911 60.1024 72.7911Z" fill="#263238"/>
<path d="M43.9922 58.4089C43.9922 58.4449 43.4882 58.4269 42.6962 58.4809C41.9042 58.5169 40.8062 58.6249 39.6182 58.8769C38.4122 59.1289 37.3682 59.4529 36.6122 59.7409C35.8742 60.0109 35.4242 60.2089 35.4062 60.1909C35.3882 60.1729 35.4962 60.1189 35.7122 60.0109C35.9102 59.9029 36.1982 59.7589 36.5762 59.6149C37.3142 59.2909 38.3762 58.9309 39.5642 58.6969C40.7702 58.4449 41.8862 58.3549 42.6962 58.3369C43.0922 58.3369 43.4162 58.3549 43.6502 58.3729C43.8662 58.3729 43.9922 58.3909 43.9922 58.4089Z" fill="#FAFAFA"/>
<path d="M59.1661 62.7473C59.1661 62.7653 58.8601 62.8373 58.3561 62.9273C57.8341 62.9993 57.1321 63.0713 56.3401 63.1073C55.5481 63.1253 54.8461 63.1073 54.3241 63.0533C53.8201 63.0173 53.4961 62.9633 53.4961 62.9273C53.4961 62.9093 53.8201 62.9093 54.3421 62.9273C54.8461 62.9273 55.5481 62.9453 56.3401 62.9093C57.1141 62.8913 57.8161 62.8373 58.3381 62.7833C58.8421 62.7473 59.1661 62.7113 59.1661 62.7473Z" fill="#FAFAFA"/>
<path d="M62.1726 58.4628C62.2086 58.4988 61.6326 59.0748 60.7686 59.5968C59.9046 60.1188 59.1306 60.3708 59.1126 60.3348C59.0946 60.2808 59.8326 59.9568 60.6786 59.4348C61.5066 58.9308 62.1366 58.4088 62.1726 58.4628Z" fill="#FAFAFA"/>
<path d="M59.5261 54.0717C59.5621 54.1077 58.7881 54.7917 57.6181 55.2957C56.4481 55.7817 55.4221 55.8537 55.4221 55.8177C55.4041 55.7457 56.4121 55.6017 57.5461 55.1157C58.6801 54.6297 59.4901 54.0177 59.5261 54.0717Z" fill="#FAFAFA"/>
<path d="M59.8863 70.0733C59.8863 70.0733 59.7603 70.1453 59.5443 70.2533C59.3103 70.3613 58.9863 70.4873 58.5723 70.6493C57.7443 70.9373 56.5563 71.2793 55.2243 71.4953C53.8923 71.6933 52.6683 71.7293 51.7863 71.6753C51.3363 71.6573 50.9763 71.6393 50.7423 71.6033C50.4903 71.5673 50.3643 71.5493 50.3643 71.5313C50.3643 71.4953 50.9043 71.5493 51.7863 71.5493C52.6683 71.5673 53.8743 71.5133 55.2063 71.3153C56.5203 71.0993 57.6903 70.7933 58.5363 70.5233C59.3643 70.2533 59.8683 70.0373 59.8863 70.0733Z" fill="#FAFAFA"/>
<path d="M60.0119 74.9509C60.0119 74.9509 59.9639 74.9809 59.8679 75.0409C59.7359 75.1009 59.5799 75.1729 59.3999 75.2569C59.0039 75.4369 58.4279 75.6889 57.6899 75.9589C56.9519 76.2289 56.0699 76.5169 55.0619 76.8049C54.0539 77.0569 52.9559 77.3089 51.7679 77.4889C50.5799 77.6689 49.4459 77.7769 48.4019 77.8309C47.3759 77.8669 46.4399 77.8669 45.6479 77.8309C44.8739 77.7949 44.2439 77.7409 43.7939 77.6689C43.6019 77.6449 43.4399 77.6209 43.3079 77.5969C43.1879 77.5849 43.1279 77.5729 43.1279 77.5609C43.1279 77.5609 43.1879 77.5609 43.3079 77.5609C43.4399 77.5729 43.6079 77.5849 43.8119 77.5969C44.2439 77.6329 44.8739 77.6689 45.6479 77.6869C46.4399 77.7229 47.3759 77.7049 48.4019 77.6509C49.4279 77.5969 50.5619 77.4889 51.7319 77.3089C52.9199 77.1289 54.0179 76.8769 55.0259 76.6249C56.0159 76.3729 56.9159 76.1029 57.6359 75.8329C58.3739 75.5809 58.9679 75.3469 59.3819 75.1849C59.5619 75.1129 59.7179 75.0529 59.8499 75.0049C59.9579 74.9569 60.0119 74.9389 60.0119 74.9509Z" fill="#FAFAFA"/>
<path d="M28.422 151.487L26.478 160.271L22.932 166.787C22.68 167.255 22.878 167.849 23.364 168.065C23.634 168.191 23.94 168.173 24.21 168.029C25.848 167.075 31.914 163.547 32.004 162.881C32.13 162.143 34.686 153.755 34.686 153.755L28.422 151.487Z" fill="#4B8AB9"/>
<g opacity="0.6">
<path d="M23.3643 168.066L32.1663 162.306L32.0583 162.666C31.9863 162.99 31.8063 163.278 31.5363 163.476C30.8163 163.98 28.8003 165.366 24.2283 168.03C23.9763 168.192 23.6343 168.21 23.3643 168.066Z" fill="white"/>
</g>
<g opacity="0.6">
<path d="M31.0496 159.029C30.7976 159.137 30.6536 159.443 30.7256 159.713C30.8156 159.965 31.1396 160.127 31.3916 160.037C31.6616 159.947 31.8416 159.569 31.7336 159.317C31.6256 159.065 31.2296 158.903 31.0136 159.065" fill="white"/>
</g>
<path d="M26.2984 164.736C26.2444 164.754 26.1544 164.25 25.7044 163.872C25.2544 163.476 24.7324 163.494 24.7324 163.422C24.7324 163.404 24.8584 163.368 25.0744 163.386C25.2904 163.404 25.5784 163.512 25.8304 163.71C26.0824 163.926 26.2264 164.196 26.2804 164.394C26.3344 164.61 26.3164 164.736 26.2984 164.736Z" fill="#263238"/>
<path d="M25.3982 165.761C25.3442 165.779 25.1282 165.437 24.7142 165.185C24.3002 164.933 23.8862 164.933 23.8862 164.861C23.8682 164.825 24.3362 164.735 24.8042 165.023C25.2902 165.293 25.4342 165.743 25.3982 165.761Z" fill="#263238"/>
<path d="M27.8277 163.511C27.7737 163.547 27.4497 163.007 26.8377 162.575C26.2257 162.125 25.5957 162.017 25.6137 161.945C25.6137 161.909 26.2797 161.945 26.9457 162.413C27.6117 162.881 27.8817 163.511 27.8277 163.511Z" fill="#263238"/>
<path d="M28.6381 160.901C28.6021 160.937 28.1701 160.613 27.5581 160.451C26.9281 160.253 26.3881 160.289 26.3881 160.235C26.3701 160.181 26.9461 160.055 27.6121 160.253C28.2781 160.451 28.6741 160.865 28.6381 160.901Z" fill="#263238"/>
<path d="M29.2855 158.327C29.2495 158.363 28.8175 157.967 28.1515 157.823C27.4855 157.679 26.9455 157.895 26.9275 157.841C26.9095 157.805 27.0355 157.733 27.2695 157.661C27.4855 157.589 27.8275 157.553 28.1875 157.625C28.5475 157.715 28.8535 157.877 29.0335 158.021C29.2135 158.183 29.3035 158.309 29.2855 158.327Z" fill="#263238"/>
<path d="M28.2962 157.337C28.2782 157.337 28.2962 157.211 28.3682 157.013C28.4222 156.797 28.5662 156.509 28.8362 156.203C28.9622 156.059 29.1242 155.879 29.3942 155.825C29.5202 155.807 29.7002 155.861 29.7722 156.005C29.8622 156.149 29.8442 156.293 29.8262 156.437C29.6822 156.995 29.0702 157.409 28.4222 157.337C27.7742 157.247 27.3062 156.761 27.1622 156.221C27.1442 156.077 27.1442 155.915 27.2522 155.789C27.3422 155.645 27.5402 155.627 27.6662 155.681C27.9182 155.789 28.0442 155.987 28.1702 156.131C28.4042 156.437 28.5302 156.743 28.6022 156.959C28.6562 157.157 28.6742 157.283 28.6562 157.283C28.6202 157.301 28.5482 156.797 28.0622 156.221C27.9362 156.077 27.7922 155.897 27.6122 155.843C27.5222 155.807 27.4322 155.825 27.3782 155.897C27.3242 155.951 27.3242 156.077 27.3422 156.185C27.4682 156.617 27.9002 157.067 28.4402 157.139C28.9802 157.211 29.5202 156.833 29.6462 156.401C29.6642 156.293 29.6642 156.167 29.6282 156.095C29.5922 156.023 29.5022 155.969 29.4122 155.987C29.2322 156.023 29.0702 156.167 28.9442 156.293C28.4042 156.851 28.3322 157.355 28.2962 157.337Z" fill="#263238"/>
<g opacity="0.3">
<path d="M28.2064 152.441L27.7744 154.457L34.1464 155.501L34.6864 153.755L28.4224 151.487L28.2064 152.441Z" fill="#353535"/>
</g>
<path d="M56.8802 154.728L56.3582 161.766C56.3582 161.766 63.3242 164.664 63.3602 165.96L49.6982 165.438L50.0582 154.458L56.8802 154.728Z" fill="#4B8AB9"/>
<g opacity="0.6">
<path d="M52.1641 161.01C51.8941 161.064 51.6961 161.352 51.7501 161.622C51.8041 161.892 52.0921 162.09 52.3621 162.036C52.6321 161.982 52.8661 161.64 52.7941 161.388C52.7041 161.118 52.3621 160.902 52.1101 161.028" fill="white"/>
</g>
<g opacity="0.6">
<path d="M49.6982 165.438L49.7702 164.322L62.8382 165.258C62.8382 165.258 63.4502 165.546 63.3602 165.96L49.6982 165.438Z" fill="white"/>
</g>
<path d="M56.5926 161.694C56.5746 161.766 56.2506 161.784 55.9086 161.982C55.5666 162.18 55.3866 162.468 55.3326 162.432C55.2606 162.414 55.3866 162.018 55.8006 161.784C56.1966 161.55 56.6106 161.64 56.5926 161.694Z" fill="#263238"/>
<path d="M57.9958 162.342C58.0138 162.414 57.7078 162.522 57.4738 162.792C57.2398 163.062 57.1678 163.368 57.0958 163.35C57.0418 163.368 57.0058 162.972 57.3118 162.63C57.5998 162.306 57.9958 162.288 57.9958 162.342Z" fill="#263238"/>
<path d="M58.7518 164.106C58.6798 164.106 58.6078 163.764 58.7878 163.422C58.9678 163.062 59.2918 162.918 59.3098 162.972C59.3458 163.026 59.1478 163.224 59.0038 163.512C58.8418 163.818 58.8058 164.088 58.7518 164.106Z" fill="#263238"/>
<path d="M56.5203 160.092C56.5023 160.146 56.1963 160.038 55.8183 160.056C55.4403 160.056 55.1343 160.164 55.1163 160.11C55.0803 160.056 55.3683 159.822 55.8183 159.822C56.2503 159.804 56.5563 160.038 56.5203 160.092Z" fill="#263238"/>
<g opacity="0.3">
<path d="M56.7898 156.132L56.6818 157.374L49.9678 157.05L50.0218 155.61L56.7898 156.132Z" fill="#353535"/>
</g>
<path d="M56.61 158.67C56.61 158.688 56.34 158.724 55.926 158.634C55.71 158.598 55.476 158.508 55.224 158.382C55.092 158.322 54.96 158.25 54.828 158.166C54.774 158.13 54.702 158.076 54.63 158.004C54.558 157.932 54.522 157.752 54.612 157.644C54.684 157.536 54.81 157.5 54.918 157.5C55.008 157.5 55.098 157.518 55.17 157.536C55.326 157.584 55.464 157.644 55.584 157.716C55.836 157.842 56.052 157.986 56.196 158.148C56.502 158.454 56.61 158.706 56.592 158.724C56.556 158.742 56.412 158.526 56.088 158.274C55.944 158.148 55.728 158.004 55.494 157.896C55.374 157.848 55.248 157.806 55.116 157.77C54.972 157.716 54.846 157.716 54.81 157.77C54.792 157.806 54.792 157.806 54.81 157.86C54.846 157.896 54.9 157.932 54.954 157.986C55.074 158.07 55.194 158.142 55.314 158.202C55.548 158.328 55.782 158.418 55.962 158.472C56.358 158.598 56.61 158.634 56.61 158.67Z" fill="#263238"/>
<path d="M56.5204 158.76C56.5024 158.778 56.3764 158.526 56.3584 158.094C56.3584 157.878 56.3944 157.626 56.4844 157.338C56.5324 157.206 56.5984 157.074 56.6824 156.942C56.7544 156.798 56.8624 156.636 57.1324 156.6C57.2584 156.6 57.3664 156.726 57.4024 156.816C57.4384 156.906 57.4564 156.978 57.4564 157.068C57.4924 157.23 57.4744 157.374 57.4564 157.518C57.4024 157.806 57.2584 158.058 57.1324 158.22C56.8444 158.562 56.5744 158.634 56.5564 158.616C56.5384 158.58 56.7724 158.454 56.9884 158.13C57.0964 157.968 57.2044 157.734 57.2404 157.482C57.2524 157.362 57.2524 157.23 57.2404 157.086C57.2224 156.942 57.1684 156.834 57.1144 156.834C57.0424 156.834 56.9344 156.942 56.8624 157.05C56.7904 157.17 56.7304 157.296 56.6824 157.428C56.5924 157.662 56.5384 157.896 56.5204 158.094C56.5024 158.49 56.5564 158.742 56.5204 158.76Z" fill="#263238"/>
<path d="M42.7315 78.9476C42.7315 78.9476 40.5715 79.0376 39.1315 86.4356C37.7095 93.8156 26.7295 153.684 26.7295 153.684L34.6855 153.756L49.6975 96.8396L48.6895 155.502L56.7895 156.132C56.7895 156.132 62.8555 91.2236 62.9095 87.4436C62.9815 82.7456 60.2815 77.9756 60.2815 77.9756L42.7315 78.9476Z" fill="#263238"/>
<path d="M53.6752 78.3174C53.7292 78.3354 52.9012 82.5474 51.8392 87.7494C50.7592 92.9334 49.8592 97.1454 49.8052 97.1274C49.7512 97.1274 50.5792 92.8974 51.6412 87.7134C52.7212 82.5114 53.6212 78.2994 53.6752 78.3174Z" fill="#455A64"/>
<path d="M54.9177 79.3793C54.8997 79.3433 55.1337 79.2893 55.3857 79.5053C55.4937 79.6133 55.6017 79.7933 55.6017 80.0093C55.6017 80.2433 55.4217 80.4593 55.1877 80.5673C54.9717 80.6573 54.6837 80.6213 54.5217 80.4773C54.3417 80.3153 54.3057 80.1173 54.3057 79.9553C54.3237 79.6313 54.5217 79.5053 54.5217 79.5413C54.5577 79.5593 54.4137 79.6853 54.4317 79.9553C54.4497 80.0813 54.5037 80.2432 54.6297 80.3332C54.7557 80.4412 54.9357 80.4593 55.1157 80.3873C55.2957 80.3153 55.4217 80.1533 55.4217 80.0093C55.4397 79.8473 55.3677 79.7033 55.2957 79.5953C55.1157 79.3973 54.9177 79.3973 54.9177 79.3793Z" fill="#455A64"/>
<path d="M54.575 82.2954C54.575 82.2774 54.791 82.2954 54.917 82.6014C54.971 82.7274 55.007 82.9254 54.899 83.1234C54.809 83.3214 54.557 83.4474 54.323 83.4114C54.071 83.3934 53.855 83.2494 53.783 83.0334C53.711 82.8354 53.765 82.6374 53.837 82.5114C54.017 82.2414 54.251 82.2414 54.233 82.2774C54.251 82.2954 54.071 82.3494 53.963 82.5654C53.909 82.6914 53.891 82.8354 53.945 82.9794C53.999 83.1054 54.161 83.2134 54.323 83.2314C54.503 83.2494 54.683 83.1594 54.755 83.0334C54.827 82.9074 54.827 82.7634 54.791 82.6374C54.737 82.3854 54.557 82.3134 54.575 82.2954Z" fill="#455A64"/>
<path d="M46.9436 79.4516C46.9616 79.4516 46.9256 79.5776 46.8536 79.8116C46.7816 80.0456 46.6376 80.3876 46.4396 80.7656C46.0256 81.5396 45.2516 82.5476 44.1176 83.2856C42.9836 84.0416 41.7776 84.3476 40.8956 84.4196C40.4636 84.4556 40.1036 84.4556 39.8516 84.4196C39.6176 84.4016 39.4736 84.3836 39.4736 84.3656C39.4736 84.3296 40.0136 84.4016 40.8776 84.2936C41.7416 84.1856 42.9116 83.8616 44.0276 83.1236C45.1256 82.4036 45.8816 81.4496 46.3136 80.7116C46.7636 79.9556 46.9076 79.4336 46.9436 79.4516Z" fill="#455A64"/>
<path d="M62.4411 84.6899C62.4231 84.7079 62.3331 84.6539 62.1891 84.5459C62.0451 84.4559 61.8471 84.2759 61.6131 84.0599C61.1631 83.6099 60.6231 82.8719 60.2631 81.9539C59.9031 81.0359 59.8131 80.1359 59.8491 79.4879C59.8671 79.1639 59.9031 78.9119 59.9571 78.7319C59.9931 78.5519 60.0111 78.4619 60.0291 78.4619C60.0651 78.4799 59.9931 78.8579 59.9931 79.4879C59.9931 80.1179 60.1011 80.9999 60.4431 81.8819C60.7851 82.7819 61.2891 83.5019 61.7211 83.9699C62.1351 84.4379 62.4591 84.6719 62.4411 84.6899Z" fill="#455A64"/>
<path d="M39.5822 64.7089L43.1102 64.907C43.3262 66.059 44.1182 67.805 44.1182 67.805C46.9622 62.873 49.1582 56.249 49.7162 53.585C49.6322 53.321 49.5362 53.0269 49.4282 52.7029C49.2842 52.3249 49.3922 51.6049 49.4642 51.2089C49.5542 50.6149 49.7342 49.805 49.7702 49.445C49.9322 48.329 50.1122 48.149 50.5082 48.275C51.0302 48.437 50.2742 51.425 50.7242 51.497C50.9582 51.533 51.2462 50.5069 51.3182 49.6609C51.4082 48.8329 51.7862 46.2409 52.0562 46.0789C52.4702 45.8269 52.8302 46.2229 52.7222 47.0509C52.6142 47.8969 52.4882 50.4169 52.9382 50.4529C53.3702 50.4889 53.7302 46.205 53.7302 46.205C53.7302 46.205 53.6582 45.2869 54.1802 45.3049C55.0982 45.3409 54.3782 49.8589 54.3062 50.2909C54.2522 50.5789 54.7202 50.6329 54.7742 50.3089C54.8102 49.9849 55.0442 46.0249 55.9802 46.0609C56.7002 46.0969 55.4222 49.7869 55.8182 50.6329C56.2322 51.4969 56.5202 47.7349 57.2042 47.7889C57.4562 47.8069 57.6542 47.861 57.1862 49.985C56.9162 51.119 56.1782 53.2249 55.5302 54.9709C54.4322 60.8749 49.6262 79.7569 42.1022 76.3009C37.8902 74.3749 35.9102 64.7989 35.9102 64.7989L39.5822 64.7089Z" fill="#FFBE9D"/>
<path d="M55.5303 54.9712C55.5183 54.9712 55.5303 54.9292 55.5663 54.8452C55.5903 54.7492 55.6323 54.6232 55.6923 54.4672C55.8123 54.1312 55.9743 53.6572 56.1783 53.0452C56.3943 52.4332 56.6463 51.6772 56.8983 50.7772C57.0423 50.3272 57.1503 49.8592 57.2403 49.3372C57.2943 49.0672 57.3303 48.8152 57.3663 48.5272C57.3843 48.4012 57.4023 48.2572 57.3843 48.1312C57.3843 47.9872 57.3483 47.8792 57.2403 47.8612C57.1323 47.8432 57.0603 47.9332 56.9703 48.0592C56.8983 48.1672 56.8443 48.3112 56.7903 48.4552C56.7003 48.7432 56.6103 49.0312 56.5383 49.3372C56.4663 49.6612 56.3943 49.9672 56.2863 50.2912C56.2323 50.4532 56.2143 50.6152 56.0703 50.7952C56.0523 50.8132 56.0343 50.8492 55.9803 50.8492C55.9263 50.8672 55.8903 50.8492 55.8363 50.8132C55.8003 50.7772 55.7643 50.7232 55.7463 50.6872C55.7103 50.5912 55.6863 50.5012 55.6743 50.4172C55.6023 49.6972 55.7643 48.9952 55.8903 48.2572C55.9443 47.8972 56.0163 47.5372 56.0523 47.1592C56.0703 46.9792 56.1063 46.7992 56.1063 46.6192C56.1063 46.4392 56.0703 46.2052 55.9983 46.1872C55.9083 46.1512 55.7463 46.2412 55.6563 46.4032C55.5483 46.5472 55.4763 46.7272 55.4223 46.9072C55.2963 47.2852 55.2063 47.6632 55.1523 48.0592C55.0803 48.4552 55.0203 48.8572 54.9723 49.2652C54.9603 49.4692 54.9423 49.6792 54.9183 49.8952L54.8823 50.2012C54.8823 50.2912 54.8823 50.4712 54.7383 50.5612C54.6303 50.6512 54.4503 50.6692 54.3243 50.5792C54.2523 50.5432 54.1983 50.4532 54.1983 50.3812C54.1803 50.3452 54.1983 50.2912 54.1983 50.2552V50.1832C54.2343 49.9792 54.2703 49.7692 54.3063 49.5532C54.3663 49.1332 54.4143 48.7072 54.4503 48.2752C54.4863 47.8432 54.5223 47.4112 54.5403 46.9792C54.5403 46.5472 54.5223 46.0792 54.3963 45.6832C54.3603 45.5752 54.3063 45.4672 54.2163 45.4312C54.1443 45.3952 54.0363 45.4312 53.9823 45.5032C53.8563 45.6832 53.8383 45.9712 53.8383 46.2052V46.2232C53.7663 47.0692 53.6763 47.8972 53.5503 48.7252C53.4963 49.1212 53.4243 49.5352 53.3163 49.9312C53.2923 50.0272 53.2623 50.1292 53.2263 50.2372C53.1903 50.3272 53.1723 50.4352 53.0283 50.5432C52.9023 50.5972 52.8123 50.5432 52.7583 50.4892C52.7043 50.4352 52.6863 50.3812 52.6683 50.3272C52.6143 50.2192 52.5963 50.1112 52.5783 50.0212C52.4703 49.1932 52.5243 48.4192 52.5603 47.6632C52.5783 47.2672 52.6683 46.8892 52.6143 46.5472C52.5963 46.3852 52.5243 46.2232 52.4163 46.1332C52.3683 46.1092 52.3083 46.1032 52.2363 46.1152C52.2003 46.1272 52.1643 46.1392 52.1283 46.1512C52.1103 46.1872 52.1103 46.1692 52.0923 46.2232C51.9483 46.5112 51.8763 46.8892 51.8043 47.2132C51.7323 47.5612 51.6663 47.9032 51.6063 48.2392C51.5583 48.5872 51.5103 48.9232 51.4623 49.2472C51.4263 49.5712 51.4083 49.8952 51.3363 50.2192C51.2823 50.5432 51.1923 50.8492 51.0843 51.1552C51.0603 51.2272 51.0243 51.2992 50.9763 51.3712C50.9223 51.4432 50.9043 51.5332 50.7603 51.5692C50.6883 51.6052 50.6163 51.5512 50.5803 51.4972C50.5443 51.4612 50.5443 51.4072 50.5263 51.3712C50.5023 51.2872 50.4903 51.2032 50.4903 51.1192C50.4903 50.5072 50.5803 49.9492 50.6163 49.4092C50.6163 49.1392 50.6343 48.8692 50.5983 48.6172C50.5983 48.5092 50.5443 48.3652 50.4903 48.3472C50.3823 48.3112 50.2743 48.2932 50.2023 48.3472C50.0403 48.4552 49.9863 48.7252 49.9323 48.9232C49.8783 49.1572 49.8603 49.3732 49.8063 49.5892C49.6623 50.4352 49.5003 51.1732 49.4283 51.7672C49.3923 52.0732 49.3743 52.3432 49.4103 52.5592C49.4643 52.7752 49.5363 52.9732 49.5723 53.1172C49.6203 53.2612 49.6563 53.3812 49.6803 53.4772C49.7043 53.5492 49.7163 53.5852 49.7163 53.5852C49.7043 53.5852 49.6863 53.5492 49.6623 53.4772C49.6263 53.3932 49.5843 53.2792 49.5363 53.1352C49.4823 52.9732 49.4103 52.8112 49.3563 52.5772C49.3023 52.3432 49.3203 52.0552 49.3383 51.7492C49.4103 51.1552 49.5543 50.4172 49.6983 49.5712C49.7343 49.3552 49.7523 49.1392 49.8063 48.9052C49.8243 48.7792 49.8603 48.6712 49.8963 48.5452C49.9323 48.4372 49.9863 48.3112 50.1123 48.2212C50.2563 48.1312 50.4183 48.1672 50.5443 48.2212C50.7063 48.3112 50.7243 48.4732 50.7423 48.5992C50.7783 48.8692 50.7783 49.1392 50.7603 49.4092C50.7423 49.9672 50.6523 50.5432 50.6703 51.1192C50.6703 51.1912 50.6763 51.2572 50.6883 51.3172C50.7063 51.3892 50.7423 51.4252 50.7243 51.4072C50.7423 51.4072 50.7963 51.3532 50.8323 51.2992C50.8683 51.2272 50.8983 51.1612 50.9223 51.1012C51.0303 50.8132 51.1023 50.5072 51.1563 50.2012C51.2103 49.8772 51.2463 49.5532 51.2823 49.2292C51.3183 48.8932 51.3663 48.5572 51.4263 48.2212C51.4743 47.8732 51.5343 47.5252 51.6063 47.1772C51.6783 46.8352 51.7323 46.4752 51.9123 46.1152C51.9123 46.0792 51.9843 46.0072 52.0383 45.9712C52.0863 45.9472 52.1343 45.9292 52.1823 45.9172C52.2903 45.8812 52.4343 45.8992 52.5243 45.9712C52.7223 46.1152 52.7943 46.3312 52.8303 46.5112C52.8483 46.7092 52.8483 46.9252 52.8123 47.1052C52.8003 47.2972 52.7883 47.4832 52.7763 47.6632C52.7223 48.4192 52.6863 49.2112 52.7943 49.9672C52.8123 50.0752 52.8303 50.1652 52.8663 50.2372C52.8843 50.2732 52.9023 50.3272 52.9203 50.3272C52.9203 50.3452 52.9383 50.3452 52.9383 50.3452C52.9383 50.4352 52.9383 50.3632 52.9383 50.3812C52.9383 50.3632 52.9383 50.3812 52.9203 50.3632C52.9383 50.3452 52.9923 50.2372 53.0283 50.1652C53.0643 50.0692 53.0943 49.9732 53.1183 49.8772C53.2083 49.4992 53.2803 49.0852 53.3343 48.6892C53.4603 47.8792 53.5503 47.0512 53.6223 46.2052V46.2232C53.6223 45.9532 53.6223 45.6652 53.8023 45.3772C53.9103 45.2332 54.1263 45.1612 54.3063 45.2152C54.4863 45.3052 54.5583 45.4852 54.6123 45.6112C54.7563 46.0792 54.7563 46.5292 54.7563 46.9792C54.7563 47.4292 54.7203 47.8612 54.6843 48.2932C54.6363 48.7252 54.5823 49.1572 54.5223 49.5892C54.4863 49.8052 54.4563 50.0152 54.4323 50.2192C54.3963 50.3632 54.3963 50.3632 54.4503 50.3992C54.4863 50.4352 54.5763 50.4352 54.6123 50.3992C54.6483 50.3632 54.6663 50.3092 54.6663 50.1832L54.7023 49.8772C54.7263 49.6612 54.7443 49.4512 54.7563 49.2472C54.8043 48.8392 54.8643 48.4312 54.9363 48.0232C55.0083 47.6272 55.0983 47.2312 55.2243 46.8352C55.2963 46.6552 55.3683 46.4572 55.4763 46.2772C55.5483 46.2052 55.6203 46.1152 55.7103 46.0432C55.8183 45.9892 55.9263 45.9352 56.0883 45.9892C56.2323 46.0792 56.2683 46.2052 56.2863 46.3132C56.2983 46.4092 56.3043 46.5112 56.3043 46.6192C56.3043 46.8172 56.2863 46.9972 56.2503 47.1952C56.2143 47.5732 56.1423 47.9332 56.0703 48.2932C55.9623 49.0132 55.8003 49.7332 55.8543 50.3812C55.8663 50.4652 55.8843 50.5372 55.9083 50.5972C55.9263 50.6332 55.9443 50.6692 55.9623 50.6692C55.9623 50.6692 55.9443 50.6692 55.9443 50.6872C55.9263 50.6692 55.9443 50.6692 55.9443 50.6692C56.0163 50.5792 56.0703 50.3992 56.1243 50.2372C56.2143 49.9312 56.2863 49.6072 56.3763 49.3012C56.4483 48.9952 56.5383 48.6892 56.6463 48.4012C56.7003 48.2572 56.7543 48.1132 56.8443 47.9692C56.8803 47.8972 56.9343 47.8252 57.0063 47.7712C57.0423 47.7532 57.0783 47.7352 57.1323 47.7172C57.1923 47.7052 57.2403 47.7052 57.2763 47.7172C57.3483 47.7172 57.4743 47.7892 57.4923 47.8792C57.5283 47.9692 57.5463 48.0412 57.5463 48.1132C57.5463 48.2752 57.5283 48.4192 57.5103 48.5452C57.4923 48.8332 57.4383 49.1032 57.3843 49.3552C57.2763 49.8772 57.1683 50.3632 57.0243 50.8132C56.7543 51.7132 56.4843 52.4692 56.2683 53.0812C56.0343 53.6932 55.8543 54.1612 55.7283 54.4852C55.6683 54.6412 55.6203 54.7612 55.5843 54.8452C55.5483 54.9292 55.5303 54.9712 55.5303 54.9712Z" fill="#EB996E"/>
<path d="M35.874 65.1231C36.558 67.5351 37.89 71.2611 39.33 75.1851C39.546 75.7611 40.338 75.7971 40.59 75.2571L44.118 67.8051C44.118 67.8051 43.254 61.6851 43.326 61.9011C43.398 62.1171 36.072 62.6931 36.072 62.6931L35.874 65.1231Z" fill="#4B8AB9"/>
<path d="M43.8119 63.9169C43.8119 63.9529 43.3619 64.0789 42.6779 64.3489C41.9759 64.6009 41.0399 65.0329 40.0679 65.6269C39.0959 66.2029 38.2859 66.8509 37.7279 67.3549C37.1699 67.8409 36.8459 68.1829 36.8279 68.1649C36.8099 68.1469 36.8819 68.0569 37.0259 67.8949C37.1519 67.7329 37.3679 67.5169 37.6379 67.2469C38.1779 66.7249 38.9699 66.0589 39.9599 65.4649C40.9499 64.8709 41.9219 64.4569 42.6239 64.2229C42.9839 64.0969 43.2719 64.0249 43.4879 63.9709C43.6859 63.9349 43.8119 63.8989 43.8119 63.9169Z" fill="#FAFAFA"/>
<path d="M45.1984 65.7714C45.1804 65.7894 44.9464 65.5014 44.6224 65.0154C44.2804 64.5114 43.8844 63.7914 43.5244 62.9454C43.1824 62.0994 42.9484 61.2894 42.8404 60.7134C42.7144 60.1194 42.6784 59.7594 42.7144 59.7594C42.7324 59.7414 42.8044 60.1014 42.9664 60.6774C43.1104 61.2534 43.3624 62.0274 43.7044 62.8734C44.0464 63.7014 44.4244 64.4214 44.7304 64.9434C45.0184 65.4474 45.2344 65.7534 45.1984 65.7714Z" fill="#263238"/>
<path d="M47.5562 32.7954C46.3142 34.7934 46.0622 37.3674 46.8722 39.5634C47.2322 40.5534 47.8082 41.5254 47.7002 42.5874C47.5922 43.6494 46.7642 44.6754 47.0522 45.7194C47.2322 46.3314 47.7542 46.7814 47.9702 47.3934C48.2042 48.0954 47.9522 48.8694 47.8442 49.6074C47.5562 51.4974 48.1502 53.3874 48.2942 55.2954C48.4562 57.1854 47.9342 59.4174 46.2422 60.2454C45.7202 60.4974 45.0542 60.5694 44.6222 60.1914C44.0822 59.7054 44.2262 58.8234 44.3882 58.1034C45.8642 50.9034 41.2742 43.8834 42.3182 36.5934C42.4802 35.4234 43.1462 33.4434 43.9742 32.6334C44.8202 31.8054 47.1422 31.9134 47.9342 32.7774" fill="#263238"/>
<path d="M40.4639 53.6756C40.4459 53.6756 40.6799 53.4236 41.0039 52.9196C41.3279 52.3976 41.7239 51.6056 41.9399 50.5616C42.0479 50.0216 42.0839 49.4456 42.0479 48.7976C42.0299 48.1676 41.9399 47.4836 41.9759 46.7636C41.9939 46.3856 42.0659 46.0256 42.1919 45.6476C42.3119 45.2876 42.4739 44.9396 42.6779 44.6036C43.0919 43.9196 43.5959 43.2896 44.0639 42.6056C44.5319 41.9216 44.9099 41.2196 45.0359 40.4636C45.1619 39.7076 45.0359 38.9516 44.9099 38.2496C44.7839 37.5476 44.7119 36.8456 44.7479 36.1976C44.8019 35.5496 44.9279 34.9736 45.1079 34.4516C45.4499 33.4076 45.9719 32.6696 46.3679 32.2016C46.5659 31.9676 46.7459 31.8056 46.8719 31.6976C46.9919 31.5896 47.0519 31.5416 47.0519 31.5536C47.0699 31.5716 46.8179 31.7876 46.4219 32.2556C46.0619 32.7236 45.5579 33.4616 45.2339 34.4876C45.0719 34.9916 44.9459 35.5856 44.9099 36.2156C44.8739 36.8456 44.9639 37.5116 45.0899 38.2136C45.1979 38.9156 45.3599 39.6896 45.2159 40.4816C45.0899 41.2916 44.6939 42.0296 44.2079 42.7136C43.7399 43.3976 43.2359 44.0276 42.8399 44.6936C42.6359 45.0296 42.4739 45.3716 42.3539 45.7196C42.2459 46.0616 42.1739 46.4216 42.1559 46.7636C42.1019 47.4836 42.1919 48.1496 42.2099 48.7976C42.2459 49.4456 42.1919 50.0396 42.0659 50.5796C41.8319 51.6596 41.3999 52.4516 41.0579 52.9556C40.8959 53.2076 40.7339 53.3876 40.6259 53.5136C40.5179 53.6336 40.4639 53.6876 40.4639 53.6756Z" fill="#455A64"/>
<path d="M37.0439 54.2154C37.0439 54.2154 37.0799 54.1374 37.1519 53.9814C37.2479 53.8134 37.3679 53.5854 37.5119 53.2974C37.8179 52.7214 38.2679 51.8754 38.6999 50.7774C39.1319 49.6974 39.5639 48.3294 39.5819 46.7814C39.5819 46.3974 39.5519 46.0014 39.4919 45.5934C39.4379 45.1974 39.3479 44.7834 39.2759 44.3694C39.2219 43.9374 39.2039 43.4874 39.3119 43.0374C39.4199 42.5874 39.7079 42.1914 40.0499 41.8854C40.7159 41.2734 41.5439 40.8594 41.9579 40.1394C42.3899 39.4374 42.4979 38.6094 42.6059 37.8354C42.6959 37.0614 42.8399 36.3234 43.0919 35.6574C43.3439 35.0094 43.6679 34.4334 44.0099 33.9474C44.6939 32.9574 45.4679 32.3454 46.0079 31.9854C46.2779 31.8054 46.5119 31.6794 46.6739 31.5894C46.8299 31.5174 46.9079 31.4814 46.9079 31.4814C46.9259 31.4994 46.5839 31.6614 46.0439 32.0394C45.5219 32.4174 44.7839 33.0474 44.1179 34.0194C43.7939 34.5054 43.4699 35.0634 43.2359 35.7114C43.0019 36.3594 42.8579 37.0794 42.7679 37.8534C42.6599 38.6274 42.5699 39.4734 42.1199 40.2474C41.6519 41.0214 40.8059 41.4354 40.1759 42.0294C39.8519 42.3174 39.5999 42.6774 39.4919 43.0914C39.3839 43.5054 39.4019 43.9194 39.4559 44.3334C39.5279 44.7474 39.6179 45.1614 39.6719 45.5754C39.7319 45.9834 39.7619 46.3854 39.7619 46.7814C39.7259 48.3654 39.2759 49.7334 38.8259 50.8314C38.3579 51.9294 37.8899 52.7574 37.5659 53.3334C37.4099 53.6094 37.2839 53.8314 37.1879 53.9994C37.1039 54.1434 37.0559 54.2154 37.0439 54.2154Z" fill="#455A64"/>
<path d="M156.15 155.952C156.15 155.94 156.174 155.886 156.222 155.79C156.27 155.682 156.336 155.538 156.42 155.358C156.6 154.98 156.816 154.386 157.032 153.612C157.428 152.064 157.554 149.706 156.978 146.898C156.708 145.494 156.258 143.982 155.718 142.38C155.196 140.778 154.584 139.068 154.08 137.232C153.594 135.396 153.198 133.416 153.27 131.328C153.342 129.24 153.972 127.152 154.656 125.064C155.322 122.994 156.024 120.96 156.24 118.908C156.474 116.874 156.042 114.858 155.106 113.22C154.206 111.564 153.072 110.142 152.226 108.666C151.362 107.208 150.822 105.696 150.498 104.292C149.85 101.466 150.084 99.0899 150.39 97.5059C150.714 95.9399 151.092 95.1299 151.092 95.1299C151.092 95.1299 151.08 95.1779 151.056 95.2739C151.02 95.3939 150.972 95.5499 150.912 95.7419C150.786 96.1379 150.624 96.7499 150.462 97.5239C150.192 99.0899 149.994 101.466 150.642 104.256C150.984 105.642 151.524 107.136 152.388 108.576C153.234 110.034 154.368 111.438 155.286 113.13C156.24 114.786 156.69 116.856 156.456 118.926C156.24 121.014 155.538 123.066 154.854 125.136C154.17 127.206 153.558 129.276 153.486 131.328C153.414 133.38 153.792 135.36 154.278 137.178C154.764 139.014 155.376 140.706 155.898 142.326C156.42 143.928 156.852 145.44 157.122 146.862C157.698 149.688 157.536 152.082 157.104 153.63C156.888 154.422 156.654 154.998 156.456 155.376C156.372 155.556 156.3 155.7 156.24 155.808C156.192 155.904 156.162 155.952 156.15 155.952Z" fill="#263238"/>
<path d="M153.378 110.124C153.378 110.124 151.668 104.616 154.746 101.376C154.854 101.268 155.052 101.322 155.07 101.484C155.25 102.384 155.448 105.156 153.378 110.124Z" fill="#4B8AB9"/>
<path d="M154.421 103.212C154.439 103.23 154.385 103.608 154.295 104.238C154.187 104.94 154.043 105.75 153.899 106.668C153.755 107.568 153.629 108.396 153.521 109.098C153.431 109.71 153.359 110.106 153.341 110.106C153.305 110.106 153.305 109.71 153.359 109.08C153.431 108.45 153.539 107.586 153.683 106.632C153.845 105.678 154.007 104.832 154.151 104.202C154.277 103.59 154.385 103.212 154.421 103.212Z" fill="#263238"/>
<path d="M155.412 123.12C155.412 123.12 156.456 117.432 160.704 116.028C160.848 115.974 160.992 116.118 160.938 116.262C160.668 117.144 159.552 119.7 155.412 123.12Z" fill="#4B8AB9"/>
<path d="M159.552 117.504C159.57 117.522 159.336 117.828 158.976 118.35C158.544 118.908 158.04 119.574 157.482 120.312C156.924 121.032 156.438 121.698 156.006 122.274C155.628 122.778 155.394 123.102 155.376 123.084C155.358 123.066 155.538 122.724 155.88 122.184C156.222 121.662 156.726 120.942 157.32 120.168C157.896 119.412 158.436 118.728 158.85 118.242C159.246 117.756 159.516 117.486 159.552 117.504Z" fill="#263238"/>
<path d="M154.26 137.358C154.26 137.358 153.612 131.616 157.266 129.042C157.392 128.952 157.572 129.042 157.572 129.186C157.554 130.122 157.23 132.876 154.26 137.358Z" fill="#4B8AB9"/>
<path d="M156.583 130.77C156.619 130.788 156.493 131.166 156.277 131.742C156.043 132.408 155.755 133.2 155.431 134.064C155.125 134.928 154.837 135.702 154.585 136.368C154.387 136.962 154.243 137.34 154.225 137.322C154.189 137.322 154.279 136.926 154.441 136.332C154.621 135.72 154.891 134.892 155.233 133.992C155.557 133.074 155.899 132.282 156.133 131.688C156.385 131.112 156.565 130.77 156.583 130.77Z" fill="#263238"/>
<path d="M157.447 151.668C157.447 151.668 157.015 145.908 160.759 143.478C160.885 143.388 161.065 143.478 161.065 143.64C161.011 144.558 160.597 147.312 157.447 151.668Z" fill="#4B8AB9"/>
<path d="M160.02 145.188C160.038 145.188 159.912 145.566 159.678 146.142C159.408 146.808 159.084 147.582 158.742 148.428C158.4 149.274 158.094 150.048 157.824 150.714C157.59 151.29 157.446 151.65 157.41 151.65C157.392 151.632 157.482 151.254 157.68 150.66C157.878 150.048 158.184 149.238 158.544 148.338C158.904 147.456 159.264 146.664 159.534 146.088C159.804 145.512 159.984 145.17 160.02 145.188Z" fill="#263238"/>
<path d="M150.912 105.282C150.912 105.282 145.782 102.6 145.692 98.1363C145.692 97.9923 145.854 97.8843 145.98 97.9743C146.754 98.4963 148.86 100.314 150.912 105.282Z" fill="#4B8AB9"/>
<path d="M146.754 99.666C146.772 99.666 147.024 99.972 147.384 100.476C147.798 101.052 148.284 101.718 148.824 102.474C149.364 103.212 149.868 103.878 150.282 104.454C150.66 104.958 150.894 105.282 150.858 105.3C150.84 105.318 150.57 105.03 150.156 104.544C149.76 104.076 149.22 103.374 148.662 102.6C148.086 101.808 147.6 101.088 147.258 100.566C146.916 100.026 146.736 99.684 146.754 99.666Z" fill="#263238"/>
<path d="M156.402 117.107C156.402 117.107 151.128 114.749 150.768 110.303C150.75 110.141 150.912 110.033 151.056 110.123C151.83 110.591 154.044 112.283 156.402 117.107Z" fill="#4B8AB9"/>
<path d="M151.92 111.761C151.938 111.743 152.19 112.049 152.604 112.535C153.054 113.075 153.576 113.723 154.152 114.425C154.746 115.145 155.268 115.775 155.718 116.333C156.132 116.819 156.384 117.107 156.366 117.125C156.33 117.143 156.042 116.891 155.61 116.423C155.178 115.973 154.602 115.307 153.99 114.569C153.378 113.813 152.856 113.129 152.478 112.625C152.1 112.121 151.884 111.779 151.92 111.761Z" fill="#263238"/>
<path d="M153.36 130.302C153.36 130.302 149.742 125.802 151.452 121.68C151.506 121.536 151.704 121.518 151.794 121.644C152.28 122.436 153.486 124.938 153.36 130.302Z" fill="#4B8AB9"/>
<path d="M151.812 123.516C151.83 123.498 151.938 123.876 152.064 124.506C152.226 125.19 152.406 126 152.586 126.9C152.784 127.8 152.964 128.61 153.126 129.312C153.27 129.924 153.342 130.302 153.324 130.302C153.288 130.32 153.144 129.942 152.982 129.348C152.802 128.736 152.586 127.89 152.388 126.954C152.172 126 152.028 125.154 151.92 124.524C151.812 123.912 151.776 123.516 151.812 123.516Z" fill="#263238"/>
<path d="M156.96 145.836C156.96 145.836 151.722 143.388 151.434 138.942C151.416 138.78 151.578 138.672 151.722 138.762C152.496 139.248 154.692 140.976 156.96 145.836Z" fill="#4B8AB9"/>
<path d="M152.55 140.418C152.586 140.4 152.838 140.706 153.234 141.192C153.666 141.75 154.188 142.398 154.764 143.118C155.322 143.838 155.844 144.486 156.294 145.044C156.69 145.53 156.924 145.836 156.906 145.854C156.888 145.872 156.6 145.62 156.168 145.152C155.754 144.684 155.178 144.018 154.584 143.262C153.99 142.506 153.468 141.804 153.108 141.282C152.748 140.778 152.532 140.436 152.55 140.418Z" fill="#263238"/>
<path d="M167.364 123.138C167.376 123.138 167.382 123.18 167.382 123.264C167.37 123.372 167.364 123.498 167.364 123.642C167.352 123.99 167.334 124.458 167.31 125.046C167.238 126.27 167.148 127.98 167.022 130.032V130.05C166.662 132.138 165.6 134.46 164.16 136.71C163.116 138.366 162.018 139.86 161.064 141.264C160.11 142.65 159.318 143.946 158.742 145.098C158.184 146.25 157.86 147.222 157.662 147.906C157.566 148.254 157.5 148.524 157.464 148.716C157.416 148.896 157.392 148.986 157.392 148.986C157.38 148.986 157.392 148.89 157.428 148.698C157.452 148.506 157.506 148.236 157.59 147.888C157.752 147.186 158.058 146.196 158.616 145.026C159.156 143.874 159.948 142.56 160.902 141.156C161.838 139.734 162.936 138.24 163.98 136.584C165.402 134.352 166.464 132.066 166.842 130.014V130.032C166.986 127.98 167.112 126.27 167.202 125.028C167.25 124.452 167.286 123.99 167.31 123.642C167.322 123.498 167.334 123.372 167.346 123.264C167.358 123.18 167.364 123.138 167.364 123.138Z" fill="#263238"/>
<path d="M164.25 136.278C164.25 136.278 166.464 130.95 163.692 127.44C163.584 127.332 163.386 127.368 163.35 127.512C163.098 128.412 162.648 131.148 164.25 136.278Z" fill="#4B8AB9"/>
<path d="M163.854 129.312C163.89 129.312 163.944 129.69 164.034 130.32C164.106 130.95 164.196 131.814 164.268 132.768C164.34 133.74 164.358 134.604 164.358 135.234C164.358 135.864 164.322 136.26 164.304 136.26C164.268 136.26 164.25 135.864 164.214 135.234C164.16 134.532 164.106 133.704 164.052 132.786C163.98 131.868 163.926 131.04 163.872 130.338C163.836 129.708 163.818 129.312 163.854 129.312Z" fill="#263238"/>
<g opacity="0.3">
<path d="M164.25 136.278C164.25 136.278 166.464 130.95 163.692 127.44C163.584 127.332 163.386 127.368 163.35 127.512C163.098 128.412 162.648 131.148 164.25 136.278Z" fill="#353535"/>
</g>
<path d="M157.392 149.112C157.392 149.112 159.174 143.622 156.114 140.364C156.006 140.256 155.808 140.31 155.79 140.454C155.61 141.372 155.376 144.144 157.392 149.112Z" fill="#4B8AB9"/>
<path d="M156.421 142.199C156.457 142.199 156.565 142.577 156.691 143.207C156.817 143.819 156.979 144.683 157.123 145.619C157.267 146.573 157.375 147.437 157.429 148.067C157.465 148.697 157.465 149.093 157.447 149.093C157.411 149.093 157.357 148.715 157.267 148.085C157.159 147.383 157.033 146.573 156.907 145.655C156.763 144.755 156.637 143.927 156.529 143.225C156.439 142.595 156.403 142.217 156.421 142.199Z" fill="#263238"/>
<g opacity="0.3">
<path d="M157.392 149.112C157.392 149.112 159.174 143.622 156.114 140.364C156.006 140.256 155.808 140.31 155.79 140.454C155.61 141.372 155.376 144.144 157.392 149.112Z" fill="#353535"/>
</g>
<path d="M167.076 129.762C167.076 129.762 171.81 126.45 171.324 122.004C171.306 121.842 171.126 121.77 171.018 121.878C170.316 122.508 168.462 124.56 167.076 129.762Z" fill="#4B8AB9"/>
<g opacity="0.3">
<path d="M167.076 129.762C167.076 129.762 171.81 126.45 171.324 122.004C171.306 121.842 171.126 121.77 171.018 121.878C170.316 122.508 168.462 124.56 167.076 129.762Z" fill="#353535"/>
</g>
<path d="M170.478 123.66C170.496 123.678 170.352 124.038 170.082 124.614C169.812 125.172 169.416 125.964 168.966 126.81C168.498 127.656 168.066 128.412 167.724 128.934C167.382 129.474 167.148 129.78 167.13 129.762C167.094 129.762 167.292 129.42 167.598 128.862C167.922 128.232 168.336 127.512 168.768 126.702C169.2 125.892 169.596 125.154 169.938 124.542C170.244 123.984 170.442 123.642 170.478 123.66Z" fill="#263238"/>
<path d="M159.3 143.676C159.3 143.676 165.006 142.776 166.536 138.582C166.59 138.438 166.446 138.294 166.302 138.33C165.42 138.582 162.846 139.626 159.3 143.676Z" fill="#4B8AB9"/>
<g opacity="0.3">
<path d="M159.3 143.676C159.3 143.676 165.006 142.776 166.536 138.582C166.59 138.438 166.446 138.294 166.302 138.33C165.42 138.582 162.846 139.626 159.3 143.676Z" fill="#353535"/>
</g>
<path d="M165.042 139.697C165.06 139.715 164.754 139.985 164.268 140.363C163.764 140.759 163.08 141.299 162.288 141.857C161.514 142.415 160.776 142.901 160.236 143.225C159.696 143.549 159.354 143.729 159.336 143.711C159.318 143.675 159.642 143.459 160.164 143.099C160.74 142.685 161.424 142.199 162.162 141.677C162.918 141.137 163.602 140.669 164.178 140.255C164.682 139.895 165.024 139.679 165.042 139.697Z" fill="#263238"/>
<path d="M153.864 154.17L152.19 165.366H162.558L161.226 154.17H153.864Z" fill="#455A64"/>
<path d="M161.641 157.644C161.641 157.698 159.769 157.752 157.465 157.752C155.143 157.752 153.271 157.698 153.271 157.644C153.271 157.572 155.143 157.536 157.465 157.536C159.769 157.536 161.641 157.572 161.641 157.644Z" fill="#263238"/>
<path d="M161.838 158.526C161.838 158.598 159.912 158.634 157.518 158.634C155.142 158.634 153.198 158.598 153.198 158.526C153.198 158.472 155.142 158.418 157.518 158.418C159.912 158.418 161.838 158.472 161.838 158.526Z" fill="#263238"/>
<path d="M121.518 45.5581C121.518 45.5581 121.428 45.5581 121.248 45.5581C121.05 45.5401 120.78 45.5221 120.42 45.5581C119.7 45.5941 118.62 45.7381 117.342 46.2601C116.1 46.8001 114.624 47.7361 113.454 49.3021C112.878 50.0761 112.392 51.0121 112.086 52.0741C111.816 53.1541 111.708 54.3241 111.852 55.5481C111.996 56.7541 112.374 58.0141 113.058 59.1661C113.382 59.7421 113.796 60.3001 114.282 60.7861C114.75 61.2901 115.308 61.7401 115.938 62.0821C116.568 62.4241 117.27 62.6401 118.008 62.6041C118.746 62.5861 119.484 62.3341 120.024 61.7941C120.564 61.2721 120.834 60.4981 120.834 59.7241C120.834 58.9501 120.564 58.1761 120.096 57.5101C119.16 56.1961 117.648 55.3141 116.046 54.8461C114.426 54.3601 112.644 54.3601 110.934 54.7741C110.088 54.9901 109.242 55.3141 108.468 55.7461C107.694 56.1781 106.974 56.7541 106.362 57.4021C106.2 57.5821 106.038 57.7261 105.912 57.9241L105.498 58.4641C105.264 58.8601 105.012 59.2561 104.832 59.6701C104.454 60.4981 104.184 61.3981 104.058 62.3161C103.806 64.1701 104.04 66.0601 104.778 67.7161C105.498 69.3901 106.722 70.8121 108.252 71.6761C109.026 72.0901 109.872 72.3601 110.718 72.4141C111.564 72.4681 112.428 72.2521 113.148 71.8381C113.868 71.4241 114.48 70.7941 114.786 70.0381C115.11 69.2821 115.092 68.4361 114.822 67.6801C114.57 66.9421 114.066 66.2941 113.472 65.7721C112.878 65.2501 112.194 64.8721 111.492 64.6201C110.034 64.1341 108.486 64.1701 107.1 64.5481C105.714 64.9261 104.472 65.6281 103.5 66.5461C102.528 67.4641 101.862 68.5981 101.448 69.7321C100.62 72.0541 100.818 74.4121 101.538 76.2121C102.276 78.0121 103.446 79.3081 104.508 80.1721C105.588 81.0181 106.56 81.4861 107.226 81.7561C107.574 81.8881 107.838 81.9781 108.018 82.0261C108.186 82.0861 108.27 82.1161 108.27 82.1161C108.27 82.1161 108.18 82.0921 108 82.0441C107.82 81.9961 107.562 81.9121 107.226 81.7921C106.542 81.5401 105.552 81.0721 104.454 80.2261C103.374 79.3621 102.204 78.0841 101.448 76.2481C100.71 74.4301 100.494 72.0541 101.322 69.6961C101.736 68.5261 102.42 67.3741 103.41 66.4381C104.4 65.5021 105.642 64.7821 107.064 64.3861C108.468 64.0081 110.052 63.9721 111.546 64.4581C112.284 64.7281 112.986 65.1241 113.58 65.6461C114.192 66.1861 114.714 66.8341 114.984 67.6261C115.272 68.4181 115.29 69.3181 114.948 70.1101C114.624 70.9021 113.994 71.5501 113.238 71.9821C112.482 72.4141 111.6 72.6481 110.7 72.5941C109.818 72.5581 108.954 72.2701 108.162 71.8201C106.596 70.9561 105.354 69.4981 104.616 67.8061C103.842 66.1141 103.626 64.1701 103.86 62.2981C104.004 61.3621 104.274 60.4441 104.67 59.5981C104.85 59.1661 105.102 58.7701 105.336 58.3561L105.768 57.7981C105.894 57.6181 106.074 57.4561 106.218 57.2761C106.848 56.6101 107.586 56.0341 108.378 55.5841C109.17 55.1521 110.016 54.8101 110.88 54.5941C112.626 54.1801 114.444 54.1801 116.1 54.6661C117.738 55.1521 119.268 56.0521 120.24 57.4201C120.726 58.0861 120.996 58.9141 120.996 59.7241C120.996 60.5341 120.708 61.3441 120.15 61.9201C119.574 62.4781 118.782 62.7481 118.026 62.7661C117.252 62.8021 116.496 62.5681 115.866 62.2261C115.218 61.8661 114.642 61.4161 114.174 60.8941C113.67 60.3901 113.274 59.8141 112.932 59.2381C112.248 58.0681 111.87 56.7901 111.726 55.5661C111.582 54.3241 111.69 53.1361 111.978 52.0561C112.284 50.9761 112.788 50.0221 113.364 49.2301C114.57 47.6641 116.046 46.7281 117.324 46.1881C118.602 45.6661 119.7 45.5401 120.42 45.5221C120.78 45.5041 121.05 45.5221 121.248 45.5401C121.428 45.5521 121.518 45.5581 121.518 45.5581Z" fill="#263238"/>
<path d="M133.542 120.51H83.0703V81.5762H133.542V120.51Z" fill="#4B8AB9"/>
<path d="M83.0703 81.5762L92.3943 90.2702H142.02L133.542 81.5762H83.0703Z" fill="#4B8AB9"/>
<path d="M83.0703 81.5763C83.9883 81.5763 104.832 81.5403 133.542 81.4863H133.578L133.614 81.5043C136.314 84.2943 139.122 87.1743 142.002 90.1263C142.026 90.1503 142.05 90.1803 142.074 90.2163L142.236 90.3603H142.02C121.662 90.3603 103.608 90.3423 92.3943 90.3243H92.3763L92.3583 90.3063C86.5263 84.8163 83.3763 81.8643 83.0703 81.5763C83.3763 81.8643 86.5443 84.7983 92.4303 90.2343L92.3943 90.2163C103.608 90.2163 121.662 90.1983 142.02 90.1803L141.948 90.3423C141.924 90.3063 141.894 90.2763 141.858 90.2523C138.996 87.3003 136.188 84.4203 133.488 81.6483L133.542 81.6663C104.832 81.6123 83.9883 81.5763 83.0703 81.5763Z" fill="#263238"/>
<path d="M98.2262 99.5225C97.7042 99.5225 97.2182 100.008 97.2002 100.548C97.2002 101.07 97.6682 101.574 98.1902 101.592C98.7302 101.61 99.2342 101.16 99.2702 100.62C99.2882 100.08 98.8382 99.5765 98.3162 99.5405" fill="#263238"/>
<path d="M110.142 99.5225C109.62 99.5225 109.134 100.008 109.116 100.548C109.116 101.07 109.584 101.574 110.106 101.592C110.646 101.61 111.15 101.16 111.186 100.62C111.204 100.08 110.754 99.5765 110.232 99.5405" fill="#263238"/>
<path d="M110.232 108.847C110.178 108.865 110.088 107.875 109.224 106.615C108.81 105.985 108.162 105.319 107.316 104.779C106.488 104.239 105.408 103.861 104.256 103.807C103.104 103.789 102.024 104.113 101.16 104.617C100.278 105.103 99.6123 105.733 99.1443 106.327C98.2083 107.551 98.0823 108.541 98.0283 108.523C98.0283 108.511 98.0403 108.451 98.0643 108.343C98.0823 108.235 98.1183 108.073 98.1903 107.857C98.3163 107.461 98.5863 106.885 99.0363 106.255C99.5043 105.625 100.17 104.977 101.07 104.455C101.952 103.951 103.068 103.609 104.274 103.627C105.462 103.663 106.56 104.077 107.406 104.635C108.27 105.193 108.918 105.895 109.332 106.543C109.764 107.191 109.998 107.767 110.106 108.199C110.16 108.397 110.178 108.559 110.214 108.685C110.226 108.793 110.232 108.847 110.232 108.847Z" fill="#263238"/>
<path opacity="0.5" d="M83.1777 82.0078L92.1057 93.3298H133.542V90.2698H92.3937L83.1777 82.0078Z" fill="#353535"/>
<path d="M123.588 120.42C123.534 120.42 123.498 113.652 123.498 105.3C123.498 96.9477 123.534 90.1797 123.588 90.1797C123.642 90.1797 123.696 96.9477 123.696 105.3C123.696 113.652 123.642 120.42 123.588 120.42Z" fill="#263238"/>
<path d="M131.526 116.623H127.062V111.601H131.526V116.623Z" fill="#F5F5F5"/>
<path d="M83.0701 81.5762L72.7021 90.2702H83.0701V81.5762Z" fill="#4B8AB9"/>
<g opacity="0.4">
<path d="M83.0701 81.5762L72.7021 90.2702H83.0701V81.5762Z" fill="#353535"/>
</g>
<path d="M135.036 165.276H77.0039V120.51H135.036V165.276Z" fill="#4B8AB9"/>
<path opacity="0.3" d="M135.036 165.276H77.0039V120.51H135.036V165.276Z" fill="#353535"/>
<path d="M120.492 164.952C120.438 164.952 120.402 154.98 120.402 142.668C120.402 130.356 120.438 120.384 120.492 120.384C120.546 120.384 120.582 130.356 120.582 142.668C120.582 154.98 120.546 164.952 120.492 164.952Z" fill="#263238"/>
<path d="M130.122 160.11H125.658V155.088H130.122V160.11Z" fill="#F5F5F5"/>
<path d="M94.6982 120.618V130.176H101.304V120.618H94.6982Z" fill="#263238"/>
<path d="M94.6982 155.592V165.132H101.304V155.592H94.6982Z" fill="#263238"/>
<path d="M134.532 120.51C134.532 120.51 134.484 120.51 134.388 120.51C134.28 120.522 134.13 120.528 133.938 120.528C133.56 120.528 132.984 120.528 132.264 120.546C130.806 120.546 128.7 120.564 126.108 120.582C120.888 120.582 113.706 120.582 105.768 120.6C97.8299 120.582 90.6479 120.582 85.4279 120.582C82.8359 120.564 80.7299 120.546 79.2539 120.546C78.5339 120.528 77.9759 120.528 77.5799 120.528C77.3999 120.528 77.2559 120.522 77.1479 120.51C77.0519 120.51 77.0039 120.51 77.0039 120.51C77.0039 120.51 77.0519 120.504 77.1479 120.492C77.2559 120.492 77.3999 120.492 77.5799 120.492C77.9759 120.492 78.5339 120.474 79.2539 120.474C80.7299 120.456 82.8359 120.456 85.4279 120.438C90.6479 120.438 97.8299 120.42 105.768 120.42C113.706 120.42 120.888 120.438 126.108 120.438C128.7 120.456 130.806 120.456 132.264 120.474C132.984 120.474 133.56 120.492 133.938 120.492C134.13 120.492 134.28 120.492 134.388 120.492C134.484 120.504 134.532 120.51 134.532 120.51Z" fill="#263238"/>
</svg>
