<svg width="65" height="60" viewBox="0 0 65 60" fill="none" xmlns="http://www.w3.org/2000/svg">
<path d="M63.8929 13.7669C55.5103 4.88991 44.3609 0 32.4999 0C20.639 0 9.48956 4.88991 1.10697 13.7669C-0.368989 15.3303 -0.368989 17.8725 1.10697 19.4359L7.3523 26.049C8.82305 27.6017 11.4206 27.6017 12.8913 26.049C14.9836 23.8344 17.3563 22.0114 19.9381 20.6371C21.2316 19.9646 22.0674 18.5516 22.0569 17.2173L22.9986 10.0503C29.9078 7.82641 35.1638 7.82782 42.0043 10.049L42.9354 17.0377C42.9354 18.5492 43.7316 19.9288 45.033 20.6492C47.6253 22.0302 50.0007 23.8533 52.093 26.0665C52.8258 26.8455 53.8098 27.273 54.8625 27.273C55.9153 27.273 56.8993 26.8455 57.632 26.0679L63.8932 19.4361C65.369 17.8724 65.369 15.3303 63.8929 13.7669Z" fill="#4B8AB9"/>
<path d="M50.12 25.427C48.9403 23.2005 46.6499 21.8182 44.1452 21.8182H20.8546C18.35 21.8182 16.0595 23.2005 14.8798 25.427L6.21275 41.792C5.69173 42.7774 5.41663 43.8867 5.41663 45.0001V54.5454C5.41663 57.5536 7.84727 60 10.8333 60H54.1666C57.1527 60 59.5833 57.5538 59.5833 54.5454V44.9999C59.5833 43.8867 59.3082 42.7774 58.7872 41.7906L50.12 25.427ZM24.3723 51.8182C22.8779 51.8182 21.664 50.5944 21.664 49.091C21.664 47.5875 22.878 46.3637 24.3723 46.3637C25.8666 46.3637 27.0805 47.5875 27.0805 49.091C27.0807 50.5944 25.8666 51.8182 24.3723 51.8182ZM24.3723 43.6364C22.8779 43.6364 21.664 42.4126 21.664 40.9091C21.664 39.4057 22.878 38.1819 24.3723 38.1819C25.8666 38.1819 27.0805 39.4057 27.0805 40.9091C27.0807 42.4126 25.8666 43.6364 24.3723 43.6364ZM24.3723 35.4546C22.8779 35.4546 21.664 34.2307 21.664 32.7273C21.664 31.2239 22.878 30.0001 24.3723 30.0001C25.8666 30.0001 27.0805 31.2239 27.0805 32.7273C27.0807 34.2307 25.8666 35.4546 24.3723 35.4546ZM32.4999 51.8182C31.0056 51.8182 29.7916 50.5944 29.7916 49.091C29.7916 47.5875 31.0057 46.3637 32.4999 46.3637C33.9942 46.3637 35.2082 47.5875 35.2082 49.091C35.2082 50.5944 33.9943 51.8182 32.4999 51.8182ZM32.4999 43.6364C31.0056 43.6364 29.7916 42.4126 29.7916 40.9091C29.7916 39.4057 31.0057 38.1819 32.4999 38.1819C33.9942 38.1819 35.2082 39.4057 35.2082 40.9091C35.2082 42.4126 33.9943 43.6364 32.4999 43.6364ZM32.4999 35.4546C31.0056 35.4546 29.7916 34.2307 29.7916 32.7273C29.7916 31.2239 31.0057 30.0001 32.4999 30.0001C33.9942 30.0001 35.2082 31.2239 35.2082 32.7273C35.2082 34.2307 33.9943 35.4546 32.4999 35.4546ZM40.6223 51.8182C39.1279 51.8182 37.914 50.5944 37.914 49.091C37.914 47.5875 39.128 46.3637 40.6223 46.3637C42.1166 46.3637 43.3305 47.5875 43.3305 49.091C43.3307 50.5944 42.1166 51.8182 40.6223 51.8182ZM40.6223 43.6364C39.1279 43.6364 37.914 42.4126 37.914 40.9091C37.914 39.4057 39.128 38.1819 40.6223 38.1819C42.1166 38.1819 43.3305 39.4057 43.3305 40.9091C43.3307 42.4126 42.1166 43.6364 40.6223 43.6364ZM40.6223 35.4546C39.1279 35.4546 37.914 34.2307 37.914 32.7273C37.914 31.2239 39.128 30.0001 40.6223 30.0001C42.1166 30.0001 43.3305 31.2239 43.3305 32.7273C43.3307 34.2307 42.1166 35.4546 40.6223 35.4546Z" fill="#4B8AB9"/>
</svg>
