<svg width="20" height="20" viewBox="0 0 20 20" fill="none" xmlns="http://www.w3.org/2000/svg">
<path d="M20 1.42857C20 6.5 16.6953 10.692 12.4141 11.3393C12.1367 8.95536 11.2188 6.80357 9.86328 5.12054C11.3594 2.06696 14.2188 0 17.5 0H18.75C19.4414 0 20 0.638393 20 1.42857ZM0 4.28571C0 3.49554 0.558594 2.85714 1.25 2.85714H2.5C7.33203 2.85714 11.25 7.33482 11.25 12.8571V14.2857V18.5714C11.25 19.3616 10.6914 20 10 20C9.30859 20 8.75 19.3616 8.75 18.5714V14.2857C3.91797 14.2857 0 9.80804 0 4.28571Z" fill="#4B8AB9"/>
</svg>
