<svg width="888" height="888" viewBox="0 0 888 888" fill="none" xmlns="http://www.w3.org/2000/svg">
<path fill-rule="evenodd" clip-rule="evenodd" d="M444 888C689.214 888 888 689.214 888 444C888 198.786 689.214 0 444 0C198.786 0 0 198.786 0 444C0 689.214 198.786 888 444 888ZM612.063 260.815C626.416 209.447 543.565 131.687 543.565 131.687C543.565 131.687 515.093 163.705 491.093 211.784C442.24 214.791 397.101 241.552 371.271 283.943C326.261 279.175 287.394 285.377 287.394 285.377C287.394 285.377 306.065 393.741 357.862 413.316C366.143 436.589 380.052 457.689 398.492 474.515L431.177 434.971C427.815 432.266 424.307 429.371 420.622 426.266C476.76 378.257 513.752 356.318 591.38 327.694C592.572 332.894 593.656 337.764 594.631 342.441L648.005 330.086C642.275 304.288 629.854 280.351 612.063 260.815ZM439.574 441.57L406.631 481.428C412.294 485.902 418.319 489.997 424.679 493.666C421.927 497.272 419.184 500.677 416.451 504.069L416.347 504.198H416.346L416.344 504.2C401.163 523.034 386.265 541.519 371.398 591.928C328.633 603.184 297.695 631.596 279.467 661.157C272.862 651.017 268.684 641.069 266.643 630.326C262.343 607.686 266.9 578.112 286.303 531.292C290.066 522.212 285.755 511.802 276.676 508.038C267.597 504.276 257.186 508.586 253.423 517.665C233.165 566.548 225.42 604.026 231.677 636.969C236.151 660.518 247.459 680.041 263.109 698.515C257.189 721.286 260.176 740.171 272.566 746.182C306.41 762.602 609.98 758.584 625.962 746.182C641.608 734.042 679.128 569.842 644.709 426.374L600.797 413.995C600.712 417.094 600.592 420.315 600.443 423.676C567.793 450.398 547.69 462.531 507.44 477.216C503.928 476.061 500.576 474.91 497.344 473.737L488.704 499.71C487.774 502.507 484.752 504.022 481.954 503.091C479.157 502.16 477.643 499.137 478.573 496.339L487.363 469.916C487.366 469.906 487.37 469.893 487.375 469.883C471.161 463.181 457.224 455.066 439.574 441.57ZM644.558 408.169C643.873 410.346 643.142 412.497 642.368 414.62L600.971 402.952C601.018 383.483 599.555 368.807 596.681 352.925L649.952 340.594C653.217 362.552 651.678 385.572 644.558 408.169Z" fill="#F7F7F7"/>
</svg>
