<svg width="187" height="272" viewBox="0 0 187 272" fill="none" xmlns="http://www.w3.org/2000/svg">
<path fill-rule="evenodd" clip-rule="evenodd" d="M136.492 0C136.492 0 172.506 33.8008 166.267 56.1298C174 64.6217 179.399 75.0267 181.89 86.2408L158.689 91.6115C158.265 89.5786 157.794 87.4614 157.276 85.2011C123.532 97.6436 107.453 107.18 83.0503 128.049C84.6524 129.398 86.177 130.657 87.6382 131.833L73.4307 149.022C65.415 141.708 59.3691 132.536 55.7695 122.42C33.2543 113.911 25.1382 66.8065 25.1382 66.8065C25.1382 66.8065 42.0332 64.1106 61.5982 66.1831C72.8262 47.7565 92.4474 36.124 113.683 34.8168C124.116 13.9174 136.492 0 136.492 0ZM76.9685 152.027L91.2886 134.701C98.9607 140.568 105.019 144.095 112.067 147.008C112.065 147.013 112.063 147.018 112.061 147.023L108.241 158.509C107.836 159.725 108.495 161.039 109.711 161.443C110.927 161.848 112.24 161.19 112.645 159.974L116.4 148.684C117.805 149.194 119.262 149.694 120.789 150.196C138.285 143.813 147.023 138.539 161.216 126.923C161.281 125.462 161.333 124.062 161.37 122.715L180.458 128.096C195.419 190.459 179.109 261.834 172.308 267.112C165.361 272.502 33.4042 274.249 18.6927 267.112C13.3069 264.498 12.0085 256.29 14.5819 246.391C7.77887 238.361 2.86363 229.875 0.919059 219.638C-1.80114 205.318 1.56578 189.027 10.3716 167.779C12.0072 163.832 16.5326 161.959 20.4792 163.594C24.4259 165.23 26.2994 169.755 24.6638 173.702C16.2296 194.054 14.2488 206.909 16.1182 216.751C17.0052 221.42 18.8213 225.745 21.6924 230.152C29.6158 217.303 43.0643 204.952 61.6534 200.06C68.1159 178.147 74.5925 170.112 81.1915 161.925H81.1923C82.3951 160.432 83.6027 158.934 84.814 157.347C82.0494 155.752 79.4301 153.972 76.9685 152.027ZM179.44 122.987C179.776 122.064 180.094 121.128 180.392 120.182C183.487 110.36 184.156 100.353 182.737 90.8085L159.58 96.1685C160.83 103.072 161.466 109.452 161.445 117.914L179.44 122.987Z" fill="#F7F7F7"/>
</svg>
